%TF.GenerationSoftware,KiCad,Pcbnew,(5.0.1)-4*%
%TF.CreationDate,2019-03-28T09:30:10+01:00*%
%TF.ProjectId,Funk-Schaltsteckdose,46756E6B2D536368616C74737465636B,rev?*%
%TF.SameCoordinates,Original*%
%TF.FileFunction,Legend,Bot*%
%TF.FilePolarity,Positive*%
%FSLAX46Y46*%
G04 Gerber Fmt 4.6, Leading zero omitted, Abs format (unit mm)*
G04 Created by KiCad (PCBNEW (5.0.1)-4) date 28.03.2019 09:30:10*
%MOMM*%
%LPD*%
G01*
G04 APERTURE LIST*
%ADD10C,0.150000*%
%ADD11C,0.200000*%
%ADD12C,0.120000*%
%ADD13C,0.010000*%
%ADD14C,0.100000*%
G04 APERTURE END LIST*
D10*
X113419000Y-73407000D02*
G75*
G03X113419000Y-73407000I-800000J0D01*
G01*
X88273000Y-73407000D02*
G75*
G03X88273000Y-73407000I-800000J0D01*
G01*
X82447000Y-91949000D02*
G75*
G03X82447000Y-91949000I-800000J0D01*
G01*
X119023000Y-91949000D02*
G75*
G03X119023000Y-91949000I-800000J0D01*
G01*
X107015000Y-96775000D02*
G75*
G03X107015000Y-96775000I-1000000J0D01*
G01*
D11*
X82150901Y-75467983D02*
G75*
G02X84065149Y-73283707I2931366J-638041D01*
G01*
X81000000Y-95000000D02*
G75*
G02X81000000Y-105000000I0J-5000000D01*
G01*
X80196658Y-75042623D02*
G75*
G02X83387070Y-71402163I4885609J-1063401D01*
G01*
X115068543Y-155000001D02*
G75*
G02X113820194Y-154461510I0J1716230D01*
G01*
X122685153Y-103000000D02*
G75*
G02X124393757Y-104554632I0J-1716229D01*
G01*
X74506558Y-129807258D02*
G75*
G02X76506506Y-129792742I999974J7258D01*
G01*
X101762500Y-70533059D02*
G75*
G02X115934851Y-73283707I-1762500J-46966941D01*
G01*
X101837500Y-68534465D02*
G75*
G02X116612930Y-71402163I-1837500J-48965535D01*
G01*
X76506506Y-126207258D02*
G75*
G02X77573182Y-105000000I246993494J-1792742D01*
G01*
X78390001Y-97000000D02*
X81000000Y-97000000D01*
X125493442Y-126192742D02*
G75*
G02X123493494Y-126207258I-999974J-7258D01*
G01*
X76506505Y-126207258D02*
G75*
G02X74506559Y-126192742I-999973J7258D01*
G01*
X75606243Y-104554632D02*
G75*
G02X77314847Y-103000000I1708604J-161597D01*
G01*
X83387070Y-71402163D02*
G75*
G02X98162500Y-68534465I16612930J-46097837D01*
G01*
X97500000Y-145000000D02*
G75*
G02X98500000Y-144000000I1000000J0D01*
G01*
X123493494Y-129792742D02*
G75*
G02X122231561Y-153000000I-246993494J1792742D01*
G01*
X75804972Y-153459248D02*
G75*
G02X74506559Y-129807258I247695028J25459248D01*
G01*
X81000000Y-95000000D02*
X78714380Y-95000000D01*
X122426818Y-105000000D02*
G75*
G02X123493494Y-126207258I-245926818J-23000000D01*
G01*
X119803342Y-75042623D02*
G75*
G02X123311142Y-95056710I-243303342J-52957377D01*
G01*
X98162500Y-68534465D02*
G75*
G02X98237500Y-70533059I37500J-999297D01*
G01*
X81000000Y-97000000D02*
G75*
G02X81000000Y-103000000I0J-3000000D01*
G01*
X76688858Y-95056710D02*
G75*
G02X80196658Y-75042623I246811142J-32943290D01*
G01*
X125493442Y-129807258D02*
G75*
G02X124195028Y-153459249I-248993442J1807258D01*
G01*
X101762500Y-70533059D02*
G75*
G02X101837500Y-68534465I37500J999297D01*
G01*
X77512207Y-155000001D02*
G75*
G02X75804972Y-153459249I0J1716230D01*
G01*
X102500000Y-146649341D02*
G75*
G02X115190458Y-153000000I-2500000J-20850659D01*
G01*
X124195027Y-153459249D02*
G75*
G02X122487793Y-155000000I-1707234J175478D01*
G01*
X116612930Y-71402163D02*
G75*
G02X119803342Y-75042623I-1695197J-4703861D01*
G01*
X86179806Y-154461510D02*
G75*
G02X113820194Y-154461510I13820194J-13038490D01*
G01*
X119000000Y-103000000D02*
G75*
G02X119000000Y-97000000I0J3000000D01*
G01*
X124393757Y-104554632D02*
G75*
G02X125493441Y-126192742I-247893757J-23445368D01*
G01*
X123311141Y-95056710D02*
G75*
G02X121609999Y-97000000I-1701142J-227061D01*
G01*
X115934851Y-73283707D02*
G75*
G02X117849098Y-75467983I-1017118J-2822317D01*
G01*
X74506559Y-126192742D02*
G75*
G02X75606243Y-104554632I248993441J-1807258D01*
G01*
X123493495Y-129792742D02*
G75*
G02X125493441Y-129807258I999973J-7258D01*
G01*
X78390001Y-97000001D02*
G75*
G02X76688858Y-95056710I0J1716230D01*
G01*
X81000000Y-103000000D02*
X77314847Y-103000000D01*
X78714380Y-95000000D02*
G75*
G02X82150902Y-75467983I244785620J-33000000D01*
G01*
X101500000Y-144000000D02*
G75*
G02X102500000Y-145000000I0J-1000000D01*
G01*
X84809542Y-153000000D02*
G75*
G02X97500000Y-146649341I15190458J-14500000D01*
G01*
X86179805Y-154461510D02*
G75*
G02X84931457Y-155000000I-1248348J1177739D01*
G01*
X84065149Y-73283707D02*
G75*
G02X98237500Y-70533059I15934851J-44216293D01*
G01*
X119000000Y-105000000D02*
G75*
G02X119000000Y-95000000I0J5000000D01*
G01*
X77573182Y-105000000D02*
X81000000Y-105000000D01*
X117849098Y-75467983D02*
G75*
G02X121285620Y-95000000I-241349098J-52532017D01*
G01*
X77768439Y-153000000D02*
G75*
G02X76506506Y-129792742I245731561J25000000D01*
G01*
X97500000Y-145000000D02*
X97500000Y-146649341D01*
X101500000Y-144000000D02*
X98500000Y-144000000D01*
X102500000Y-146649341D02*
X102500000Y-145000000D01*
X119000000Y-97000000D02*
X121609999Y-97000000D01*
X69500000Y-63500000D02*
X69500000Y-160000000D01*
X69500000Y-160000000D02*
X130500000Y-160000000D01*
X76000000Y-128000000D02*
G75*
G03X76000000Y-128000000I-500000J0D01*
G01*
X77512207Y-155000000D02*
X84931457Y-155000000D01*
X119000000Y-105000000D02*
X122426818Y-105000000D01*
X122231561Y-153000000D02*
X115190458Y-153000000D01*
X115068543Y-155000000D02*
X122487793Y-155000000D01*
X84809542Y-153000000D02*
X77768439Y-153000000D01*
X130500000Y-160000000D02*
X130500000Y-63500000D01*
X121285620Y-95000000D02*
X119000000Y-95000000D01*
X122685153Y-103000000D02*
X119000000Y-103000000D01*
X130500000Y-63500000D02*
X69500000Y-63500000D01*
X125000000Y-128000000D02*
G75*
G03X125000000Y-128000000I-500000J0D01*
G01*
X100500000Y-69500000D02*
G75*
G03X100500000Y-69500000I-500000J0D01*
G01*
D10*
X83490000Y-76505000D02*
G75*
G02X86030000Y-76505000I1270000J0D01*
G01*
X86030000Y-90475000D02*
G75*
G02X83490000Y-90475000I-1270000J0D01*
G01*
X86030000Y-90475000D02*
X86030000Y-76505000D01*
X83490000Y-76505000D02*
X83490000Y-90475000D01*
%TO.C,U4*%
X94285000Y-79045000D02*
X94285000Y-98045000D01*
X107285000Y-98045000D02*
X107285000Y-79045000D01*
X97585000Y-84445000D02*
X97585000Y-88445000D01*
X97585000Y-84445000D02*
X101585000Y-84445000D01*
X101585000Y-84445000D02*
X101615000Y-88445000D01*
X97585000Y-88445000D02*
X101585000Y-88445000D01*
X96535000Y-96245000D02*
G75*
G03X96535000Y-96245000I-700000J0D01*
G01*
X94285000Y-79045000D02*
X95428000Y-79045000D01*
X107285000Y-79045000D02*
X105969000Y-79045000D01*
X107285000Y-98045000D02*
X106785000Y-98045000D01*
X94285000Y-98045000D02*
X102921000Y-98045000D01*
G36*
X95175000Y-96305000D02*
X95265000Y-96625000D01*
X95475000Y-96805000D01*
X95795000Y-96925000D01*
X96165000Y-96835000D01*
X96405000Y-96605000D01*
X96495000Y-96225000D01*
X96465000Y-95975000D01*
X96265000Y-95725000D01*
X95845000Y-95585000D01*
X95445000Y-95705000D01*
X95225000Y-95955000D01*
X95175000Y-96305000D01*
G37*
X95175000Y-96305000D02*
X95265000Y-96625000D01*
X95475000Y-96805000D01*
X95795000Y-96925000D01*
X96165000Y-96835000D01*
X96405000Y-96605000D01*
X96495000Y-96225000D01*
X96465000Y-95975000D01*
X96265000Y-95725000D01*
X95845000Y-95585000D01*
X95445000Y-95705000D01*
X95225000Y-95955000D01*
X95175000Y-96305000D01*
%TO.C,U1*%
X85395000Y-89840000D02*
G75*
G03X85395000Y-89840000I-635000J0D01*
G01*
X85395000Y-87300000D02*
G75*
G03X85395000Y-87300000I-635000J0D01*
G01*
X85395000Y-84760000D02*
G75*
G03X85395000Y-84760000I-635000J0D01*
G01*
X85395000Y-82220000D02*
G75*
G03X85395000Y-82220000I-635000J0D01*
G01*
X85395000Y-79680000D02*
G75*
G03X85395000Y-79680000I-635000J0D01*
G01*
X85395000Y-77140000D02*
G75*
G03X85395000Y-77140000I-635000J0D01*
G01*
%TO.C,D1*%
X101219420Y-104383752D02*
G75*
G02X98800000Y-104369001I-1219420J-1585248D01*
G01*
X101200000Y-104369000D02*
X98800000Y-104369000D01*
D12*
%TO.C,R1*%
X110487000Y-102141000D02*
X113227000Y-102141000D01*
X113227000Y-102141000D02*
X113227000Y-108681000D01*
X113227000Y-108681000D02*
X110487000Y-108681000D01*
X110487000Y-108681000D02*
X110487000Y-102141000D01*
X111857000Y-101371000D02*
X111857000Y-102141000D01*
X111857000Y-109451000D02*
X111857000Y-108681000D01*
%TO.C,R2*%
X108301000Y-101371000D02*
X108301000Y-102141000D01*
X108301000Y-109451000D02*
X108301000Y-108681000D01*
X109671000Y-102141000D02*
X109671000Y-108681000D01*
X106931000Y-102141000D02*
X109671000Y-102141000D01*
X106931000Y-108681000D02*
X106931000Y-102141000D01*
X109671000Y-108681000D02*
X106931000Y-108681000D01*
%TO.C,R3*%
X92653000Y-102839000D02*
X89913000Y-102839000D01*
X89913000Y-102839000D02*
X89913000Y-96299000D01*
X89913000Y-96299000D02*
X92653000Y-96299000D01*
X92653000Y-96299000D02*
X92653000Y-102839000D01*
X91283000Y-103609000D02*
X91283000Y-102839000D01*
X91283000Y-95529000D02*
X91283000Y-96299000D01*
%TO.C,D2*%
X104403000Y-116691000D02*
X104403000Y-114451000D01*
X104403000Y-114451000D02*
X108643000Y-114451000D01*
X108643000Y-114451000D02*
X108643000Y-116691000D01*
X108643000Y-116691000D02*
X104403000Y-116691000D01*
X103753000Y-115571000D02*
X104403000Y-115571000D01*
X109293000Y-115571000D02*
X108643000Y-115571000D01*
X105123000Y-116691000D02*
X105123000Y-114451000D01*
X105243000Y-116691000D02*
X105243000Y-114451000D01*
X105003000Y-116691000D02*
X105003000Y-114451000D01*
D13*
%TO.C,REF\002A\002A*%
G36*
X98052844Y-128359844D02*
X97847742Y-128430957D01*
X97656785Y-128542889D01*
X97486243Y-128695625D01*
X97342387Y-128889151D01*
X97277768Y-129011129D01*
X97221842Y-129181743D01*
X97194735Y-129378711D01*
X97197738Y-129581205D01*
X97231067Y-129764699D01*
X97322162Y-129988924D01*
X97454258Y-130183422D01*
X97620642Y-130344367D01*
X97814598Y-130467933D01*
X98029414Y-130550292D01*
X98258375Y-130587617D01*
X98494767Y-130576082D01*
X98611291Y-130551430D01*
X98838385Y-130463091D01*
X99040081Y-130328290D01*
X99211515Y-130151183D01*
X99347820Y-129935927D01*
X99359352Y-129912419D01*
X99399217Y-129824205D01*
X99424249Y-129749910D01*
X99437839Y-129671535D01*
X99443382Y-129571080D01*
X99444302Y-129461774D01*
X99442780Y-129330448D01*
X99435914Y-129235509D01*
X99420250Y-129158753D01*
X99392333Y-129081974D01*
X99357873Y-129006223D01*
X99229338Y-128791190D01*
X99071052Y-128617080D01*
X98889287Y-128483876D01*
X98690313Y-128391566D01*
X98480400Y-128340134D01*
X98265821Y-128329565D01*
X98052844Y-128359844D01*
X98052844Y-128359844D01*
G37*
X98052844Y-128359844D02*
X97847742Y-128430957D01*
X97656785Y-128542889D01*
X97486243Y-128695625D01*
X97342387Y-128889151D01*
X97277768Y-129011129D01*
X97221842Y-129181743D01*
X97194735Y-129378711D01*
X97197738Y-129581205D01*
X97231067Y-129764699D01*
X97322162Y-129988924D01*
X97454258Y-130183422D01*
X97620642Y-130344367D01*
X97814598Y-130467933D01*
X98029414Y-130550292D01*
X98258375Y-130587617D01*
X98494767Y-130576082D01*
X98611291Y-130551430D01*
X98838385Y-130463091D01*
X99040081Y-130328290D01*
X99211515Y-130151183D01*
X99347820Y-129935927D01*
X99359352Y-129912419D01*
X99399217Y-129824205D01*
X99424249Y-129749910D01*
X99437839Y-129671535D01*
X99443382Y-129571080D01*
X99444302Y-129461774D01*
X99442780Y-129330448D01*
X99435914Y-129235509D01*
X99420250Y-129158753D01*
X99392333Y-129081974D01*
X99357873Y-129006223D01*
X99229338Y-128791190D01*
X99071052Y-128617080D01*
X98889287Y-128483876D01*
X98690313Y-128391566D01*
X98480400Y-128340134D01*
X98265821Y-128329565D01*
X98052844Y-128359844D01*
G36*
X79019033Y-130190618D02*
X78786746Y-130191571D01*
X78707796Y-130192052D01*
X77622151Y-130199193D01*
X77608495Y-134364247D01*
X77606692Y-134929041D01*
X77605092Y-135441864D01*
X77603594Y-135905371D01*
X77602094Y-136322214D01*
X77600491Y-136695045D01*
X77598680Y-137026519D01*
X77596560Y-137319286D01*
X77594028Y-137576002D01*
X77590980Y-137799318D01*
X77587315Y-137991887D01*
X77582929Y-138156363D01*
X77577720Y-138295398D01*
X77571584Y-138411644D01*
X77564420Y-138507756D01*
X77556125Y-138586386D01*
X77546595Y-138650187D01*
X77535728Y-138701811D01*
X77523421Y-138743912D01*
X77509572Y-138779143D01*
X77494077Y-138810156D01*
X77476835Y-138839604D01*
X77457742Y-138870141D01*
X77436695Y-138904418D01*
X77432381Y-138911720D01*
X77360004Y-139035221D01*
X78406024Y-139028068D01*
X79452044Y-139020914D01*
X79465699Y-138791142D01*
X79473135Y-138680873D01*
X79480883Y-138617122D01*
X79491397Y-138591827D01*
X79507128Y-138596922D01*
X79520323Y-138611498D01*
X79577803Y-138664591D01*
X79671487Y-138732837D01*
X79788175Y-138808080D01*
X79914669Y-138882167D01*
X80037769Y-138946943D01*
X80132287Y-138989561D01*
X80353726Y-139059595D01*
X80607793Y-139109204D01*
X80875734Y-139136494D01*
X81138789Y-139139569D01*
X81378205Y-139116532D01*
X81382147Y-139115873D01*
X81709747Y-139033669D01*
X82016413Y-138902700D01*
X82299186Y-138725780D01*
X82555108Y-138505726D01*
X82781222Y-138245351D01*
X82974570Y-137947472D01*
X83132194Y-137614904D01*
X83218016Y-137368548D01*
X83274611Y-137162445D01*
X83316582Y-136962867D01*
X83345211Y-136757690D01*
X83361782Y-136534791D01*
X83367577Y-136282045D01*
X83365011Y-136075662D01*
X81349675Y-136075662D01*
X81340138Y-136421732D01*
X81310054Y-136719467D01*
X81258497Y-136971510D01*
X81184542Y-137180502D01*
X81087262Y-137349086D01*
X80965734Y-137479906D01*
X80825454Y-137572385D01*
X80752460Y-137606909D01*
X80689153Y-137627607D01*
X80618573Y-137637077D01*
X80523758Y-137637915D01*
X80421613Y-137634228D01*
X80220739Y-137616510D01*
X80061866Y-137581813D01*
X80011936Y-137564433D01*
X79897925Y-137513102D01*
X79777677Y-137448643D01*
X79725162Y-137416376D01*
X79588603Y-137326805D01*
X79588603Y-134487706D01*
X79738818Y-134397665D01*
X79948308Y-134295923D01*
X80162342Y-134235751D01*
X80373091Y-134216796D01*
X80572727Y-134238701D01*
X80753423Y-134301113D01*
X80907351Y-134403676D01*
X80957019Y-134452906D01*
X81076738Y-134614211D01*
X81173636Y-134809471D01*
X81248523Y-135042031D01*
X81302207Y-135315239D01*
X81335500Y-135632441D01*
X81349211Y-135996984D01*
X81349675Y-136075662D01*
X83365011Y-136075662D01*
X83363942Y-135989756D01*
X83340918Y-135540158D01*
X83294622Y-135134628D01*
X83223836Y-134767257D01*
X83127339Y-134432137D01*
X83003913Y-134123363D01*
X82959869Y-134031822D01*
X82782460Y-133733296D01*
X82568070Y-133468007D01*
X82321741Y-133240237D01*
X82048513Y-133054268D01*
X81753426Y-132914382D01*
X81576541Y-132856678D01*
X81402822Y-132822422D01*
X81193795Y-132802041D01*
X80966986Y-132795525D01*
X80739916Y-132802866D01*
X80530108Y-132824055D01*
X80361648Y-132857295D01*
X80161143Y-132922482D01*
X79966805Y-133006307D01*
X79796776Y-133100280D01*
X79706279Y-133164058D01*
X79643856Y-133211484D01*
X79600147Y-133240361D01*
X79590204Y-133244462D01*
X79587121Y-133218041D01*
X79584247Y-133142339D01*
X79581645Y-133022698D01*
X79579379Y-132864462D01*
X79577512Y-132672973D01*
X79576109Y-132453574D01*
X79575233Y-132211607D01*
X79574947Y-131965147D01*
X79575106Y-131649476D01*
X79575892Y-131383337D01*
X79577762Y-131161641D01*
X79581175Y-130979296D01*
X79586591Y-130831212D01*
X79594469Y-130712299D01*
X79605267Y-130617465D01*
X79619445Y-130541620D01*
X79637461Y-130479674D01*
X79659775Y-130426536D01*
X79686846Y-130377115D01*
X79719133Y-130326321D01*
X79723287Y-130320031D01*
X79764929Y-130254245D01*
X79790071Y-130209008D01*
X79793441Y-130199466D01*
X79767097Y-130196455D01*
X79691931Y-130194006D01*
X79573743Y-130192158D01*
X79418331Y-130190951D01*
X79231494Y-130190424D01*
X79019033Y-130190618D01*
X79019033Y-130190618D01*
G37*
X79019033Y-130190618D02*
X78786746Y-130191571D01*
X78707796Y-130192052D01*
X77622151Y-130199193D01*
X77608495Y-134364247D01*
X77606692Y-134929041D01*
X77605092Y-135441864D01*
X77603594Y-135905371D01*
X77602094Y-136322214D01*
X77600491Y-136695045D01*
X77598680Y-137026519D01*
X77596560Y-137319286D01*
X77594028Y-137576002D01*
X77590980Y-137799318D01*
X77587315Y-137991887D01*
X77582929Y-138156363D01*
X77577720Y-138295398D01*
X77571584Y-138411644D01*
X77564420Y-138507756D01*
X77556125Y-138586386D01*
X77546595Y-138650187D01*
X77535728Y-138701811D01*
X77523421Y-138743912D01*
X77509572Y-138779143D01*
X77494077Y-138810156D01*
X77476835Y-138839604D01*
X77457742Y-138870141D01*
X77436695Y-138904418D01*
X77432381Y-138911720D01*
X77360004Y-139035221D01*
X78406024Y-139028068D01*
X79452044Y-139020914D01*
X79465699Y-138791142D01*
X79473135Y-138680873D01*
X79480883Y-138617122D01*
X79491397Y-138591827D01*
X79507128Y-138596922D01*
X79520323Y-138611498D01*
X79577803Y-138664591D01*
X79671487Y-138732837D01*
X79788175Y-138808080D01*
X79914669Y-138882167D01*
X80037769Y-138946943D01*
X80132287Y-138989561D01*
X80353726Y-139059595D01*
X80607793Y-139109204D01*
X80875734Y-139136494D01*
X81138789Y-139139569D01*
X81378205Y-139116532D01*
X81382147Y-139115873D01*
X81709747Y-139033669D01*
X82016413Y-138902700D01*
X82299186Y-138725780D01*
X82555108Y-138505726D01*
X82781222Y-138245351D01*
X82974570Y-137947472D01*
X83132194Y-137614904D01*
X83218016Y-137368548D01*
X83274611Y-137162445D01*
X83316582Y-136962867D01*
X83345211Y-136757690D01*
X83361782Y-136534791D01*
X83367577Y-136282045D01*
X83365011Y-136075662D01*
X81349675Y-136075662D01*
X81340138Y-136421732D01*
X81310054Y-136719467D01*
X81258497Y-136971510D01*
X81184542Y-137180502D01*
X81087262Y-137349086D01*
X80965734Y-137479906D01*
X80825454Y-137572385D01*
X80752460Y-137606909D01*
X80689153Y-137627607D01*
X80618573Y-137637077D01*
X80523758Y-137637915D01*
X80421613Y-137634228D01*
X80220739Y-137616510D01*
X80061866Y-137581813D01*
X80011936Y-137564433D01*
X79897925Y-137513102D01*
X79777677Y-137448643D01*
X79725162Y-137416376D01*
X79588603Y-137326805D01*
X79588603Y-134487706D01*
X79738818Y-134397665D01*
X79948308Y-134295923D01*
X80162342Y-134235751D01*
X80373091Y-134216796D01*
X80572727Y-134238701D01*
X80753423Y-134301113D01*
X80907351Y-134403676D01*
X80957019Y-134452906D01*
X81076738Y-134614211D01*
X81173636Y-134809471D01*
X81248523Y-135042031D01*
X81302207Y-135315239D01*
X81335500Y-135632441D01*
X81349211Y-135996984D01*
X81349675Y-136075662D01*
X83365011Y-136075662D01*
X83363942Y-135989756D01*
X83340918Y-135540158D01*
X83294622Y-135134628D01*
X83223836Y-134767257D01*
X83127339Y-134432137D01*
X83003913Y-134123363D01*
X82959869Y-134031822D01*
X82782460Y-133733296D01*
X82568070Y-133468007D01*
X82321741Y-133240237D01*
X82048513Y-133054268D01*
X81753426Y-132914382D01*
X81576541Y-132856678D01*
X81402822Y-132822422D01*
X81193795Y-132802041D01*
X80966986Y-132795525D01*
X80739916Y-132802866D01*
X80530108Y-132824055D01*
X80361648Y-132857295D01*
X80161143Y-132922482D01*
X79966805Y-133006307D01*
X79796776Y-133100280D01*
X79706279Y-133164058D01*
X79643856Y-133211484D01*
X79600147Y-133240361D01*
X79590204Y-133244462D01*
X79587121Y-133218041D01*
X79584247Y-133142339D01*
X79581645Y-133022698D01*
X79579379Y-132864462D01*
X79577512Y-132672973D01*
X79576109Y-132453574D01*
X79575233Y-132211607D01*
X79574947Y-131965147D01*
X79575106Y-131649476D01*
X79575892Y-131383337D01*
X79577762Y-131161641D01*
X79581175Y-130979296D01*
X79586591Y-130831212D01*
X79594469Y-130712299D01*
X79605267Y-130617465D01*
X79619445Y-130541620D01*
X79637461Y-130479674D01*
X79659775Y-130426536D01*
X79686846Y-130377115D01*
X79719133Y-130326321D01*
X79723287Y-130320031D01*
X79764929Y-130254245D01*
X79790071Y-130209008D01*
X79793441Y-130199466D01*
X79767097Y-130196455D01*
X79691931Y-130194006D01*
X79573743Y-130192158D01*
X79418331Y-130190951D01*
X79231494Y-130190424D01*
X79019033Y-130190618D01*
G36*
X86329049Y-132791368D02*
X86193728Y-132801611D01*
X85806558Y-132853122D01*
X85463679Y-132935283D01*
X85163420Y-133049222D01*
X84904112Y-133196072D01*
X84684084Y-133376962D01*
X84501666Y-133593022D01*
X84355189Y-133845384D01*
X84248229Y-134118441D01*
X84221079Y-134205541D01*
X84197436Y-134287107D01*
X84177023Y-134367529D01*
X84159561Y-134451199D01*
X84144770Y-134542508D01*
X84132373Y-134645847D01*
X84122089Y-134765609D01*
X84113642Y-134906183D01*
X84106752Y-135071962D01*
X84101139Y-135267336D01*
X84096527Y-135496698D01*
X84092635Y-135764437D01*
X84089185Y-136074947D01*
X84085898Y-136432618D01*
X84083549Y-136713064D01*
X84067742Y-138638548D01*
X83965323Y-138823843D01*
X83916825Y-138913111D01*
X83880734Y-138982448D01*
X83863517Y-139019354D01*
X83862904Y-139021854D01*
X83889220Y-139024715D01*
X83964189Y-139027351D01*
X84081839Y-139029689D01*
X84236200Y-139031653D01*
X84421300Y-139033170D01*
X84631168Y-139034165D01*
X84859833Y-139034565D01*
X84887097Y-139034570D01*
X85911291Y-139034570D01*
X85911291Y-138802419D01*
X85913037Y-138697507D01*
X85917698Y-138617271D01*
X85924404Y-138574251D01*
X85927368Y-138570269D01*
X85954477Y-138586950D01*
X86010269Y-138630731D01*
X86082785Y-138692216D01*
X86084411Y-138693638D01*
X86216743Y-138792160D01*
X86383867Y-138891089D01*
X86566900Y-138980706D01*
X86746957Y-139051293D01*
X86826237Y-139075414D01*
X86984009Y-139106051D01*
X87177603Y-139125602D01*
X87389296Y-139133787D01*
X87601368Y-139130327D01*
X87796096Y-139114945D01*
X87932366Y-139092811D01*
X88266546Y-138994676D01*
X88567397Y-138854819D01*
X88832961Y-138674974D01*
X89061279Y-138456876D01*
X89250394Y-138202261D01*
X89398347Y-137912864D01*
X89462175Y-137737258D01*
X89502177Y-137566576D01*
X89528687Y-137361678D01*
X89540953Y-137141464D01*
X89540550Y-137109420D01*
X87693388Y-137109420D01*
X87678070Y-137273053D01*
X87627065Y-137409042D01*
X87532796Y-137535208D01*
X87496589Y-137572203D01*
X87367880Y-137672221D01*
X87219115Y-137736294D01*
X87040887Y-137767309D01*
X86853202Y-137769593D01*
X86675186Y-137754514D01*
X86538888Y-137725021D01*
X86479694Y-137702869D01*
X86373005Y-137642496D01*
X86259963Y-137557589D01*
X86156825Y-137462295D01*
X86079849Y-137370760D01*
X86059409Y-137337181D01*
X86043519Y-137290157D01*
X86032222Y-137215333D01*
X86024991Y-137105560D01*
X86021300Y-136953692D01*
X86020538Y-136809155D01*
X86021054Y-136640644D01*
X86023140Y-136518799D01*
X86027598Y-136435666D01*
X86035235Y-136383292D01*
X86046854Y-136353726D01*
X86063260Y-136339013D01*
X86068334Y-136336670D01*
X86112430Y-136329453D01*
X86199400Y-136323550D01*
X86317500Y-136319493D01*
X86454986Y-136317815D01*
X86484839Y-136317813D01*
X86668614Y-136320746D01*
X86810593Y-136329469D01*
X86923409Y-136345177D01*
X87016598Y-136368118D01*
X87247754Y-136455535D01*
X87429027Y-136563010D01*
X87561986Y-136692262D01*
X87648199Y-136845010D01*
X87689238Y-137022972D01*
X87693388Y-137109420D01*
X89540550Y-137109420D01*
X89538224Y-136924834D01*
X89519748Y-136730689D01*
X89505336Y-136652252D01*
X89413310Y-136361017D01*
X89273377Y-136093054D01*
X89088177Y-135850932D01*
X88860352Y-135637221D01*
X88592543Y-135454492D01*
X88287393Y-135305314D01*
X88027957Y-135214727D01*
X87854566Y-135167136D01*
X87688718Y-135130155D01*
X87519671Y-135102585D01*
X87336683Y-135083224D01*
X87129011Y-135070871D01*
X86885913Y-135064326D01*
X86666128Y-135062483D01*
X86014406Y-135060699D01*
X86026891Y-134864798D01*
X86062343Y-134652243D01*
X86137759Y-134469543D01*
X86249927Y-134321262D01*
X86395636Y-134211960D01*
X86523936Y-134158624D01*
X86707765Y-134125010D01*
X86926606Y-134120183D01*
X87170200Y-134142363D01*
X87428290Y-134189772D01*
X87690615Y-134260629D01*
X87946918Y-134353155D01*
X88133176Y-134437778D01*
X88222789Y-134481231D01*
X88291142Y-134511580D01*
X88325903Y-134523423D01*
X88327789Y-134523043D01*
X88339785Y-134496518D01*
X88369738Y-134426210D01*
X88414830Y-134318855D01*
X88472243Y-134181190D01*
X88539158Y-134019949D01*
X88607176Y-133855395D01*
X88879103Y-133196328D01*
X88685681Y-133164559D01*
X88601846Y-133148619D01*
X88475817Y-133121847D01*
X88318392Y-133086673D01*
X88140367Y-133045528D01*
X87952537Y-133000842D01*
X87877742Y-132982683D01*
X87554162Y-132907631D01*
X87270868Y-132851362D01*
X87017285Y-132812738D01*
X86782838Y-132790623D01*
X86556951Y-132783878D01*
X86329049Y-132791368D01*
X86329049Y-132791368D01*
G37*
X86329049Y-132791368D02*
X86193728Y-132801611D01*
X85806558Y-132853122D01*
X85463679Y-132935283D01*
X85163420Y-133049222D01*
X84904112Y-133196072D01*
X84684084Y-133376962D01*
X84501666Y-133593022D01*
X84355189Y-133845384D01*
X84248229Y-134118441D01*
X84221079Y-134205541D01*
X84197436Y-134287107D01*
X84177023Y-134367529D01*
X84159561Y-134451199D01*
X84144770Y-134542508D01*
X84132373Y-134645847D01*
X84122089Y-134765609D01*
X84113642Y-134906183D01*
X84106752Y-135071962D01*
X84101139Y-135267336D01*
X84096527Y-135496698D01*
X84092635Y-135764437D01*
X84089185Y-136074947D01*
X84085898Y-136432618D01*
X84083549Y-136713064D01*
X84067742Y-138638548D01*
X83965323Y-138823843D01*
X83916825Y-138913111D01*
X83880734Y-138982448D01*
X83863517Y-139019354D01*
X83862904Y-139021854D01*
X83889220Y-139024715D01*
X83964189Y-139027351D01*
X84081839Y-139029689D01*
X84236200Y-139031653D01*
X84421300Y-139033170D01*
X84631168Y-139034165D01*
X84859833Y-139034565D01*
X84887097Y-139034570D01*
X85911291Y-139034570D01*
X85911291Y-138802419D01*
X85913037Y-138697507D01*
X85917698Y-138617271D01*
X85924404Y-138574251D01*
X85927368Y-138570269D01*
X85954477Y-138586950D01*
X86010269Y-138630731D01*
X86082785Y-138692216D01*
X86084411Y-138693638D01*
X86216743Y-138792160D01*
X86383867Y-138891089D01*
X86566900Y-138980706D01*
X86746957Y-139051293D01*
X86826237Y-139075414D01*
X86984009Y-139106051D01*
X87177603Y-139125602D01*
X87389296Y-139133787D01*
X87601368Y-139130327D01*
X87796096Y-139114945D01*
X87932366Y-139092811D01*
X88266546Y-138994676D01*
X88567397Y-138854819D01*
X88832961Y-138674974D01*
X89061279Y-138456876D01*
X89250394Y-138202261D01*
X89398347Y-137912864D01*
X89462175Y-137737258D01*
X89502177Y-137566576D01*
X89528687Y-137361678D01*
X89540953Y-137141464D01*
X89540550Y-137109420D01*
X87693388Y-137109420D01*
X87678070Y-137273053D01*
X87627065Y-137409042D01*
X87532796Y-137535208D01*
X87496589Y-137572203D01*
X87367880Y-137672221D01*
X87219115Y-137736294D01*
X87040887Y-137767309D01*
X86853202Y-137769593D01*
X86675186Y-137754514D01*
X86538888Y-137725021D01*
X86479694Y-137702869D01*
X86373005Y-137642496D01*
X86259963Y-137557589D01*
X86156825Y-137462295D01*
X86079849Y-137370760D01*
X86059409Y-137337181D01*
X86043519Y-137290157D01*
X86032222Y-137215333D01*
X86024991Y-137105560D01*
X86021300Y-136953692D01*
X86020538Y-136809155D01*
X86021054Y-136640644D01*
X86023140Y-136518799D01*
X86027598Y-136435666D01*
X86035235Y-136383292D01*
X86046854Y-136353726D01*
X86063260Y-136339013D01*
X86068334Y-136336670D01*
X86112430Y-136329453D01*
X86199400Y-136323550D01*
X86317500Y-136319493D01*
X86454986Y-136317815D01*
X86484839Y-136317813D01*
X86668614Y-136320746D01*
X86810593Y-136329469D01*
X86923409Y-136345177D01*
X87016598Y-136368118D01*
X87247754Y-136455535D01*
X87429027Y-136563010D01*
X87561986Y-136692262D01*
X87648199Y-136845010D01*
X87689238Y-137022972D01*
X87693388Y-137109420D01*
X89540550Y-137109420D01*
X89538224Y-136924834D01*
X89519748Y-136730689D01*
X89505336Y-136652252D01*
X89413310Y-136361017D01*
X89273377Y-136093054D01*
X89088177Y-135850932D01*
X88860352Y-135637221D01*
X88592543Y-135454492D01*
X88287393Y-135305314D01*
X88027957Y-135214727D01*
X87854566Y-135167136D01*
X87688718Y-135130155D01*
X87519671Y-135102585D01*
X87336683Y-135083224D01*
X87129011Y-135070871D01*
X86885913Y-135064326D01*
X86666128Y-135062483D01*
X86014406Y-135060699D01*
X86026891Y-134864798D01*
X86062343Y-134652243D01*
X86137759Y-134469543D01*
X86249927Y-134321262D01*
X86395636Y-134211960D01*
X86523936Y-134158624D01*
X86707765Y-134125010D01*
X86926606Y-134120183D01*
X87170200Y-134142363D01*
X87428290Y-134189772D01*
X87690615Y-134260629D01*
X87946918Y-134353155D01*
X88133176Y-134437778D01*
X88222789Y-134481231D01*
X88291142Y-134511580D01*
X88325903Y-134523423D01*
X88327789Y-134523043D01*
X88339785Y-134496518D01*
X88369738Y-134426210D01*
X88414830Y-134318855D01*
X88472243Y-134181190D01*
X88539158Y-134019949D01*
X88607176Y-133855395D01*
X88879103Y-133196328D01*
X88685681Y-133164559D01*
X88601846Y-133148619D01*
X88475817Y-133121847D01*
X88318392Y-133086673D01*
X88140367Y-133045528D01*
X87952537Y-133000842D01*
X87877742Y-132982683D01*
X87554162Y-132907631D01*
X87270868Y-132851362D01*
X87017285Y-132812738D01*
X86782838Y-132790623D01*
X86556951Y-132783878D01*
X86329049Y-132791368D01*
G36*
X91754807Y-130595777D02*
X91460294Y-130628019D01*
X91174961Y-130685729D01*
X90887200Y-130771917D01*
X90585404Y-130889593D01*
X90257966Y-131041767D01*
X90198999Y-131071243D01*
X90063676Y-131137910D01*
X89936049Y-131197939D01*
X89828713Y-131245599D01*
X89754264Y-131275155D01*
X89742827Y-131278876D01*
X89633226Y-131311714D01*
X90123845Y-132025453D01*
X90243794Y-132199895D01*
X90353461Y-132359270D01*
X90449117Y-132498168D01*
X90527031Y-132611178D01*
X90583475Y-132692890D01*
X90614719Y-132737891D01*
X90619795Y-132745018D01*
X90640412Y-132730117D01*
X90691161Y-132685320D01*
X90762966Y-132618765D01*
X90802594Y-132581147D01*
X91027118Y-132402568D01*
X91279274Y-132266868D01*
X91496560Y-132192537D01*
X91626993Y-132169193D01*
X91790307Y-132154967D01*
X91967293Y-132150124D01*
X92138744Y-132154926D01*
X92285452Y-132169638D01*
X92343993Y-132180905D01*
X92607853Y-132271685D01*
X92845622Y-132410296D01*
X93057124Y-132596485D01*
X93242184Y-132829999D01*
X93400625Y-133110584D01*
X93532271Y-133437987D01*
X93636946Y-133811955D01*
X93699155Y-134132097D01*
X93715386Y-134273426D01*
X93726444Y-134456004D01*
X93732437Y-134666709D01*
X93733473Y-134892422D01*
X93729657Y-135120022D01*
X93721097Y-135336389D01*
X93707899Y-135528402D01*
X93690170Y-135682943D01*
X93686333Y-135706786D01*
X93601749Y-136090860D01*
X93486505Y-136430783D01*
X93339897Y-136728078D01*
X93161226Y-136984268D01*
X93034400Y-137122775D01*
X92806475Y-137310828D01*
X92556512Y-137450220D01*
X92288730Y-137540195D01*
X92007344Y-137579994D01*
X91716571Y-137568857D01*
X91420627Y-137506026D01*
X91245660Y-137444547D01*
X91003534Y-137321436D01*
X90753980Y-137144837D01*
X90614191Y-137025412D01*
X90535699Y-136956291D01*
X90474030Y-136905579D01*
X90438928Y-136881144D01*
X90434570Y-136880398D01*
X90418903Y-136905367D01*
X90378308Y-136971348D01*
X90316243Y-137072685D01*
X90236167Y-137203721D01*
X90141538Y-137358800D01*
X90035814Y-137532265D01*
X89976967Y-137628896D01*
X89527474Y-138367201D01*
X90088683Y-138644549D01*
X90291596Y-138744172D01*
X90455973Y-138822729D01*
X90591861Y-138884122D01*
X90709309Y-138932253D01*
X90818364Y-138971023D01*
X90929074Y-139004333D01*
X91051487Y-139036086D01*
X91168818Y-139063969D01*
X91273105Y-139085546D01*
X91382168Y-139101851D01*
X91506927Y-139113791D01*
X91658297Y-139122270D01*
X91847199Y-139128192D01*
X91974517Y-139130749D01*
X92156177Y-139132494D01*
X92330367Y-139131614D01*
X92485557Y-139128360D01*
X92610223Y-139122984D01*
X92692834Y-139115735D01*
X92697730Y-139115012D01*
X93126709Y-139022205D01*
X93529551Y-138881449D01*
X93906112Y-138692839D01*
X94256252Y-138456466D01*
X94579828Y-138172424D01*
X94876700Y-137840805D01*
X95091701Y-137546075D01*
X95320589Y-137160298D01*
X95505611Y-136752895D01*
X95647662Y-136320600D01*
X95747636Y-135860146D01*
X95806428Y-135368267D01*
X95824951Y-134868799D01*
X95809717Y-134385634D01*
X95761844Y-133939842D01*
X95679811Y-133523905D01*
X95562097Y-133130304D01*
X95407181Y-132751518D01*
X95388683Y-132712275D01*
X95184894Y-132345440D01*
X94934598Y-131996360D01*
X94644885Y-131672260D01*
X94322846Y-131380366D01*
X93975574Y-131127904D01*
X93651987Y-130942714D01*
X93325096Y-130797670D01*
X92997511Y-130692603D01*
X92656552Y-130624653D01*
X92289535Y-130590960D01*
X92070108Y-130585992D01*
X91754807Y-130595777D01*
X91754807Y-130595777D01*
G37*
X91754807Y-130595777D02*
X91460294Y-130628019D01*
X91174961Y-130685729D01*
X90887200Y-130771917D01*
X90585404Y-130889593D01*
X90257966Y-131041767D01*
X90198999Y-131071243D01*
X90063676Y-131137910D01*
X89936049Y-131197939D01*
X89828713Y-131245599D01*
X89754264Y-131275155D01*
X89742827Y-131278876D01*
X89633226Y-131311714D01*
X90123845Y-132025453D01*
X90243794Y-132199895D01*
X90353461Y-132359270D01*
X90449117Y-132498168D01*
X90527031Y-132611178D01*
X90583475Y-132692890D01*
X90614719Y-132737891D01*
X90619795Y-132745018D01*
X90640412Y-132730117D01*
X90691161Y-132685320D01*
X90762966Y-132618765D01*
X90802594Y-132581147D01*
X91027118Y-132402568D01*
X91279274Y-132266868D01*
X91496560Y-132192537D01*
X91626993Y-132169193D01*
X91790307Y-132154967D01*
X91967293Y-132150124D01*
X92138744Y-132154926D01*
X92285452Y-132169638D01*
X92343993Y-132180905D01*
X92607853Y-132271685D01*
X92845622Y-132410296D01*
X93057124Y-132596485D01*
X93242184Y-132829999D01*
X93400625Y-133110584D01*
X93532271Y-133437987D01*
X93636946Y-133811955D01*
X93699155Y-134132097D01*
X93715386Y-134273426D01*
X93726444Y-134456004D01*
X93732437Y-134666709D01*
X93733473Y-134892422D01*
X93729657Y-135120022D01*
X93721097Y-135336389D01*
X93707899Y-135528402D01*
X93690170Y-135682943D01*
X93686333Y-135706786D01*
X93601749Y-136090860D01*
X93486505Y-136430783D01*
X93339897Y-136728078D01*
X93161226Y-136984268D01*
X93034400Y-137122775D01*
X92806475Y-137310828D01*
X92556512Y-137450220D01*
X92288730Y-137540195D01*
X92007344Y-137579994D01*
X91716571Y-137568857D01*
X91420627Y-137506026D01*
X91245660Y-137444547D01*
X91003534Y-137321436D01*
X90753980Y-137144837D01*
X90614191Y-137025412D01*
X90535699Y-136956291D01*
X90474030Y-136905579D01*
X90438928Y-136881144D01*
X90434570Y-136880398D01*
X90418903Y-136905367D01*
X90378308Y-136971348D01*
X90316243Y-137072685D01*
X90236167Y-137203721D01*
X90141538Y-137358800D01*
X90035814Y-137532265D01*
X89976967Y-137628896D01*
X89527474Y-138367201D01*
X90088683Y-138644549D01*
X90291596Y-138744172D01*
X90455973Y-138822729D01*
X90591861Y-138884122D01*
X90709309Y-138932253D01*
X90818364Y-138971023D01*
X90929074Y-139004333D01*
X91051487Y-139036086D01*
X91168818Y-139063969D01*
X91273105Y-139085546D01*
X91382168Y-139101851D01*
X91506927Y-139113791D01*
X91658297Y-139122270D01*
X91847199Y-139128192D01*
X91974517Y-139130749D01*
X92156177Y-139132494D01*
X92330367Y-139131614D01*
X92485557Y-139128360D01*
X92610223Y-139122984D01*
X92692834Y-139115735D01*
X92697730Y-139115012D01*
X93126709Y-139022205D01*
X93529551Y-138881449D01*
X93906112Y-138692839D01*
X94256252Y-138456466D01*
X94579828Y-138172424D01*
X94876700Y-137840805D01*
X95091701Y-137546075D01*
X95320589Y-137160298D01*
X95505611Y-136752895D01*
X95647662Y-136320600D01*
X95747636Y-135860146D01*
X95806428Y-135368267D01*
X95824951Y-134868799D01*
X95809717Y-134385634D01*
X95761844Y-133939842D01*
X95679811Y-133523905D01*
X95562097Y-133130304D01*
X95407181Y-132751518D01*
X95388683Y-132712275D01*
X95184894Y-132345440D01*
X94934598Y-131996360D01*
X94644885Y-131672260D01*
X94322846Y-131380366D01*
X93975574Y-131127904D01*
X93651987Y-130942714D01*
X93325096Y-130797670D01*
X92997511Y-130692603D01*
X92656552Y-130624653D01*
X92289535Y-130590960D01*
X92070108Y-130585992D01*
X91754807Y-130595777D01*
G36*
X104477446Y-129229541D02*
X103951244Y-129229613D01*
X103706303Y-129229623D01*
X99785699Y-129229623D01*
X99785699Y-129460734D01*
X99761032Y-129741976D01*
X99686584Y-130001359D01*
X99561686Y-130240424D01*
X99385670Y-130460714D01*
X99326118Y-130520210D01*
X99111895Y-130688971D01*
X98875690Y-130812052D01*
X98624517Y-130889510D01*
X98365393Y-130921399D01*
X98105333Y-130907776D01*
X97851353Y-130848697D01*
X97610469Y-130744217D01*
X97389696Y-130594393D01*
X97290543Y-130504001D01*
X97105773Y-130282376D01*
X96970284Y-130038661D01*
X96885256Y-129775643D01*
X96851872Y-129496106D01*
X96851428Y-129468606D01*
X96849678Y-129229632D01*
X96744645Y-129229628D01*
X96651470Y-129242273D01*
X96566356Y-129273040D01*
X96560731Y-129276219D01*
X96541508Y-129286194D01*
X96523855Y-129293962D01*
X96507708Y-129301787D01*
X96493005Y-129311930D01*
X96479681Y-129326655D01*
X96467672Y-129348225D01*
X96456915Y-129378901D01*
X96447346Y-129420947D01*
X96438901Y-129476626D01*
X96431516Y-129548199D01*
X96425127Y-129637930D01*
X96419671Y-129748082D01*
X96415084Y-129880916D01*
X96411302Y-130038696D01*
X96408260Y-130223684D01*
X96405897Y-130438144D01*
X96404147Y-130684337D01*
X96402947Y-130964527D01*
X96402232Y-131280975D01*
X96401940Y-131635946D01*
X96402007Y-132031700D01*
X96402368Y-132470502D01*
X96402960Y-132954614D01*
X96403719Y-133486298D01*
X96404581Y-134067817D01*
X96405482Y-134701433D01*
X96405587Y-134778629D01*
X96406395Y-135416287D01*
X96407081Y-136001582D01*
X96407717Y-136536778D01*
X96408376Y-137024136D01*
X96409131Y-137465917D01*
X96410053Y-137864382D01*
X96411216Y-138221795D01*
X96412693Y-138540415D01*
X96414555Y-138822506D01*
X96416876Y-139070328D01*
X96419729Y-139286143D01*
X96423185Y-139472213D01*
X96427318Y-139630800D01*
X96432200Y-139764164D01*
X96437904Y-139874569D01*
X96444502Y-139964275D01*
X96452068Y-140035544D01*
X96460673Y-140090638D01*
X96470390Y-140131818D01*
X96481293Y-140161346D01*
X96493453Y-140181484D01*
X96506943Y-140194493D01*
X96521837Y-140202636D01*
X96538206Y-140208173D01*
X96556123Y-140213366D01*
X96575661Y-140220477D01*
X96580434Y-140222642D01*
X96595434Y-140227506D01*
X96620541Y-140231976D01*
X96657946Y-140236066D01*
X96709842Y-140239793D01*
X96778420Y-140243173D01*
X96865873Y-140246221D01*
X96974394Y-140248954D01*
X97106174Y-140251387D01*
X97263406Y-140253537D01*
X97448281Y-140255419D01*
X97662993Y-140257049D01*
X97909734Y-140258443D01*
X98190694Y-140259617D01*
X98508068Y-140260587D01*
X98864047Y-140261369D01*
X99260822Y-140261979D01*
X99700588Y-140262432D01*
X100185535Y-140262745D01*
X100717856Y-140262934D01*
X101299743Y-140263013D01*
X101933389Y-140263000D01*
X102138644Y-140262980D01*
X102786347Y-140262876D01*
X103381644Y-140262706D01*
X103926755Y-140262453D01*
X104423897Y-140262098D01*
X104875290Y-140261626D01*
X105283151Y-140261018D01*
X105649700Y-140260258D01*
X105977154Y-140259327D01*
X106267732Y-140258209D01*
X106523652Y-140256886D01*
X106747133Y-140255341D01*
X106940394Y-140253557D01*
X107105652Y-140251516D01*
X107245127Y-140249201D01*
X107361037Y-140246594D01*
X107455600Y-140243678D01*
X107531034Y-140240436D01*
X107589558Y-140236851D01*
X107633391Y-140232905D01*
X107664752Y-140228581D01*
X107685857Y-140223862D01*
X107697363Y-140219540D01*
X107717812Y-140210916D01*
X107736587Y-140204557D01*
X107753760Y-140198203D01*
X107769402Y-140189597D01*
X107783584Y-140176480D01*
X107796377Y-140156594D01*
X107807852Y-140127679D01*
X107818080Y-140087479D01*
X107827133Y-140033733D01*
X107835080Y-139964185D01*
X107841994Y-139876574D01*
X107847945Y-139768644D01*
X107853005Y-139638135D01*
X107857245Y-139482789D01*
X107860735Y-139300348D01*
X107863547Y-139088553D01*
X107864283Y-139007258D01*
X107135361Y-139007258D01*
X104558987Y-139007258D01*
X104608561Y-138932150D01*
X104657878Y-138854968D01*
X104699640Y-138781469D01*
X104734441Y-138706512D01*
X104762877Y-138624953D01*
X104785540Y-138531648D01*
X104803025Y-138421453D01*
X104815926Y-138289225D01*
X104824837Y-138129820D01*
X104830352Y-137938095D01*
X104833064Y-137708907D01*
X104833569Y-137437112D01*
X104832459Y-137117566D01*
X104831830Y-136998932D01*
X104824732Y-135727123D01*
X104019033Y-136824010D01*
X103790779Y-137135183D01*
X103593025Y-137406143D01*
X103423635Y-137640478D01*
X103280473Y-137841780D01*
X103161405Y-138013637D01*
X103064295Y-138159640D01*
X102987007Y-138283378D01*
X102927407Y-138388441D01*
X102883359Y-138478420D01*
X102852728Y-138556903D01*
X102833378Y-138627480D01*
X102823175Y-138693742D01*
X102819983Y-138759277D01*
X102821667Y-138827677D01*
X102822097Y-138836274D01*
X102830968Y-139007372D01*
X101419236Y-139007315D01*
X100007505Y-139007258D01*
X100217516Y-138795500D01*
X100274504Y-138737582D01*
X100328566Y-138681225D01*
X100382076Y-138623322D01*
X100437404Y-138560764D01*
X100496925Y-138490443D01*
X100563011Y-138409251D01*
X100638034Y-138314081D01*
X100724367Y-138201823D01*
X100824383Y-138069370D01*
X100940454Y-137913614D01*
X101074952Y-137731446D01*
X101230251Y-137519760D01*
X101408722Y-137275446D01*
X101612740Y-136995397D01*
X101844675Y-136676504D01*
X102034782Y-136414920D01*
X102273372Y-136086292D01*
X102481508Y-135798957D01*
X102661075Y-135550187D01*
X102813957Y-135337254D01*
X102942041Y-135157430D01*
X103047212Y-135007986D01*
X103131355Y-134886196D01*
X103196357Y-134789331D01*
X103244103Y-134714662D01*
X103276477Y-134659463D01*
X103295366Y-134621004D01*
X103302655Y-134596559D01*
X103300464Y-134583706D01*
X103273913Y-134549504D01*
X103216508Y-134477108D01*
X103131713Y-134370820D01*
X103022992Y-134234945D01*
X102893808Y-134073784D01*
X102747626Y-133891643D01*
X102587909Y-133692822D01*
X102418121Y-133481627D01*
X102241726Y-133262359D01*
X102062187Y-133039323D01*
X101963435Y-132916720D01*
X99511548Y-132916720D01*
X99307742Y-133285430D01*
X99307742Y-138638548D01*
X99511548Y-139007258D01*
X98306111Y-139007258D01*
X98018341Y-139007174D01*
X97780647Y-139006797D01*
X97588482Y-139005935D01*
X97437298Y-139004400D01*
X97322548Y-139002000D01*
X97239685Y-138998546D01*
X97184162Y-138993849D01*
X97151430Y-138987717D01*
X97136943Y-138979961D01*
X97136153Y-138970391D01*
X97144513Y-138958817D01*
X97144599Y-138958721D01*
X97179036Y-138908907D01*
X97224637Y-138827910D01*
X97264908Y-138747055D01*
X97341291Y-138583925D01*
X97349081Y-135750322D01*
X97356871Y-132916720D01*
X99511548Y-132916720D01*
X101963435Y-132916720D01*
X101882969Y-132816821D01*
X101707536Y-132599157D01*
X101539350Y-132390633D01*
X101381877Y-132195554D01*
X101238579Y-132018221D01*
X101112921Y-131862939D01*
X101008366Y-131734010D01*
X100928379Y-131635738D01*
X100881398Y-131578441D01*
X100698963Y-131364180D01*
X100523452Y-131170830D01*
X100361016Y-131004720D01*
X100217805Y-130872180D01*
X100116171Y-130790921D01*
X99995998Y-130704462D01*
X102759840Y-130704462D01*
X102759064Y-130866646D01*
X102766788Y-130985883D01*
X102795828Y-131096426D01*
X102840782Y-131201216D01*
X102870004Y-131260416D01*
X102901423Y-131319074D01*
X102937909Y-131381086D01*
X102982331Y-131450345D01*
X103037561Y-131530746D01*
X103106469Y-131626181D01*
X103191923Y-131740547D01*
X103296796Y-131877735D01*
X103423955Y-132041642D01*
X103576273Y-132236160D01*
X103756618Y-132465185D01*
X103967862Y-132732609D01*
X103991721Y-132762783D01*
X104824732Y-133816195D01*
X104832796Y-132649522D01*
X104834420Y-132300069D01*
X104834074Y-132004230D01*
X104831742Y-131761030D01*
X104827407Y-131569493D01*
X104821051Y-131428644D01*
X104812659Y-131337508D01*
X104809838Y-131320220D01*
X104765584Y-131138117D01*
X104707602Y-130973950D01*
X104641437Y-130841954D01*
X104601687Y-130785972D01*
X104533102Y-130704462D01*
X105834453Y-130704462D01*
X106144885Y-130704728D01*
X106404477Y-130705591D01*
X106617014Y-130707154D01*
X106786276Y-130709517D01*
X106916048Y-130712780D01*
X107010111Y-130717045D01*
X107072248Y-130722413D01*
X107106241Y-130728983D01*
X107115874Y-130736858D01*
X107115208Y-130738602D01*
X107087620Y-130780243D01*
X107041564Y-130846248D01*
X107017735Y-130879631D01*
X106993099Y-130912944D01*
X106970955Y-130942734D01*
X106951164Y-130971933D01*
X106933586Y-131003474D01*
X106918081Y-131040286D01*
X106904511Y-131085303D01*
X106892736Y-131141455D01*
X106882616Y-131211675D01*
X106874013Y-131298894D01*
X106866786Y-131406043D01*
X106860796Y-131536055D01*
X106855904Y-131691861D01*
X106851971Y-131876393D01*
X106848857Y-132092581D01*
X106846422Y-132343359D01*
X106844527Y-132631658D01*
X106843033Y-132960409D01*
X106841801Y-133332543D01*
X106840690Y-133750994D01*
X106839562Y-134218691D01*
X106838508Y-134648354D01*
X106837512Y-135127353D01*
X106836994Y-135584362D01*
X106836941Y-136016464D01*
X106837338Y-136420738D01*
X106838172Y-136794265D01*
X106839429Y-137134127D01*
X106841094Y-137437404D01*
X106843156Y-137701177D01*
X106845599Y-137922527D01*
X106848410Y-138098535D01*
X106851576Y-138226283D01*
X106855082Y-138302849D01*
X106855745Y-138310941D01*
X106879905Y-138496568D01*
X106917624Y-138645647D01*
X106975064Y-138775750D01*
X107058389Y-138904452D01*
X107068811Y-138918494D01*
X107135361Y-139007258D01*
X107864283Y-139007258D01*
X107865752Y-138845145D01*
X107867421Y-138567867D01*
X107868625Y-138254459D01*
X107869435Y-137902664D01*
X107869922Y-137510223D01*
X107870156Y-137074877D01*
X107870211Y-136594368D01*
X107870156Y-136066438D01*
X107870062Y-135488828D01*
X107870002Y-134859279D01*
X107870000Y-134734301D01*
X107869965Y-134098122D01*
X107869847Y-133514325D01*
X107869628Y-132980668D01*
X107869292Y-132494909D01*
X107868822Y-132054805D01*
X107868198Y-131658116D01*
X107867406Y-131302599D01*
X107866426Y-130986012D01*
X107865242Y-130706113D01*
X107863836Y-130460661D01*
X107862190Y-130247413D01*
X107860288Y-130064128D01*
X107858113Y-129908564D01*
X107855645Y-129778478D01*
X107852869Y-129671629D01*
X107849767Y-129585775D01*
X107846321Y-129518674D01*
X107842515Y-129468084D01*
X107838330Y-129431764D01*
X107833749Y-129407470D01*
X107828755Y-129392962D01*
X107828570Y-129392600D01*
X107818285Y-129370437D01*
X107809718Y-129350372D01*
X107800241Y-129332301D01*
X107787226Y-129316121D01*
X107768043Y-129301726D01*
X107740065Y-129289014D01*
X107700663Y-129277880D01*
X107647208Y-129268221D01*
X107577071Y-129259932D01*
X107487624Y-129252910D01*
X107376238Y-129247050D01*
X107240284Y-129242250D01*
X107077135Y-129238404D01*
X106884161Y-129235409D01*
X106658733Y-129233161D01*
X106398224Y-129231556D01*
X106100004Y-129230491D01*
X105761445Y-129229860D01*
X105379918Y-129229561D01*
X104952794Y-129229490D01*
X104477446Y-129229541D01*
X104477446Y-129229541D01*
G37*
X104477446Y-129229541D02*
X103951244Y-129229613D01*
X103706303Y-129229623D01*
X99785699Y-129229623D01*
X99785699Y-129460734D01*
X99761032Y-129741976D01*
X99686584Y-130001359D01*
X99561686Y-130240424D01*
X99385670Y-130460714D01*
X99326118Y-130520210D01*
X99111895Y-130688971D01*
X98875690Y-130812052D01*
X98624517Y-130889510D01*
X98365393Y-130921399D01*
X98105333Y-130907776D01*
X97851353Y-130848697D01*
X97610469Y-130744217D01*
X97389696Y-130594393D01*
X97290543Y-130504001D01*
X97105773Y-130282376D01*
X96970284Y-130038661D01*
X96885256Y-129775643D01*
X96851872Y-129496106D01*
X96851428Y-129468606D01*
X96849678Y-129229632D01*
X96744645Y-129229628D01*
X96651470Y-129242273D01*
X96566356Y-129273040D01*
X96560731Y-129276219D01*
X96541508Y-129286194D01*
X96523855Y-129293962D01*
X96507708Y-129301787D01*
X96493005Y-129311930D01*
X96479681Y-129326655D01*
X96467672Y-129348225D01*
X96456915Y-129378901D01*
X96447346Y-129420947D01*
X96438901Y-129476626D01*
X96431516Y-129548199D01*
X96425127Y-129637930D01*
X96419671Y-129748082D01*
X96415084Y-129880916D01*
X96411302Y-130038696D01*
X96408260Y-130223684D01*
X96405897Y-130438144D01*
X96404147Y-130684337D01*
X96402947Y-130964527D01*
X96402232Y-131280975D01*
X96401940Y-131635946D01*
X96402007Y-132031700D01*
X96402368Y-132470502D01*
X96402960Y-132954614D01*
X96403719Y-133486298D01*
X96404581Y-134067817D01*
X96405482Y-134701433D01*
X96405587Y-134778629D01*
X96406395Y-135416287D01*
X96407081Y-136001582D01*
X96407717Y-136536778D01*
X96408376Y-137024136D01*
X96409131Y-137465917D01*
X96410053Y-137864382D01*
X96411216Y-138221795D01*
X96412693Y-138540415D01*
X96414555Y-138822506D01*
X96416876Y-139070328D01*
X96419729Y-139286143D01*
X96423185Y-139472213D01*
X96427318Y-139630800D01*
X96432200Y-139764164D01*
X96437904Y-139874569D01*
X96444502Y-139964275D01*
X96452068Y-140035544D01*
X96460673Y-140090638D01*
X96470390Y-140131818D01*
X96481293Y-140161346D01*
X96493453Y-140181484D01*
X96506943Y-140194493D01*
X96521837Y-140202636D01*
X96538206Y-140208173D01*
X96556123Y-140213366D01*
X96575661Y-140220477D01*
X96580434Y-140222642D01*
X96595434Y-140227506D01*
X96620541Y-140231976D01*
X96657946Y-140236066D01*
X96709842Y-140239793D01*
X96778420Y-140243173D01*
X96865873Y-140246221D01*
X96974394Y-140248954D01*
X97106174Y-140251387D01*
X97263406Y-140253537D01*
X97448281Y-140255419D01*
X97662993Y-140257049D01*
X97909734Y-140258443D01*
X98190694Y-140259617D01*
X98508068Y-140260587D01*
X98864047Y-140261369D01*
X99260822Y-140261979D01*
X99700588Y-140262432D01*
X100185535Y-140262745D01*
X100717856Y-140262934D01*
X101299743Y-140263013D01*
X101933389Y-140263000D01*
X102138644Y-140262980D01*
X102786347Y-140262876D01*
X103381644Y-140262706D01*
X103926755Y-140262453D01*
X104423897Y-140262098D01*
X104875290Y-140261626D01*
X105283151Y-140261018D01*
X105649700Y-140260258D01*
X105977154Y-140259327D01*
X106267732Y-140258209D01*
X106523652Y-140256886D01*
X106747133Y-140255341D01*
X106940394Y-140253557D01*
X107105652Y-140251516D01*
X107245127Y-140249201D01*
X107361037Y-140246594D01*
X107455600Y-140243678D01*
X107531034Y-140240436D01*
X107589558Y-140236851D01*
X107633391Y-140232905D01*
X107664752Y-140228581D01*
X107685857Y-140223862D01*
X107697363Y-140219540D01*
X107717812Y-140210916D01*
X107736587Y-140204557D01*
X107753760Y-140198203D01*
X107769402Y-140189597D01*
X107783584Y-140176480D01*
X107796377Y-140156594D01*
X107807852Y-140127679D01*
X107818080Y-140087479D01*
X107827133Y-140033733D01*
X107835080Y-139964185D01*
X107841994Y-139876574D01*
X107847945Y-139768644D01*
X107853005Y-139638135D01*
X107857245Y-139482789D01*
X107860735Y-139300348D01*
X107863547Y-139088553D01*
X107864283Y-139007258D01*
X107135361Y-139007258D01*
X104558987Y-139007258D01*
X104608561Y-138932150D01*
X104657878Y-138854968D01*
X104699640Y-138781469D01*
X104734441Y-138706512D01*
X104762877Y-138624953D01*
X104785540Y-138531648D01*
X104803025Y-138421453D01*
X104815926Y-138289225D01*
X104824837Y-138129820D01*
X104830352Y-137938095D01*
X104833064Y-137708907D01*
X104833569Y-137437112D01*
X104832459Y-137117566D01*
X104831830Y-136998932D01*
X104824732Y-135727123D01*
X104019033Y-136824010D01*
X103790779Y-137135183D01*
X103593025Y-137406143D01*
X103423635Y-137640478D01*
X103280473Y-137841780D01*
X103161405Y-138013637D01*
X103064295Y-138159640D01*
X102987007Y-138283378D01*
X102927407Y-138388441D01*
X102883359Y-138478420D01*
X102852728Y-138556903D01*
X102833378Y-138627480D01*
X102823175Y-138693742D01*
X102819983Y-138759277D01*
X102821667Y-138827677D01*
X102822097Y-138836274D01*
X102830968Y-139007372D01*
X101419236Y-139007315D01*
X100007505Y-139007258D01*
X100217516Y-138795500D01*
X100274504Y-138737582D01*
X100328566Y-138681225D01*
X100382076Y-138623322D01*
X100437404Y-138560764D01*
X100496925Y-138490443D01*
X100563011Y-138409251D01*
X100638034Y-138314081D01*
X100724367Y-138201823D01*
X100824383Y-138069370D01*
X100940454Y-137913614D01*
X101074952Y-137731446D01*
X101230251Y-137519760D01*
X101408722Y-137275446D01*
X101612740Y-136995397D01*
X101844675Y-136676504D01*
X102034782Y-136414920D01*
X102273372Y-136086292D01*
X102481508Y-135798957D01*
X102661075Y-135550187D01*
X102813957Y-135337254D01*
X102942041Y-135157430D01*
X103047212Y-135007986D01*
X103131355Y-134886196D01*
X103196357Y-134789331D01*
X103244103Y-134714662D01*
X103276477Y-134659463D01*
X103295366Y-134621004D01*
X103302655Y-134596559D01*
X103300464Y-134583706D01*
X103273913Y-134549504D01*
X103216508Y-134477108D01*
X103131713Y-134370820D01*
X103022992Y-134234945D01*
X102893808Y-134073784D01*
X102747626Y-133891643D01*
X102587909Y-133692822D01*
X102418121Y-133481627D01*
X102241726Y-133262359D01*
X102062187Y-133039323D01*
X101963435Y-132916720D01*
X99511548Y-132916720D01*
X99307742Y-133285430D01*
X99307742Y-138638548D01*
X99511548Y-139007258D01*
X98306111Y-139007258D01*
X98018341Y-139007174D01*
X97780647Y-139006797D01*
X97588482Y-139005935D01*
X97437298Y-139004400D01*
X97322548Y-139002000D01*
X97239685Y-138998546D01*
X97184162Y-138993849D01*
X97151430Y-138987717D01*
X97136943Y-138979961D01*
X97136153Y-138970391D01*
X97144513Y-138958817D01*
X97144599Y-138958721D01*
X97179036Y-138908907D01*
X97224637Y-138827910D01*
X97264908Y-138747055D01*
X97341291Y-138583925D01*
X97349081Y-135750322D01*
X97356871Y-132916720D01*
X99511548Y-132916720D01*
X101963435Y-132916720D01*
X101882969Y-132816821D01*
X101707536Y-132599157D01*
X101539350Y-132390633D01*
X101381877Y-132195554D01*
X101238579Y-132018221D01*
X101112921Y-131862939D01*
X101008366Y-131734010D01*
X100928379Y-131635738D01*
X100881398Y-131578441D01*
X100698963Y-131364180D01*
X100523452Y-131170830D01*
X100361016Y-131004720D01*
X100217805Y-130872180D01*
X100116171Y-130790921D01*
X99995998Y-130704462D01*
X102759840Y-130704462D01*
X102759064Y-130866646D01*
X102766788Y-130985883D01*
X102795828Y-131096426D01*
X102840782Y-131201216D01*
X102870004Y-131260416D01*
X102901423Y-131319074D01*
X102937909Y-131381086D01*
X102982331Y-131450345D01*
X103037561Y-131530746D01*
X103106469Y-131626181D01*
X103191923Y-131740547D01*
X103296796Y-131877735D01*
X103423955Y-132041642D01*
X103576273Y-132236160D01*
X103756618Y-132465185D01*
X103967862Y-132732609D01*
X103991721Y-132762783D01*
X104824732Y-133816195D01*
X104832796Y-132649522D01*
X104834420Y-132300069D01*
X104834074Y-132004230D01*
X104831742Y-131761030D01*
X104827407Y-131569493D01*
X104821051Y-131428644D01*
X104812659Y-131337508D01*
X104809838Y-131320220D01*
X104765584Y-131138117D01*
X104707602Y-130973950D01*
X104641437Y-130841954D01*
X104601687Y-130785972D01*
X104533102Y-130704462D01*
X105834453Y-130704462D01*
X106144885Y-130704728D01*
X106404477Y-130705591D01*
X106617014Y-130707154D01*
X106786276Y-130709517D01*
X106916048Y-130712780D01*
X107010111Y-130717045D01*
X107072248Y-130722413D01*
X107106241Y-130728983D01*
X107115874Y-130736858D01*
X107115208Y-130738602D01*
X107087620Y-130780243D01*
X107041564Y-130846248D01*
X107017735Y-130879631D01*
X106993099Y-130912944D01*
X106970955Y-130942734D01*
X106951164Y-130971933D01*
X106933586Y-131003474D01*
X106918081Y-131040286D01*
X106904511Y-131085303D01*
X106892736Y-131141455D01*
X106882616Y-131211675D01*
X106874013Y-131298894D01*
X106866786Y-131406043D01*
X106860796Y-131536055D01*
X106855904Y-131691861D01*
X106851971Y-131876393D01*
X106848857Y-132092581D01*
X106846422Y-132343359D01*
X106844527Y-132631658D01*
X106843033Y-132960409D01*
X106841801Y-133332543D01*
X106840690Y-133750994D01*
X106839562Y-134218691D01*
X106838508Y-134648354D01*
X106837512Y-135127353D01*
X106836994Y-135584362D01*
X106836941Y-136016464D01*
X106837338Y-136420738D01*
X106838172Y-136794265D01*
X106839429Y-137134127D01*
X106841094Y-137437404D01*
X106843156Y-137701177D01*
X106845599Y-137922527D01*
X106848410Y-138098535D01*
X106851576Y-138226283D01*
X106855082Y-138302849D01*
X106855745Y-138310941D01*
X106879905Y-138496568D01*
X106917624Y-138645647D01*
X106975064Y-138775750D01*
X107058389Y-138904452D01*
X107068811Y-138918494D01*
X107135361Y-139007258D01*
X107864283Y-139007258D01*
X107865752Y-138845145D01*
X107867421Y-138567867D01*
X107868625Y-138254459D01*
X107869435Y-137902664D01*
X107869922Y-137510223D01*
X107870156Y-137074877D01*
X107870211Y-136594368D01*
X107870156Y-136066438D01*
X107870062Y-135488828D01*
X107870002Y-134859279D01*
X107870000Y-134734301D01*
X107869965Y-134098122D01*
X107869847Y-133514325D01*
X107869628Y-132980668D01*
X107869292Y-132494909D01*
X107868822Y-132054805D01*
X107868198Y-131658116D01*
X107867406Y-131302599D01*
X107866426Y-130986012D01*
X107865242Y-130706113D01*
X107863836Y-130460661D01*
X107862190Y-130247413D01*
X107860288Y-130064128D01*
X107858113Y-129908564D01*
X107855645Y-129778478D01*
X107852869Y-129671629D01*
X107849767Y-129585775D01*
X107846321Y-129518674D01*
X107842515Y-129468084D01*
X107838330Y-129431764D01*
X107833749Y-129407470D01*
X107828755Y-129392962D01*
X107828570Y-129392600D01*
X107818285Y-129370437D01*
X107809718Y-129350372D01*
X107800241Y-129332301D01*
X107787226Y-129316121D01*
X107768043Y-129301726D01*
X107740065Y-129289014D01*
X107700663Y-129277880D01*
X107647208Y-129268221D01*
X107577071Y-129259932D01*
X107487624Y-129252910D01*
X107376238Y-129247050D01*
X107240284Y-129242250D01*
X107077135Y-129238404D01*
X106884161Y-129235409D01*
X106658733Y-129233161D01*
X106398224Y-129231556D01*
X106100004Y-129230491D01*
X105761445Y-129229860D01*
X105379918Y-129229561D01*
X104952794Y-129229490D01*
X104477446Y-129229541D01*
G36*
X112838464Y-81325427D02*
X112725882Y-81922618D01*
X112310469Y-82093865D01*
X111895055Y-82265112D01*
X111396698Y-81926233D01*
X111257131Y-81831877D01*
X111130971Y-81747630D01*
X111024104Y-81677338D01*
X110942417Y-81624847D01*
X110891798Y-81594004D01*
X110878013Y-81587353D01*
X110853179Y-81604458D01*
X110800111Y-81651744D01*
X110724759Y-81723172D01*
X110633070Y-81812700D01*
X110530992Y-81914289D01*
X110424473Y-82021898D01*
X110319463Y-82129487D01*
X110221908Y-82231015D01*
X110137757Y-82320441D01*
X110072959Y-82391726D01*
X110033462Y-82438828D01*
X110024019Y-82454592D01*
X110037608Y-82483653D01*
X110075706Y-82547321D01*
X110134306Y-82639367D01*
X110209402Y-82753564D01*
X110296991Y-82883684D01*
X110347745Y-82957901D01*
X110440254Y-83093422D01*
X110522459Y-83215716D01*
X110590369Y-83318695D01*
X110639999Y-83396273D01*
X110667359Y-83442361D01*
X110671470Y-83452047D01*
X110662150Y-83479574D01*
X110636745Y-83543728D01*
X110599088Y-83635490D01*
X110553013Y-83745839D01*
X110502353Y-83865755D01*
X110450940Y-83986219D01*
X110402610Y-84098209D01*
X110361193Y-84192707D01*
X110330525Y-84260692D01*
X110314438Y-84293143D01*
X110313488Y-84294420D01*
X110288227Y-84300617D01*
X110220954Y-84314440D01*
X110118639Y-84334532D01*
X109988258Y-84359534D01*
X109836783Y-84388086D01*
X109748406Y-84404551D01*
X109586547Y-84435369D01*
X109440350Y-84464694D01*
X109317212Y-84490921D01*
X109224530Y-84512446D01*
X109169698Y-84527665D01*
X109158676Y-84532493D01*
X109147881Y-84565174D01*
X109139170Y-84638985D01*
X109132539Y-84745292D01*
X109127981Y-84875467D01*
X109125490Y-85020876D01*
X109125061Y-85172890D01*
X109126688Y-85322877D01*
X109130364Y-85462206D01*
X109136084Y-85582245D01*
X109143842Y-85674365D01*
X109153631Y-85729932D01*
X109159503Y-85741500D01*
X109194600Y-85755365D01*
X109268971Y-85775188D01*
X109372776Y-85798639D01*
X109496180Y-85823391D01*
X109539258Y-85831398D01*
X109746952Y-85869441D01*
X109911015Y-85900079D01*
X110036869Y-85924529D01*
X110129934Y-85944009D01*
X110195632Y-85959736D01*
X110239382Y-85972928D01*
X110266607Y-85984804D01*
X110282727Y-85996580D01*
X110284982Y-85998908D01*
X110307496Y-86036400D01*
X110341841Y-86109365D01*
X110384588Y-86208867D01*
X110432307Y-86325973D01*
X110481569Y-86451748D01*
X110528944Y-86577257D01*
X110571004Y-86693565D01*
X110604319Y-86791739D01*
X110625458Y-86862843D01*
X110630994Y-86897942D01*
X110630533Y-86899172D01*
X110611776Y-86927861D01*
X110569223Y-86990985D01*
X110507346Y-87081973D01*
X110430617Y-87194255D01*
X110343508Y-87321260D01*
X110318701Y-87357353D01*
X110230247Y-87488203D01*
X110152411Y-87607591D01*
X110089433Y-87708662D01*
X110045554Y-87784559D01*
X110025014Y-87828427D01*
X110024019Y-87833817D01*
X110041277Y-87862144D01*
X110088964Y-87918261D01*
X110160949Y-87996137D01*
X110251102Y-88089740D01*
X110353294Y-88193041D01*
X110461394Y-88300006D01*
X110569271Y-88404606D01*
X110670795Y-88500809D01*
X110759837Y-88582584D01*
X110830266Y-88643900D01*
X110875952Y-88678726D01*
X110888590Y-88684412D01*
X110918008Y-88671020D01*
X110978238Y-88634899D01*
X111059470Y-88582136D01*
X111121969Y-88539667D01*
X111235214Y-88461740D01*
X111369325Y-88369984D01*
X111503844Y-88278375D01*
X111576166Y-88229346D01*
X111820961Y-88063770D01*
X112026449Y-88174875D01*
X112120063Y-88223548D01*
X112199669Y-88261381D01*
X112253532Y-88282958D01*
X112267242Y-88285961D01*
X112283729Y-88263793D01*
X112316254Y-88201149D01*
X112362391Y-88103809D01*
X112419709Y-87977549D01*
X112485783Y-87828150D01*
X112558184Y-87661388D01*
X112634483Y-87483042D01*
X112712253Y-87298891D01*
X112789065Y-87114712D01*
X112862493Y-86936285D01*
X112930107Y-86769387D01*
X112989479Y-86619797D01*
X113038183Y-86493293D01*
X113073789Y-86395654D01*
X113093869Y-86332657D01*
X113097099Y-86311021D01*
X113071503Y-86283424D01*
X113015461Y-86238625D01*
X112940688Y-86185934D01*
X112934412Y-86181765D01*
X112741154Y-86027069D01*
X112585325Y-85846591D01*
X112468275Y-85646102D01*
X112391354Y-85431374D01*
X112355913Y-85208177D01*
X112363302Y-84982281D01*
X112414872Y-84759459D01*
X112511973Y-84545479D01*
X112540541Y-84498664D01*
X112689131Y-84309618D01*
X112864672Y-84157812D01*
X113061089Y-84044034D01*
X113272306Y-83969075D01*
X113492246Y-83933722D01*
X113714836Y-83938767D01*
X113933998Y-83984999D01*
X114143657Y-84073206D01*
X114337738Y-84204179D01*
X114397773Y-84257337D01*
X114550564Y-84423739D01*
X114661902Y-84598912D01*
X114738276Y-84795266D01*
X114780812Y-84989717D01*
X114791313Y-85208342D01*
X114756299Y-85428052D01*
X114679326Y-85641420D01*
X114563952Y-85841022D01*
X114413734Y-86019429D01*
X114232226Y-86169217D01*
X114208372Y-86185006D01*
X114132798Y-86236712D01*
X114075348Y-86281512D01*
X114047882Y-86310117D01*
X114047482Y-86311021D01*
X114053379Y-86341964D01*
X114076754Y-86412191D01*
X114115178Y-86515925D01*
X114166222Y-86647390D01*
X114227457Y-86800807D01*
X114296455Y-86970401D01*
X114370786Y-87150393D01*
X114448021Y-87335008D01*
X114525731Y-87518468D01*
X114601488Y-87694996D01*
X114672862Y-87858814D01*
X114737425Y-88004147D01*
X114792747Y-88125217D01*
X114836399Y-88216247D01*
X114865953Y-88271460D01*
X114877855Y-88285961D01*
X114914222Y-88274669D01*
X114982269Y-88244385D01*
X115070263Y-88200520D01*
X115118649Y-88174875D01*
X115324136Y-88063770D01*
X115568931Y-88229346D01*
X115693893Y-88314170D01*
X115830704Y-88407516D01*
X115958911Y-88495408D01*
X116023128Y-88539667D01*
X116113448Y-88600318D01*
X116189928Y-88648381D01*
X116242592Y-88677770D01*
X116259697Y-88683982D01*
X116284594Y-88667223D01*
X116339694Y-88620436D01*
X116419656Y-88548480D01*
X116519139Y-88456212D01*
X116632799Y-88348490D01*
X116704684Y-88279326D01*
X116830448Y-88155757D01*
X116939136Y-88045234D01*
X117026354Y-87952485D01*
X117087710Y-87882237D01*
X117118808Y-87839220D01*
X117121791Y-87830490D01*
X117107946Y-87797284D01*
X117069687Y-87730142D01*
X117011258Y-87635863D01*
X116936902Y-87521245D01*
X116850864Y-87393083D01*
X116826397Y-87357353D01*
X116737245Y-87227489D01*
X116657261Y-87110569D01*
X116590919Y-87013162D01*
X116542688Y-86941839D01*
X116517042Y-86903170D01*
X116514564Y-86899172D01*
X116518270Y-86868355D01*
X116537938Y-86800599D01*
X116570139Y-86704839D01*
X116611444Y-86590009D01*
X116658424Y-86465044D01*
X116707650Y-86338879D01*
X116755691Y-86220448D01*
X116799118Y-86118685D01*
X116834503Y-86042526D01*
X116858415Y-86000904D01*
X116860115Y-85998908D01*
X116874737Y-85987013D01*
X116899434Y-85975250D01*
X116939627Y-85962401D01*
X117000736Y-85947249D01*
X117088182Y-85928576D01*
X117207387Y-85905165D01*
X117363772Y-85875797D01*
X117562756Y-85839255D01*
X117605839Y-85831398D01*
X117733529Y-85806727D01*
X117844846Y-85782593D01*
X117929954Y-85761324D01*
X117979016Y-85745248D01*
X117985594Y-85741500D01*
X117996435Y-85708273D01*
X118005246Y-85634021D01*
X118012023Y-85527376D01*
X118016759Y-85396967D01*
X118019449Y-85251427D01*
X118020086Y-85099386D01*
X118018665Y-84949476D01*
X118015179Y-84810328D01*
X118009623Y-84690572D01*
X118001991Y-84598841D01*
X117992277Y-84543766D01*
X117986421Y-84532493D01*
X117953819Y-84521123D01*
X117879581Y-84502624D01*
X117771103Y-84478602D01*
X117635782Y-84450662D01*
X117481014Y-84420408D01*
X117396692Y-84404551D01*
X117236703Y-84374644D01*
X117094032Y-84347550D01*
X116975651Y-84324631D01*
X116888534Y-84307243D01*
X116839654Y-84296747D01*
X116831609Y-84294420D01*
X116818012Y-84268186D01*
X116789270Y-84204995D01*
X116749214Y-84113877D01*
X116701675Y-84003857D01*
X116650484Y-83883965D01*
X116599473Y-83763227D01*
X116552473Y-83650671D01*
X116513315Y-83555326D01*
X116485830Y-83486217D01*
X116473850Y-83452374D01*
X116473627Y-83450895D01*
X116487208Y-83424197D01*
X116525284Y-83362760D01*
X116583852Y-83272689D01*
X116658911Y-83160090D01*
X116746459Y-83031070D01*
X116797352Y-82956961D01*
X116890090Y-82821077D01*
X116972458Y-82697709D01*
X117040438Y-82593097D01*
X117090011Y-82513483D01*
X117117157Y-82465107D01*
X117121078Y-82454262D01*
X117104224Y-82429020D01*
X117057631Y-82375124D01*
X116987251Y-82298613D01*
X116899034Y-82205523D01*
X116798934Y-82101895D01*
X116692901Y-81993764D01*
X116586888Y-81887170D01*
X116486847Y-81788150D01*
X116398729Y-81702742D01*
X116328486Y-81636985D01*
X116282071Y-81596916D01*
X116266543Y-81587353D01*
X116241260Y-81600800D01*
X116180788Y-81638575D01*
X116091007Y-81696835D01*
X115977796Y-81771734D01*
X115847036Y-81859425D01*
X115748400Y-81926233D01*
X115250042Y-82265112D01*
X114834629Y-82093865D01*
X114419215Y-81922618D01*
X114306633Y-81325427D01*
X114194050Y-80728235D01*
X112951047Y-80728235D01*
X112838464Y-81325427D01*
X112838464Y-81325427D01*
G37*
X112838464Y-81325427D02*
X112725882Y-81922618D01*
X112310469Y-82093865D01*
X111895055Y-82265112D01*
X111396698Y-81926233D01*
X111257131Y-81831877D01*
X111130971Y-81747630D01*
X111024104Y-81677338D01*
X110942417Y-81624847D01*
X110891798Y-81594004D01*
X110878013Y-81587353D01*
X110853179Y-81604458D01*
X110800111Y-81651744D01*
X110724759Y-81723172D01*
X110633070Y-81812700D01*
X110530992Y-81914289D01*
X110424473Y-82021898D01*
X110319463Y-82129487D01*
X110221908Y-82231015D01*
X110137757Y-82320441D01*
X110072959Y-82391726D01*
X110033462Y-82438828D01*
X110024019Y-82454592D01*
X110037608Y-82483653D01*
X110075706Y-82547321D01*
X110134306Y-82639367D01*
X110209402Y-82753564D01*
X110296991Y-82883684D01*
X110347745Y-82957901D01*
X110440254Y-83093422D01*
X110522459Y-83215716D01*
X110590369Y-83318695D01*
X110639999Y-83396273D01*
X110667359Y-83442361D01*
X110671470Y-83452047D01*
X110662150Y-83479574D01*
X110636745Y-83543728D01*
X110599088Y-83635490D01*
X110553013Y-83745839D01*
X110502353Y-83865755D01*
X110450940Y-83986219D01*
X110402610Y-84098209D01*
X110361193Y-84192707D01*
X110330525Y-84260692D01*
X110314438Y-84293143D01*
X110313488Y-84294420D01*
X110288227Y-84300617D01*
X110220954Y-84314440D01*
X110118639Y-84334532D01*
X109988258Y-84359534D01*
X109836783Y-84388086D01*
X109748406Y-84404551D01*
X109586547Y-84435369D01*
X109440350Y-84464694D01*
X109317212Y-84490921D01*
X109224530Y-84512446D01*
X109169698Y-84527665D01*
X109158676Y-84532493D01*
X109147881Y-84565174D01*
X109139170Y-84638985D01*
X109132539Y-84745292D01*
X109127981Y-84875467D01*
X109125490Y-85020876D01*
X109125061Y-85172890D01*
X109126688Y-85322877D01*
X109130364Y-85462206D01*
X109136084Y-85582245D01*
X109143842Y-85674365D01*
X109153631Y-85729932D01*
X109159503Y-85741500D01*
X109194600Y-85755365D01*
X109268971Y-85775188D01*
X109372776Y-85798639D01*
X109496180Y-85823391D01*
X109539258Y-85831398D01*
X109746952Y-85869441D01*
X109911015Y-85900079D01*
X110036869Y-85924529D01*
X110129934Y-85944009D01*
X110195632Y-85959736D01*
X110239382Y-85972928D01*
X110266607Y-85984804D01*
X110282727Y-85996580D01*
X110284982Y-85998908D01*
X110307496Y-86036400D01*
X110341841Y-86109365D01*
X110384588Y-86208867D01*
X110432307Y-86325973D01*
X110481569Y-86451748D01*
X110528944Y-86577257D01*
X110571004Y-86693565D01*
X110604319Y-86791739D01*
X110625458Y-86862843D01*
X110630994Y-86897942D01*
X110630533Y-86899172D01*
X110611776Y-86927861D01*
X110569223Y-86990985D01*
X110507346Y-87081973D01*
X110430617Y-87194255D01*
X110343508Y-87321260D01*
X110318701Y-87357353D01*
X110230247Y-87488203D01*
X110152411Y-87607591D01*
X110089433Y-87708662D01*
X110045554Y-87784559D01*
X110025014Y-87828427D01*
X110024019Y-87833817D01*
X110041277Y-87862144D01*
X110088964Y-87918261D01*
X110160949Y-87996137D01*
X110251102Y-88089740D01*
X110353294Y-88193041D01*
X110461394Y-88300006D01*
X110569271Y-88404606D01*
X110670795Y-88500809D01*
X110759837Y-88582584D01*
X110830266Y-88643900D01*
X110875952Y-88678726D01*
X110888590Y-88684412D01*
X110918008Y-88671020D01*
X110978238Y-88634899D01*
X111059470Y-88582136D01*
X111121969Y-88539667D01*
X111235214Y-88461740D01*
X111369325Y-88369984D01*
X111503844Y-88278375D01*
X111576166Y-88229346D01*
X111820961Y-88063770D01*
X112026449Y-88174875D01*
X112120063Y-88223548D01*
X112199669Y-88261381D01*
X112253532Y-88282958D01*
X112267242Y-88285961D01*
X112283729Y-88263793D01*
X112316254Y-88201149D01*
X112362391Y-88103809D01*
X112419709Y-87977549D01*
X112485783Y-87828150D01*
X112558184Y-87661388D01*
X112634483Y-87483042D01*
X112712253Y-87298891D01*
X112789065Y-87114712D01*
X112862493Y-86936285D01*
X112930107Y-86769387D01*
X112989479Y-86619797D01*
X113038183Y-86493293D01*
X113073789Y-86395654D01*
X113093869Y-86332657D01*
X113097099Y-86311021D01*
X113071503Y-86283424D01*
X113015461Y-86238625D01*
X112940688Y-86185934D01*
X112934412Y-86181765D01*
X112741154Y-86027069D01*
X112585325Y-85846591D01*
X112468275Y-85646102D01*
X112391354Y-85431374D01*
X112355913Y-85208177D01*
X112363302Y-84982281D01*
X112414872Y-84759459D01*
X112511973Y-84545479D01*
X112540541Y-84498664D01*
X112689131Y-84309618D01*
X112864672Y-84157812D01*
X113061089Y-84044034D01*
X113272306Y-83969075D01*
X113492246Y-83933722D01*
X113714836Y-83938767D01*
X113933998Y-83984999D01*
X114143657Y-84073206D01*
X114337738Y-84204179D01*
X114397773Y-84257337D01*
X114550564Y-84423739D01*
X114661902Y-84598912D01*
X114738276Y-84795266D01*
X114780812Y-84989717D01*
X114791313Y-85208342D01*
X114756299Y-85428052D01*
X114679326Y-85641420D01*
X114563952Y-85841022D01*
X114413734Y-86019429D01*
X114232226Y-86169217D01*
X114208372Y-86185006D01*
X114132798Y-86236712D01*
X114075348Y-86281512D01*
X114047882Y-86310117D01*
X114047482Y-86311021D01*
X114053379Y-86341964D01*
X114076754Y-86412191D01*
X114115178Y-86515925D01*
X114166222Y-86647390D01*
X114227457Y-86800807D01*
X114296455Y-86970401D01*
X114370786Y-87150393D01*
X114448021Y-87335008D01*
X114525731Y-87518468D01*
X114601488Y-87694996D01*
X114672862Y-87858814D01*
X114737425Y-88004147D01*
X114792747Y-88125217D01*
X114836399Y-88216247D01*
X114865953Y-88271460D01*
X114877855Y-88285961D01*
X114914222Y-88274669D01*
X114982269Y-88244385D01*
X115070263Y-88200520D01*
X115118649Y-88174875D01*
X115324136Y-88063770D01*
X115568931Y-88229346D01*
X115693893Y-88314170D01*
X115830704Y-88407516D01*
X115958911Y-88495408D01*
X116023128Y-88539667D01*
X116113448Y-88600318D01*
X116189928Y-88648381D01*
X116242592Y-88677770D01*
X116259697Y-88683982D01*
X116284594Y-88667223D01*
X116339694Y-88620436D01*
X116419656Y-88548480D01*
X116519139Y-88456212D01*
X116632799Y-88348490D01*
X116704684Y-88279326D01*
X116830448Y-88155757D01*
X116939136Y-88045234D01*
X117026354Y-87952485D01*
X117087710Y-87882237D01*
X117118808Y-87839220D01*
X117121791Y-87830490D01*
X117107946Y-87797284D01*
X117069687Y-87730142D01*
X117011258Y-87635863D01*
X116936902Y-87521245D01*
X116850864Y-87393083D01*
X116826397Y-87357353D01*
X116737245Y-87227489D01*
X116657261Y-87110569D01*
X116590919Y-87013162D01*
X116542688Y-86941839D01*
X116517042Y-86903170D01*
X116514564Y-86899172D01*
X116518270Y-86868355D01*
X116537938Y-86800599D01*
X116570139Y-86704839D01*
X116611444Y-86590009D01*
X116658424Y-86465044D01*
X116707650Y-86338879D01*
X116755691Y-86220448D01*
X116799118Y-86118685D01*
X116834503Y-86042526D01*
X116858415Y-86000904D01*
X116860115Y-85998908D01*
X116874737Y-85987013D01*
X116899434Y-85975250D01*
X116939627Y-85962401D01*
X117000736Y-85947249D01*
X117088182Y-85928576D01*
X117207387Y-85905165D01*
X117363772Y-85875797D01*
X117562756Y-85839255D01*
X117605839Y-85831398D01*
X117733529Y-85806727D01*
X117844846Y-85782593D01*
X117929954Y-85761324D01*
X117979016Y-85745248D01*
X117985594Y-85741500D01*
X117996435Y-85708273D01*
X118005246Y-85634021D01*
X118012023Y-85527376D01*
X118016759Y-85396967D01*
X118019449Y-85251427D01*
X118020086Y-85099386D01*
X118018665Y-84949476D01*
X118015179Y-84810328D01*
X118009623Y-84690572D01*
X118001991Y-84598841D01*
X117992277Y-84543766D01*
X117986421Y-84532493D01*
X117953819Y-84521123D01*
X117879581Y-84502624D01*
X117771103Y-84478602D01*
X117635782Y-84450662D01*
X117481014Y-84420408D01*
X117396692Y-84404551D01*
X117236703Y-84374644D01*
X117094032Y-84347550D01*
X116975651Y-84324631D01*
X116888534Y-84307243D01*
X116839654Y-84296747D01*
X116831609Y-84294420D01*
X116818012Y-84268186D01*
X116789270Y-84204995D01*
X116749214Y-84113877D01*
X116701675Y-84003857D01*
X116650484Y-83883965D01*
X116599473Y-83763227D01*
X116552473Y-83650671D01*
X116513315Y-83555326D01*
X116485830Y-83486217D01*
X116473850Y-83452374D01*
X116473627Y-83450895D01*
X116487208Y-83424197D01*
X116525284Y-83362760D01*
X116583852Y-83272689D01*
X116658911Y-83160090D01*
X116746459Y-83031070D01*
X116797352Y-82956961D01*
X116890090Y-82821077D01*
X116972458Y-82697709D01*
X117040438Y-82593097D01*
X117090011Y-82513483D01*
X117117157Y-82465107D01*
X117121078Y-82454262D01*
X117104224Y-82429020D01*
X117057631Y-82375124D01*
X116987251Y-82298613D01*
X116899034Y-82205523D01*
X116798934Y-82101895D01*
X116692901Y-81993764D01*
X116586888Y-81887170D01*
X116486847Y-81788150D01*
X116398729Y-81702742D01*
X116328486Y-81636985D01*
X116282071Y-81596916D01*
X116266543Y-81587353D01*
X116241260Y-81600800D01*
X116180788Y-81638575D01*
X116091007Y-81696835D01*
X115977796Y-81771734D01*
X115847036Y-81859425D01*
X115748400Y-81926233D01*
X115250042Y-82265112D01*
X114834629Y-82093865D01*
X114419215Y-81922618D01*
X114306633Y-81325427D01*
X114194050Y-80728235D01*
X112951047Y-80728235D01*
X112838464Y-81325427D01*
%TD*%
%TO.C,U4*%
D10*
X107877380Y-78618095D02*
X108686904Y-78618095D01*
X108782142Y-78665714D01*
X108829761Y-78713333D01*
X108877380Y-78808571D01*
X108877380Y-78999047D01*
X108829761Y-79094285D01*
X108782142Y-79141904D01*
X108686904Y-79189523D01*
X107877380Y-79189523D01*
X108210714Y-80094285D02*
X108877380Y-80094285D01*
X107829761Y-79856190D02*
X108544047Y-79618095D01*
X108544047Y-80237142D01*
D14*
X96115428Y-81547000D02*
X96715428Y-81747000D01*
X96115428Y-81947000D01*
X96658285Y-82489857D02*
X96686857Y-82461285D01*
X96715428Y-82375571D01*
X96715428Y-82318428D01*
X96686857Y-82232714D01*
X96629714Y-82175571D01*
X96572571Y-82147000D01*
X96458285Y-82118428D01*
X96372571Y-82118428D01*
X96258285Y-82147000D01*
X96201142Y-82175571D01*
X96144000Y-82232714D01*
X96115428Y-82318428D01*
X96115428Y-82375571D01*
X96144000Y-82461285D01*
X96172571Y-82489857D01*
X96658285Y-83089857D02*
X96686857Y-83061285D01*
X96715428Y-82975571D01*
X96715428Y-82918428D01*
X96686857Y-82832714D01*
X96629714Y-82775571D01*
X96572571Y-82747000D01*
X96458285Y-82718428D01*
X96372571Y-82718428D01*
X96258285Y-82747000D01*
X96201142Y-82775571D01*
X96144000Y-82832714D01*
X96115428Y-82918428D01*
X96115428Y-82975571D01*
X96144000Y-83061285D01*
X96172571Y-83089857D01*
X97287000Y-81858142D02*
X97258428Y-81801000D01*
X97258428Y-81715285D01*
X97287000Y-81629571D01*
X97344142Y-81572428D01*
X97401285Y-81543857D01*
X97515571Y-81515285D01*
X97601285Y-81515285D01*
X97715571Y-81543857D01*
X97772714Y-81572428D01*
X97829857Y-81629571D01*
X97858428Y-81715285D01*
X97858428Y-81772428D01*
X97829857Y-81858142D01*
X97801285Y-81886714D01*
X97601285Y-81886714D01*
X97601285Y-81772428D01*
X97858428Y-82143857D02*
X97258428Y-82143857D01*
X97258428Y-82286714D01*
X97287000Y-82372428D01*
X97344142Y-82429571D01*
X97401285Y-82458142D01*
X97515571Y-82486714D01*
X97601285Y-82486714D01*
X97715571Y-82458142D01*
X97772714Y-82429571D01*
X97829857Y-82372428D01*
X97858428Y-82286714D01*
X97858428Y-82143857D01*
X97258428Y-82858142D02*
X97258428Y-82972428D01*
X97287000Y-83029571D01*
X97344142Y-83086714D01*
X97458428Y-83115285D01*
X97658428Y-83115285D01*
X97772714Y-83086714D01*
X97829857Y-83029571D01*
X97858428Y-82972428D01*
X97858428Y-82858142D01*
X97829857Y-82801000D01*
X97772714Y-82743857D01*
X97658428Y-82715285D01*
X97458428Y-82715285D01*
X97344142Y-82743857D01*
X97287000Y-82801000D01*
X97258428Y-82858142D01*
X97258428Y-83486714D02*
X97258428Y-83543857D01*
X97287000Y-83601000D01*
X97315571Y-83629571D01*
X97372714Y-83658142D01*
X97487000Y-83686714D01*
X97629857Y-83686714D01*
X97744142Y-83658142D01*
X97801285Y-83629571D01*
X97829857Y-83601000D01*
X97858428Y-83543857D01*
X97858428Y-83486714D01*
X97829857Y-83429571D01*
X97801285Y-83401000D01*
X97744142Y-83372428D01*
X97629857Y-83343857D01*
X97487000Y-83343857D01*
X97372714Y-83372428D01*
X97315571Y-83401000D01*
X97287000Y-83429571D01*
X97258428Y-83486714D01*
X99071285Y-81932714D02*
X99099857Y-81904142D01*
X99128428Y-81818428D01*
X99128428Y-81761285D01*
X99099857Y-81675571D01*
X99042714Y-81618428D01*
X98985571Y-81589857D01*
X98871285Y-81561285D01*
X98785571Y-81561285D01*
X98671285Y-81589857D01*
X98614142Y-81618428D01*
X98557000Y-81675571D01*
X98528428Y-81761285D01*
X98528428Y-81818428D01*
X98557000Y-81904142D01*
X98585571Y-81932714D01*
X99099857Y-82161285D02*
X99128428Y-82247000D01*
X99128428Y-82389857D01*
X99099857Y-82447000D01*
X99071285Y-82475571D01*
X99014142Y-82504142D01*
X98957000Y-82504142D01*
X98899857Y-82475571D01*
X98871285Y-82447000D01*
X98842714Y-82389857D01*
X98814142Y-82275571D01*
X98785571Y-82218428D01*
X98757000Y-82189857D01*
X98699857Y-82161285D01*
X98642714Y-82161285D01*
X98585571Y-82189857D01*
X98557000Y-82218428D01*
X98528428Y-82275571D01*
X98528428Y-82418428D01*
X98557000Y-82504142D01*
X99128428Y-82761285D02*
X98528428Y-82761285D01*
X99128428Y-83104142D01*
X98528428Y-83104142D01*
X100369857Y-81575571D02*
X100398428Y-81661285D01*
X100398428Y-81804142D01*
X100369857Y-81861285D01*
X100341285Y-81889857D01*
X100284142Y-81918428D01*
X100227000Y-81918428D01*
X100169857Y-81889857D01*
X100141285Y-81861285D01*
X100112714Y-81804142D01*
X100084142Y-81689857D01*
X100055571Y-81632714D01*
X100027000Y-81604142D01*
X99969857Y-81575571D01*
X99912714Y-81575571D01*
X99855571Y-81604142D01*
X99827000Y-81632714D01*
X99798428Y-81689857D01*
X99798428Y-81832714D01*
X99827000Y-81918428D01*
X100341285Y-82518428D02*
X100369857Y-82489857D01*
X100398428Y-82404142D01*
X100398428Y-82347000D01*
X100369857Y-82261285D01*
X100312714Y-82204142D01*
X100255571Y-82175571D01*
X100141285Y-82147000D01*
X100055571Y-82147000D01*
X99941285Y-82175571D01*
X99884142Y-82204142D01*
X99827000Y-82261285D01*
X99798428Y-82347000D01*
X99798428Y-82404142D01*
X99827000Y-82489857D01*
X99855571Y-82518428D01*
X100398428Y-82775571D02*
X99798428Y-82775571D01*
X100398428Y-83118428D02*
X100055571Y-82861285D01*
X99798428Y-83118428D02*
X100141285Y-82775571D01*
X101668428Y-81658142D02*
X101068428Y-81658142D01*
X101497000Y-81858142D01*
X101068428Y-82058142D01*
X101668428Y-82058142D01*
X101068428Y-82458142D02*
X101068428Y-82572428D01*
X101097000Y-82629571D01*
X101154142Y-82686714D01*
X101268428Y-82715285D01*
X101468428Y-82715285D01*
X101582714Y-82686714D01*
X101639857Y-82629571D01*
X101668428Y-82572428D01*
X101668428Y-82458142D01*
X101639857Y-82401000D01*
X101582714Y-82343857D01*
X101468428Y-82315285D01*
X101268428Y-82315285D01*
X101154142Y-82343857D01*
X101097000Y-82401000D01*
X101068428Y-82458142D01*
X101639857Y-82943857D02*
X101668428Y-83029571D01*
X101668428Y-83172428D01*
X101639857Y-83229571D01*
X101611285Y-83258142D01*
X101554142Y-83286714D01*
X101497000Y-83286714D01*
X101439857Y-83258142D01*
X101411285Y-83229571D01*
X101382714Y-83172428D01*
X101354142Y-83058142D01*
X101325571Y-83001000D01*
X101297000Y-82972428D01*
X101239857Y-82943857D01*
X101182714Y-82943857D01*
X101125571Y-82972428D01*
X101097000Y-83001000D01*
X101068428Y-83058142D01*
X101068428Y-83201000D01*
X101097000Y-83286714D01*
X101668428Y-83543857D02*
X101068428Y-83543857D01*
X102938428Y-81658142D02*
X102338428Y-81658142D01*
X102767000Y-81858142D01*
X102338428Y-82058142D01*
X102938428Y-82058142D01*
X102938428Y-82343857D02*
X102338428Y-82343857D01*
X102909857Y-82601000D02*
X102938428Y-82686714D01*
X102938428Y-82829571D01*
X102909857Y-82886714D01*
X102881285Y-82915285D01*
X102824142Y-82943857D01*
X102767000Y-82943857D01*
X102709857Y-82915285D01*
X102681285Y-82886714D01*
X102652714Y-82829571D01*
X102624142Y-82715285D01*
X102595571Y-82658142D01*
X102567000Y-82629571D01*
X102509857Y-82601000D01*
X102452714Y-82601000D01*
X102395571Y-82629571D01*
X102367000Y-82658142D01*
X102338428Y-82715285D01*
X102338428Y-82858142D01*
X102367000Y-82943857D01*
X102338428Y-83315285D02*
X102338428Y-83429571D01*
X102367000Y-83486714D01*
X102424142Y-83543857D01*
X102538428Y-83572428D01*
X102738428Y-83572428D01*
X102852714Y-83543857D01*
X102909857Y-83486714D01*
X102938428Y-83429571D01*
X102938428Y-83315285D01*
X102909857Y-83258142D01*
X102852714Y-83201000D01*
X102738428Y-83172428D01*
X102538428Y-83172428D01*
X102424142Y-83201000D01*
X102367000Y-83258142D01*
X102338428Y-83315285D01*
X103637000Y-81985142D02*
X103608428Y-81928000D01*
X103608428Y-81842285D01*
X103637000Y-81756571D01*
X103694142Y-81699428D01*
X103751285Y-81670857D01*
X103865571Y-81642285D01*
X103951285Y-81642285D01*
X104065571Y-81670857D01*
X104122714Y-81699428D01*
X104179857Y-81756571D01*
X104208428Y-81842285D01*
X104208428Y-81899428D01*
X104179857Y-81985142D01*
X104151285Y-82013714D01*
X103951285Y-82013714D01*
X103951285Y-81899428D01*
X104208428Y-82270857D02*
X103608428Y-82270857D01*
X103608428Y-82413714D01*
X103637000Y-82499428D01*
X103694142Y-82556571D01*
X103751285Y-82585142D01*
X103865571Y-82613714D01*
X103951285Y-82613714D01*
X104065571Y-82585142D01*
X104122714Y-82556571D01*
X104179857Y-82499428D01*
X104208428Y-82413714D01*
X104208428Y-82270857D01*
X103608428Y-82985142D02*
X103608428Y-83099428D01*
X103637000Y-83156571D01*
X103694142Y-83213714D01*
X103808428Y-83242285D01*
X104008428Y-83242285D01*
X104122714Y-83213714D01*
X104179857Y-83156571D01*
X104208428Y-83099428D01*
X104208428Y-82985142D01*
X104179857Y-82928000D01*
X104122714Y-82870857D01*
X104008428Y-82842285D01*
X103808428Y-82842285D01*
X103694142Y-82870857D01*
X103637000Y-82928000D01*
X103608428Y-82985142D01*
X103665571Y-83470857D02*
X103637000Y-83499428D01*
X103608428Y-83556571D01*
X103608428Y-83699428D01*
X103637000Y-83756571D01*
X103665571Y-83785142D01*
X103722714Y-83813714D01*
X103779857Y-83813714D01*
X103865571Y-83785142D01*
X104208428Y-83442285D01*
X104208428Y-83813714D01*
X104907000Y-82016857D02*
X104878428Y-81959714D01*
X104878428Y-81874000D01*
X104907000Y-81788285D01*
X104964142Y-81731142D01*
X105021285Y-81702571D01*
X105135571Y-81674000D01*
X105221285Y-81674000D01*
X105335571Y-81702571D01*
X105392714Y-81731142D01*
X105449857Y-81788285D01*
X105478428Y-81874000D01*
X105478428Y-81931142D01*
X105449857Y-82016857D01*
X105421285Y-82045428D01*
X105221285Y-82045428D01*
X105221285Y-81931142D01*
X105478428Y-82302571D02*
X104878428Y-82302571D01*
X105478428Y-82645428D01*
X104878428Y-82645428D01*
X105478428Y-82931142D02*
X104878428Y-82931142D01*
X104878428Y-83074000D01*
X104907000Y-83159714D01*
X104964142Y-83216857D01*
X105021285Y-83245428D01*
X105135571Y-83274000D01*
X105221285Y-83274000D01*
X105335571Y-83245428D01*
X105392714Y-83216857D01*
X105449857Y-83159714D01*
X105478428Y-83074000D01*
X105478428Y-82931142D01*
%TO.C,U1*%
D10*
X87985714Y-89476428D02*
X87985714Y-88876428D01*
X87842857Y-88876428D01*
X87757142Y-88905000D01*
X87700000Y-88962142D01*
X87671428Y-89019285D01*
X87642857Y-89133571D01*
X87642857Y-89219285D01*
X87671428Y-89333571D01*
X87700000Y-89390714D01*
X87757142Y-89447857D01*
X87842857Y-89476428D01*
X87985714Y-89476428D01*
X87471428Y-88876428D02*
X87128571Y-88876428D01*
X87300000Y-89476428D02*
X87300000Y-88876428D01*
X86585714Y-89476428D02*
X86785714Y-89190714D01*
X86928571Y-89476428D02*
X86928571Y-88876428D01*
X86700000Y-88876428D01*
X86642857Y-88905000D01*
X86614285Y-88933571D01*
X86585714Y-88990714D01*
X86585714Y-89076428D01*
X86614285Y-89133571D01*
X86642857Y-89162142D01*
X86700000Y-89190714D01*
X86928571Y-89190714D01*
X88057142Y-86971428D02*
X87714285Y-86971428D01*
X87885714Y-87571428D02*
X87885714Y-86971428D01*
X87571428Y-86971428D02*
X87171428Y-87571428D01*
X87171428Y-86971428D02*
X87571428Y-87571428D01*
X86942857Y-87571428D02*
X86942857Y-86971428D01*
X86800000Y-86971428D01*
X86714285Y-87000000D01*
X86657142Y-87057142D01*
X86628571Y-87114285D01*
X86600000Y-87228571D01*
X86600000Y-87314285D01*
X86628571Y-87428571D01*
X86657142Y-87485714D01*
X86714285Y-87542857D01*
X86800000Y-87571428D01*
X86942857Y-87571428D01*
X87542857Y-85031428D02*
X87742857Y-84745714D01*
X87885714Y-85031428D02*
X87885714Y-84431428D01*
X87657142Y-84431428D01*
X87600000Y-84460000D01*
X87571428Y-84488571D01*
X87542857Y-84545714D01*
X87542857Y-84631428D01*
X87571428Y-84688571D01*
X87600000Y-84717142D01*
X87657142Y-84745714D01*
X87885714Y-84745714D01*
X87342857Y-84431428D02*
X86942857Y-85031428D01*
X86942857Y-84431428D02*
X87342857Y-85031428D01*
X86714285Y-85031428D02*
X86714285Y-84431428D01*
X88100000Y-81891428D02*
X87900000Y-82491428D01*
X87700000Y-81891428D01*
X87157142Y-82434285D02*
X87185714Y-82462857D01*
X87271428Y-82491428D01*
X87328571Y-82491428D01*
X87414285Y-82462857D01*
X87471428Y-82405714D01*
X87500000Y-82348571D01*
X87528571Y-82234285D01*
X87528571Y-82148571D01*
X87500000Y-82034285D01*
X87471428Y-81977142D01*
X87414285Y-81920000D01*
X87328571Y-81891428D01*
X87271428Y-81891428D01*
X87185714Y-81920000D01*
X87157142Y-81948571D01*
X86557142Y-82434285D02*
X86585714Y-82462857D01*
X86671428Y-82491428D01*
X86728571Y-82491428D01*
X86814285Y-82462857D01*
X86871428Y-82405714D01*
X86900000Y-82348571D01*
X86928571Y-82234285D01*
X86928571Y-82148571D01*
X86900000Y-82034285D01*
X86871428Y-81977142D01*
X86814285Y-81920000D01*
X86728571Y-81891428D01*
X86671428Y-81891428D01*
X86585714Y-81920000D01*
X86557142Y-81948571D01*
X87757142Y-79380000D02*
X87814285Y-79351428D01*
X87900000Y-79351428D01*
X87985714Y-79380000D01*
X88042857Y-79437142D01*
X88071428Y-79494285D01*
X88100000Y-79608571D01*
X88100000Y-79694285D01*
X88071428Y-79808571D01*
X88042857Y-79865714D01*
X87985714Y-79922857D01*
X87900000Y-79951428D01*
X87842857Y-79951428D01*
X87757142Y-79922857D01*
X87728571Y-79894285D01*
X87728571Y-79694285D01*
X87842857Y-79694285D01*
X87471428Y-79951428D02*
X87471428Y-79351428D01*
X87128571Y-79951428D01*
X87128571Y-79351428D01*
X86842857Y-79951428D02*
X86842857Y-79351428D01*
X86700000Y-79351428D01*
X86614285Y-79380000D01*
X86557142Y-79437142D01*
X86528571Y-79494285D01*
X86500000Y-79608571D01*
X86500000Y-79694285D01*
X86528571Y-79808571D01*
X86557142Y-79865714D01*
X86614285Y-79922857D01*
X86700000Y-79951428D01*
X86842857Y-79951428D01*
X87757142Y-77475000D02*
X87814285Y-77446428D01*
X87900000Y-77446428D01*
X87985714Y-77475000D01*
X88042857Y-77532142D01*
X88071428Y-77589285D01*
X88100000Y-77703571D01*
X88100000Y-77789285D01*
X88071428Y-77903571D01*
X88042857Y-77960714D01*
X87985714Y-78017857D01*
X87900000Y-78046428D01*
X87842857Y-78046428D01*
X87757142Y-78017857D01*
X87728571Y-77989285D01*
X87728571Y-77789285D01*
X87842857Y-77789285D01*
X87471428Y-78046428D02*
X87471428Y-77446428D01*
X87128571Y-78046428D01*
X87128571Y-77446428D01*
X86842857Y-78046428D02*
X86842857Y-77446428D01*
X86700000Y-77446428D01*
X86614285Y-77475000D01*
X86557142Y-77532142D01*
X86528571Y-77589285D01*
X86500000Y-77703571D01*
X86500000Y-77789285D01*
X86528571Y-77903571D01*
X86557142Y-77960714D01*
X86614285Y-78017857D01*
X86700000Y-78046428D01*
X86842857Y-78046428D01*
%TO.C,R1*%
X114563666Y-110181380D02*
X114897000Y-109705190D01*
X115135095Y-110181380D02*
X115135095Y-109181380D01*
X114754142Y-109181380D01*
X114658904Y-109229000D01*
X114611285Y-109276619D01*
X114563666Y-109371857D01*
X114563666Y-109514714D01*
X114611285Y-109609952D01*
X114658904Y-109657571D01*
X114754142Y-109705190D01*
X115135095Y-109705190D01*
X113611285Y-110181380D02*
X114182714Y-110181380D01*
X113897000Y-110181380D02*
X113897000Y-109181380D01*
X113992238Y-109324238D01*
X114087476Y-109419476D01*
X114182714Y-109467095D01*
%TO.C,R2*%
X105927666Y-110181380D02*
X106261000Y-109705190D01*
X106499095Y-110181380D02*
X106499095Y-109181380D01*
X106118142Y-109181380D01*
X106022904Y-109229000D01*
X105975285Y-109276619D01*
X105927666Y-109371857D01*
X105927666Y-109514714D01*
X105975285Y-109609952D01*
X106022904Y-109657571D01*
X106118142Y-109705190D01*
X106499095Y-109705190D01*
X105546714Y-109276619D02*
X105499095Y-109229000D01*
X105403857Y-109181380D01*
X105165761Y-109181380D01*
X105070523Y-109229000D01*
X105022904Y-109276619D01*
X104975285Y-109371857D01*
X104975285Y-109467095D01*
X105022904Y-109609952D01*
X105594333Y-110181380D01*
X104975285Y-110181380D01*
%TO.C,R3*%
X88909666Y-95703380D02*
X89243000Y-95227190D01*
X89481095Y-95703380D02*
X89481095Y-94703380D01*
X89100142Y-94703380D01*
X89004904Y-94751000D01*
X88957285Y-94798619D01*
X88909666Y-94893857D01*
X88909666Y-95036714D01*
X88957285Y-95131952D01*
X89004904Y-95179571D01*
X89100142Y-95227190D01*
X89481095Y-95227190D01*
X88576333Y-94703380D02*
X87957285Y-94703380D01*
X88290619Y-95084333D01*
X88147761Y-95084333D01*
X88052523Y-95131952D01*
X88004904Y-95179571D01*
X87957285Y-95274809D01*
X87957285Y-95512904D01*
X88004904Y-95608142D01*
X88052523Y-95655761D01*
X88147761Y-95703380D01*
X88433476Y-95703380D01*
X88528714Y-95655761D01*
X88576333Y-95608142D01*
%TO.C,D2*%
X107261095Y-118143380D02*
X107261095Y-117143380D01*
X107023000Y-117143380D01*
X106880142Y-117191000D01*
X106784904Y-117286238D01*
X106737285Y-117381476D01*
X106689666Y-117571952D01*
X106689666Y-117714809D01*
X106737285Y-117905285D01*
X106784904Y-118000523D01*
X106880142Y-118095761D01*
X107023000Y-118143380D01*
X107261095Y-118143380D01*
X106308714Y-117238619D02*
X106261095Y-117191000D01*
X106165857Y-117143380D01*
X105927761Y-117143380D01*
X105832523Y-117191000D01*
X105784904Y-117238619D01*
X105737285Y-117333857D01*
X105737285Y-117429095D01*
X105784904Y-117571952D01*
X106356333Y-118143380D01*
X105737285Y-118143380D01*
X102974904Y-117823380D02*
X102974904Y-116823380D01*
X102403476Y-117823380D02*
X102832047Y-117251952D01*
X102403476Y-116823380D02*
X102974904Y-117394809D01*
%TD*%
M02*
