M48
;DRILL file {KiCad (5.0.1)-4} date 28.03.2019 09:30:18
;FORMAT={-:-/ absolute / metric / decimal}
FMAT,2
METRIC,TZ
T1C0.400
T2C0.600
T3C0.750
T4C0.800
T5C0.900
T6C1.000
T7C1.200
T8C1.300
%
G90
G05
M71
T1
X85.695Y-104.395
X85.695Y-105.665
X89.251Y-104.395
X89.251Y-105.665
X105.507Y-123.699
X105.761Y-110.745
X105.761Y-117.857
X107.031Y-80.315
X107.031Y-84.075
X108.555Y-97.791
X108.809Y-123.699
X109.063Y-78.741
X109.571Y-98.807
X111.095Y-95.251
X111.603Y-81.281
X112.111Y-96.267
T2
X90.8Y-119.9
X95.8Y-122.4
X96.285Y-80.315
X97.555Y-80.315
X98.825Y-80.315
X100.095Y-80.315
X101.365Y-80.315
X102.635Y-80.315
X103.695Y-96.775
X103.905Y-80.315
X105.175Y-80.315
T3
X107.285Y-121.159
X108.555Y-121.159
X109.825Y-121.159
X98.395Y-113.539
X98.395Y-114.809
X98.395Y-116.079
T4
X91.283Y-94.489
X91.283Y-104.649
X80.187Y-109.475
X85.187Y-109.475
X108.301Y-100.331
X108.301Y-110.491
X111.857Y-100.331
X111.857Y-110.491
X102.713Y-115.571
X110.333Y-115.571
X116.937Y-113.285
X119.437Y-113.285
X102.713Y-119.635
X102.713Y-122.135
T6
X82.891Y-121.413
X82.901Y-116.333
X89.84Y-75.87
X94.92Y-75.87
X94.92Y-91.11
X97.46Y-91.11
X102.54Y-91.11
X105.08Y-91.11
X107.62Y-75.87
X110.16Y-75.87
X112.7Y-75.87
X112.7Y-91.11
X115.24Y-75.87
T7
X79.091Y-126.239
X79.091Y-141.239
X109.571Y-131.239
X109.571Y-136.239
X96.111Y-100.934
X103.889Y-100.934
T8
X113.635Y-120.905
X113.635Y-131.065
X113.635Y-138.685
X121.255Y-120.905
X121.255Y-131.065
X121.255Y-138.685
T5
X114.4Y-149.85G85X114.4Y-152.95
G05
X114.4Y-149.85G85X114.4Y-152.95
G05
X119.3Y-149.85G85X119.3Y-152.95
G05
X119.3Y-149.85G85X119.3Y-152.95
G05
X85.6Y-149.85G85X85.6Y-152.95
G05
X85.6Y-149.85G85X85.6Y-152.95
G05
T0
M30
