%TF.GenerationSoftware,KiCad,Pcbnew,(5.0.1)-4*%
%TF.CreationDate,2020-03-09T19:56:50+01:00*%
%TF.ProjectId,Funk-Schaltsteckdose,46756E6B2D536368616C74737465636B,rev?*%
%TF.SameCoordinates,Original*%
%TF.FileFunction,Paste,Top*%
%TF.FilePolarity,Positive*%
%FSLAX46Y46*%
G04 Gerber Fmt 4.6, Leading zero omitted, Abs format (unit mm)*
G04 Created by KiCad (PCBNEW (5.0.1)-4) date 09.03.2020 19:56:50*
%MOMM*%
%LPD*%
G01*
G04 APERTURE LIST*
%ADD10C,0.150000*%
%ADD11C,0.200000*%
G04 APERTURE END LIST*
D10*
X113419000Y-73407000D02*
G75*
G03X113419000Y-73407000I-800000J0D01*
G01*
X88273000Y-73407000D02*
G75*
G03X88273000Y-73407000I-800000J0D01*
G01*
X82447000Y-91949000D02*
G75*
G03X82447000Y-91949000I-800000J0D01*
G01*
X119023000Y-91949000D02*
G75*
G03X119023000Y-91949000I-800000J0D01*
G01*
X107015000Y-96775000D02*
G75*
G03X107015000Y-96775000I-1000000J0D01*
G01*
D11*
X82150901Y-75467983D02*
G75*
G02X84065149Y-73283707I2931366J-638041D01*
G01*
X81000000Y-95000000D02*
G75*
G02X81000000Y-105000000I0J-5000000D01*
G01*
X80196658Y-75042623D02*
G75*
G02X83387070Y-71402163I4885609J-1063401D01*
G01*
X115068543Y-155000001D02*
G75*
G02X113820194Y-154461510I0J1716230D01*
G01*
X122685153Y-103000000D02*
G75*
G02X124393757Y-104554632I0J-1716229D01*
G01*
X74506558Y-129807258D02*
G75*
G02X76506506Y-129792742I999974J7258D01*
G01*
X101762500Y-70533059D02*
G75*
G02X115934851Y-73283707I-1762500J-46966941D01*
G01*
X101837500Y-68534465D02*
G75*
G02X116612930Y-71402163I-1837500J-48965535D01*
G01*
X76506506Y-126207258D02*
G75*
G02X77573182Y-105000000I246993494J-1792742D01*
G01*
X78390001Y-97000000D02*
X81000000Y-97000000D01*
X125493442Y-126192742D02*
G75*
G02X123493494Y-126207258I-999974J-7258D01*
G01*
X76506505Y-126207258D02*
G75*
G02X74506559Y-126192742I-999973J7258D01*
G01*
X75606243Y-104554632D02*
G75*
G02X77314847Y-103000000I1708604J-161597D01*
G01*
X83387070Y-71402163D02*
G75*
G02X98162500Y-68534465I16612930J-46097837D01*
G01*
X97500000Y-145000000D02*
G75*
G02X98500000Y-144000000I1000000J0D01*
G01*
X123493494Y-129792742D02*
G75*
G02X122231561Y-153000000I-246993494J1792742D01*
G01*
X75804972Y-153459248D02*
G75*
G02X74506559Y-129807258I247695028J25459248D01*
G01*
X81000000Y-95000000D02*
X78714380Y-95000000D01*
X122426818Y-105000000D02*
G75*
G02X123493494Y-126207258I-245926818J-23000000D01*
G01*
X119803342Y-75042623D02*
G75*
G02X123311142Y-95056710I-243303342J-52957377D01*
G01*
X98162500Y-68534465D02*
G75*
G02X98237500Y-70533059I37500J-999297D01*
G01*
X81000000Y-97000000D02*
G75*
G02X81000000Y-103000000I0J-3000000D01*
G01*
X76688858Y-95056710D02*
G75*
G02X80196658Y-75042623I246811142J-32943290D01*
G01*
X125493442Y-129807258D02*
G75*
G02X124195028Y-153459249I-248993442J1807258D01*
G01*
X101762500Y-70533059D02*
G75*
G02X101837500Y-68534465I37500J999297D01*
G01*
X77512207Y-155000001D02*
G75*
G02X75804972Y-153459249I0J1716230D01*
G01*
X102500000Y-146649341D02*
G75*
G02X115190458Y-153000000I-2500000J-20850659D01*
G01*
X124195027Y-153459249D02*
G75*
G02X122487793Y-155000000I-1707234J175478D01*
G01*
X116612930Y-71402163D02*
G75*
G02X119803342Y-75042623I-1695197J-4703861D01*
G01*
X86179806Y-154461510D02*
G75*
G02X113820194Y-154461510I13820194J-13038490D01*
G01*
X119000000Y-103000000D02*
G75*
G02X119000000Y-97000000I0J3000000D01*
G01*
X124393757Y-104554632D02*
G75*
G02X125493441Y-126192742I-247893757J-23445368D01*
G01*
X123311141Y-95056710D02*
G75*
G02X121609999Y-97000000I-1701142J-227061D01*
G01*
X115934851Y-73283707D02*
G75*
G02X117849098Y-75467983I-1017118J-2822317D01*
G01*
X74506559Y-126192742D02*
G75*
G02X75606243Y-104554632I248993441J-1807258D01*
G01*
X123493495Y-129792742D02*
G75*
G02X125493441Y-129807258I999973J-7258D01*
G01*
X78390001Y-97000001D02*
G75*
G02X76688858Y-95056710I0J1716230D01*
G01*
X81000000Y-103000000D02*
X77314847Y-103000000D01*
X78714380Y-95000000D02*
G75*
G02X82150902Y-75467983I244785620J-33000000D01*
G01*
X101500000Y-144000000D02*
G75*
G02X102500000Y-145000000I0J-1000000D01*
G01*
X84809542Y-153000000D02*
G75*
G02X97500000Y-146649341I15190458J-14500000D01*
G01*
X86179805Y-154461510D02*
G75*
G02X84931457Y-155000000I-1248348J1177739D01*
G01*
X84065149Y-73283707D02*
G75*
G02X98237500Y-70533059I15934851J-44216293D01*
G01*
X119000000Y-105000000D02*
G75*
G02X119000000Y-95000000I0J5000000D01*
G01*
X77573182Y-105000000D02*
X81000000Y-105000000D01*
X117849098Y-75467983D02*
G75*
G02X121285620Y-95000000I-241349098J-52532017D01*
G01*
X77768439Y-153000000D02*
G75*
G02X76506506Y-129792742I245731561J25000000D01*
G01*
X97500000Y-145000000D02*
X97500000Y-146649341D01*
X101500000Y-144000000D02*
X98500000Y-144000000D01*
X102500000Y-146649341D02*
X102500000Y-145000000D01*
X119000000Y-97000000D02*
X121609999Y-97000000D01*
X69500000Y-63500000D02*
X69500000Y-160000000D01*
X69500000Y-160000000D02*
X130500000Y-160000000D01*
X76000000Y-128000000D02*
G75*
G03X76000000Y-128000000I-500000J0D01*
G01*
X77512207Y-155000000D02*
X84931457Y-155000000D01*
X119000000Y-105000000D02*
X122426818Y-105000000D01*
X122231561Y-153000000D02*
X115190458Y-153000000D01*
X115068543Y-155000000D02*
X122487793Y-155000000D01*
X84809542Y-153000000D02*
X77768439Y-153000000D01*
X130500000Y-160000000D02*
X130500000Y-63500000D01*
X121285620Y-95000000D02*
X119000000Y-95000000D01*
X122685153Y-103000000D02*
X119000000Y-103000000D01*
X130500000Y-63500000D02*
X69500000Y-63500000D01*
X125000000Y-128000000D02*
G75*
G03X125000000Y-128000000I-500000J0D01*
G01*
X100500000Y-69500000D02*
G75*
G03X100500000Y-69500000I-500000J0D01*
G01*
D10*
X83490000Y-76505000D02*
G75*
G02X86030000Y-76505000I1270000J0D01*
G01*
X86030000Y-90475000D02*
G75*
G02X83490000Y-90475000I-1270000J0D01*
G01*
X86030000Y-90475000D02*
X86030000Y-76505000D01*
X83490000Y-76505000D02*
X83490000Y-90475000D01*
M02*
