M48
;DRILL file {KiCad (5.0.1)-4} date 09.03.2020 19:56:55
;FORMAT={-:-/ absolute / metric / decimal}
FMAT,2
METRIC,TZ
T1C0.400
T2C0.600
T3C0.750
T4C0.800
T5C0.900
T6C1.000
T7C1.200
T8C1.300
%
G90
G05
M71
T1
X80.3Y-111.9
X83.3Y-130.9
X84.575Y-148.985
X84.585Y-152.885
X85.695Y-104.395
X85.695Y-105.665
X86.555Y-148.955
X86.575Y-152.865
X89.251Y-104.395
X89.251Y-105.665
X105.507Y-123.699
X105.761Y-110.745
X105.761Y-117.857
X107.031Y-80.315
X107.031Y-84.075
X108.555Y-97.791
X108.809Y-123.699
X109.063Y-78.741
X109.571Y-98.807
X111.095Y-95.251
X111.603Y-81.281
X112.111Y-96.267
X113.375Y-148.855
X113.375Y-152.885
X113.655Y-133.935
X113.655Y-135.735
X115.415Y-152.925
X115.435Y-148.855
X116.645Y-131.115
X117.815Y-131.095
X118.245Y-152.995
X118.375Y-148.885
X120.255Y-148.865
X120.315Y-152.985
X121.255Y-133.985
X121.255Y-135.685
T2
X96.285Y-80.315
X97.555Y-80.315
X98.825Y-80.315
X100.095Y-80.315
X101.365Y-80.315
X102.635Y-80.315
X103.695Y-96.775
X103.905Y-80.315
X105.175Y-80.315
X90.8Y-119.4
X95.8Y-121.9
T3
X98.395Y-113.539
X98.395Y-114.809
X98.395Y-116.079
X107.285Y-121.159
X108.555Y-121.159
X109.825Y-121.159
T4
X91.283Y-94.489
X91.283Y-104.649
X111.857Y-100.331
X111.857Y-110.491
X116.937Y-113.285
X119.437Y-113.285
X80.187Y-109.475
X85.187Y-109.475
X108.301Y-100.331
X108.301Y-110.491
X102.713Y-115.571
X110.333Y-115.571
X102.713Y-119.635
X102.713Y-122.135
T6
X82.79Y-120.98
X82.8Y-115.9
X89.84Y-75.87
X94.92Y-75.87
X94.92Y-91.11
X97.46Y-91.11
X102.54Y-91.11
X105.08Y-91.11
X107.62Y-75.87
X110.16Y-75.87
X112.7Y-75.87
X112.7Y-91.11
X115.24Y-75.87
T7
X96.111Y-100.934
X103.889Y-100.934
X79.4Y-126.2
X79.4Y-141.6
X108.8Y-131.4
X108.8Y-136.4
T8
X113.635Y-120.905
X113.635Y-131.065
X113.635Y-138.685
X121.255Y-120.905
X121.255Y-131.065
X121.255Y-138.685
T5
X114.4Y-149.85G85X114.4Y-152.95
G05
X114.4Y-149.85G85X114.4Y-152.95
G05
X85.6Y-149.85G85X85.6Y-152.95
G05
X85.6Y-149.85G85X85.6Y-152.95
G05
X119.3Y-149.85G85X119.3Y-152.95
G05
X119.3Y-149.85G85X119.3Y-152.95
G05
T0
M30
