%TF.GenerationSoftware,KiCad,Pcbnew,(5.0.1)-4*%
%TF.CreationDate,2020-03-09T19:56:50+01:00*%
%TF.ProjectId,Funk-Schaltsteckdose,46756E6B2D536368616C74737465636B,rev?*%
%TF.SameCoordinates,Original*%
%TF.FileFunction,Copper,L1,Top,Signal*%
%TF.FilePolarity,Positive*%
%FSLAX46Y46*%
G04 Gerber Fmt 4.6, Leading zero omitted, Abs format (unit mm)*
G04 Created by KiCad (PCBNEW (5.0.1)-4) date 09.03.2020 19:56:50*
%MOMM*%
%LPD*%
G01*
G04 APERTURE LIST*
%TA.AperFunction,NonConductor*%
%ADD10C,0.150000*%
%TD*%
%TA.AperFunction,NonConductor*%
%ADD11C,0.200000*%
%TD*%
%TA.AperFunction,ComponentPad*%
%ADD12C,2.500000*%
%TD*%
%TA.AperFunction,ComponentPad*%
%ADD13R,2.500000X2.500000*%
%TD*%
%TA.AperFunction,ComponentPad*%
%ADD14O,0.900000X1.524000*%
%TD*%
%TA.AperFunction,ComponentPad*%
%ADD15R,3.000000X5.000000*%
%TD*%
%TA.AperFunction,ComponentPad*%
%ADD16C,1.800000*%
%TD*%
%TA.AperFunction,ComponentPad*%
%ADD17C,1.600000*%
%TD*%
%TA.AperFunction,ComponentPad*%
%ADD18O,1.600000X1.600000*%
%TD*%
%TA.AperFunction,ComponentPad*%
%ADD19O,1.500000X1.050000*%
%TD*%
%TA.AperFunction,ComponentPad*%
%ADD20R,1.500000X1.050000*%
%TD*%
%TA.AperFunction,ComponentPad*%
%ADD21O,1.050000X1.500000*%
%TD*%
%TA.AperFunction,ComponentPad*%
%ADD22R,1.050000X1.500000*%
%TD*%
%TA.AperFunction,ComponentPad*%
%ADD23R,1.600000X1.600000*%
%TD*%
%TA.AperFunction,ConnectorPad*%
%ADD24C,2.000000*%
%TD*%
%TA.AperFunction,ComponentPad*%
%ADD25C,2.000000*%
%TD*%
%TA.AperFunction,ViaPad*%
%ADD26C,0.800000*%
%TD*%
%TA.AperFunction,Conductor*%
%ADD27C,3.000000*%
%TD*%
%TA.AperFunction,Conductor*%
%ADD28C,1.500000*%
%TD*%
%TA.AperFunction,Conductor*%
%ADD29C,1.000000*%
%TD*%
%TA.AperFunction,Conductor*%
%ADD30C,0.250000*%
%TD*%
%TA.AperFunction,Conductor*%
%ADD31C,0.500000*%
%TD*%
G04 APERTURE END LIST*
D10*
X113419000Y-73407000D02*
G75*
G03X113419000Y-73407000I-800000J0D01*
G01*
X88273000Y-73407000D02*
G75*
G03X88273000Y-73407000I-800000J0D01*
G01*
X82447000Y-91949000D02*
G75*
G03X82447000Y-91949000I-800000J0D01*
G01*
X119023000Y-91949000D02*
G75*
G03X119023000Y-91949000I-800000J0D01*
G01*
X107015000Y-96775000D02*
G75*
G03X107015000Y-96775000I-1000000J0D01*
G01*
D11*
X82150901Y-75467983D02*
G75*
G02X84065149Y-73283707I2931366J-638041D01*
G01*
X81000000Y-95000000D02*
G75*
G02X81000000Y-105000000I0J-5000000D01*
G01*
X80196658Y-75042623D02*
G75*
G02X83387070Y-71402163I4885609J-1063401D01*
G01*
X115068543Y-155000001D02*
G75*
G02X113820194Y-154461510I0J1716230D01*
G01*
X122685153Y-103000000D02*
G75*
G02X124393757Y-104554632I0J-1716229D01*
G01*
X74506558Y-129807258D02*
G75*
G02X76506506Y-129792742I999974J7258D01*
G01*
X101762500Y-70533059D02*
G75*
G02X115934851Y-73283707I-1762500J-46966941D01*
G01*
X101837500Y-68534465D02*
G75*
G02X116612930Y-71402163I-1837500J-48965535D01*
G01*
X76506506Y-126207258D02*
G75*
G02X77573182Y-105000000I246993494J-1792742D01*
G01*
X78390001Y-97000000D02*
X81000000Y-97000000D01*
X125493442Y-126192742D02*
G75*
G02X123493494Y-126207258I-999974J-7258D01*
G01*
X76506505Y-126207258D02*
G75*
G02X74506559Y-126192742I-999973J7258D01*
G01*
X75606243Y-104554632D02*
G75*
G02X77314847Y-103000000I1708604J-161597D01*
G01*
X83387070Y-71402163D02*
G75*
G02X98162500Y-68534465I16612930J-46097837D01*
G01*
X97500000Y-145000000D02*
G75*
G02X98500000Y-144000000I1000000J0D01*
G01*
X123493494Y-129792742D02*
G75*
G02X122231561Y-153000000I-246993494J1792742D01*
G01*
X75804972Y-153459248D02*
G75*
G02X74506559Y-129807258I247695028J25459248D01*
G01*
X81000000Y-95000000D02*
X78714380Y-95000000D01*
X122426818Y-105000000D02*
G75*
G02X123493494Y-126207258I-245926818J-23000000D01*
G01*
X119803342Y-75042623D02*
G75*
G02X123311142Y-95056710I-243303342J-52957377D01*
G01*
X98162500Y-68534465D02*
G75*
G02X98237500Y-70533059I37500J-999297D01*
G01*
X81000000Y-97000000D02*
G75*
G02X81000000Y-103000000I0J-3000000D01*
G01*
X76688858Y-95056710D02*
G75*
G02X80196658Y-75042623I246811142J-32943290D01*
G01*
X125493442Y-129807258D02*
G75*
G02X124195028Y-153459249I-248993442J1807258D01*
G01*
X101762500Y-70533059D02*
G75*
G02X101837500Y-68534465I37500J999297D01*
G01*
X77512207Y-155000001D02*
G75*
G02X75804972Y-153459249I0J1716230D01*
G01*
X102500000Y-146649341D02*
G75*
G02X115190458Y-153000000I-2500000J-20850659D01*
G01*
X124195027Y-153459249D02*
G75*
G02X122487793Y-155000000I-1707234J175478D01*
G01*
X116612930Y-71402163D02*
G75*
G02X119803342Y-75042623I-1695197J-4703861D01*
G01*
X86179806Y-154461510D02*
G75*
G02X113820194Y-154461510I13820194J-13038490D01*
G01*
X119000000Y-103000000D02*
G75*
G02X119000000Y-97000000I0J3000000D01*
G01*
X124393757Y-104554632D02*
G75*
G02X125493441Y-126192742I-247893757J-23445368D01*
G01*
X123311141Y-95056710D02*
G75*
G02X121609999Y-97000000I-1701142J-227061D01*
G01*
X115934851Y-73283707D02*
G75*
G02X117849098Y-75467983I-1017118J-2822317D01*
G01*
X74506559Y-126192742D02*
G75*
G02X75606243Y-104554632I248993441J-1807258D01*
G01*
X123493495Y-129792742D02*
G75*
G02X125493441Y-129807258I999973J-7258D01*
G01*
X78390001Y-97000001D02*
G75*
G02X76688858Y-95056710I0J1716230D01*
G01*
X81000000Y-103000000D02*
X77314847Y-103000000D01*
X78714380Y-95000000D02*
G75*
G02X82150902Y-75467983I244785620J-33000000D01*
G01*
X101500000Y-144000000D02*
G75*
G02X102500000Y-145000000I0J-1000000D01*
G01*
X84809542Y-153000000D02*
G75*
G02X97500000Y-146649341I15190458J-14500000D01*
G01*
X86179805Y-154461510D02*
G75*
G02X84931457Y-155000000I-1248348J1177739D01*
G01*
X84065149Y-73283707D02*
G75*
G02X98237500Y-70533059I15934851J-44216293D01*
G01*
X119000000Y-105000000D02*
G75*
G02X119000000Y-95000000I0J5000000D01*
G01*
X77573182Y-105000000D02*
X81000000Y-105000000D01*
X117849098Y-75467983D02*
G75*
G02X121285620Y-95000000I-241349098J-52532017D01*
G01*
X77768439Y-153000000D02*
G75*
G02X76506506Y-129792742I245731561J25000000D01*
G01*
X97500000Y-145000000D02*
X97500000Y-146649341D01*
X101500000Y-144000000D02*
X98500000Y-144000000D01*
X102500000Y-146649341D02*
X102500000Y-145000000D01*
X119000000Y-97000000D02*
X121609999Y-97000000D01*
X69500000Y-63500000D02*
X69500000Y-160000000D01*
X69500000Y-160000000D02*
X130500000Y-160000000D01*
X76000000Y-128000000D02*
G75*
G03X76000000Y-128000000I-500000J0D01*
G01*
X77512207Y-155000000D02*
X84931457Y-155000000D01*
X119000000Y-105000000D02*
X122426818Y-105000000D01*
X122231561Y-153000000D02*
X115190458Y-153000000D01*
X115068543Y-155000000D02*
X122487793Y-155000000D01*
X84809542Y-153000000D02*
X77768439Y-153000000D01*
X130500000Y-160000000D02*
X130500000Y-63500000D01*
X121285620Y-95000000D02*
X119000000Y-95000000D01*
X122685153Y-103000000D02*
X119000000Y-103000000D01*
X130500000Y-63500000D02*
X69500000Y-63500000D01*
X125000000Y-128000000D02*
G75*
G03X125000000Y-128000000I-500000J0D01*
G01*
X100500000Y-69500000D02*
G75*
G03X100500000Y-69500000I-500000J0D01*
G01*
D10*
X83490000Y-76505000D02*
G75*
G02X86030000Y-76505000I1270000J0D01*
G01*
X86030000Y-90475000D02*
G75*
G02X83490000Y-90475000I-1270000J0D01*
G01*
X86030000Y-90475000D02*
X86030000Y-76505000D01*
X83490000Y-76505000D02*
X83490000Y-90475000D01*
D12*
%TO.P,K1,8*%
%TO.N,Net-(C2-Pad1)*%
X121255000Y-120905000D03*
%TO.P,K1,6*%
%TO.N,Net-(F1-Pad2)*%
X121255000Y-131065000D03*
%TO.P,K1,5*%
%TO.N,Net-(J2-Pad1)*%
X121255000Y-138685000D03*
%TO.P,K1,4*%
X113635000Y-138685000D03*
%TO.P,K1,3*%
%TO.N,Net-(F1-Pad2)*%
X113635000Y-131065000D03*
D13*
%TO.P,K1,1*%
%TO.N,Net-(D2-Pad2)*%
X113635000Y-120905000D03*
%TD*%
D12*
%TO.P,PS1,7*%
%TO.N,Net-(C2-Pad1)*%
X79400000Y-126200000D03*
%TO.P,PS1,10*%
%TO.N,GND*%
X79400000Y-141600000D03*
%TO.P,PS1,17*%
%TO.N,Net-(J3-Pad1)*%
X108800000Y-136400000D03*
%TO.P,PS1,18*%
%TO.N,Net-(F1-Pad1)*%
X108800000Y-131400000D03*
%TD*%
D14*
%TO.P,U4,8*%
%TO.N,GND*%
X105175000Y-80315000D03*
%TO.P,U4,7*%
%TO.N,Net-(U4-Pad7)*%
X103905000Y-80315000D03*
%TO.P,U4,6*%
%TO.N,/MISO*%
X102635000Y-80315000D03*
%TO.P,U4,5*%
%TO.N,/MOSI*%
X101365000Y-80315000D03*
%TO.P,U4,4*%
%TO.N,/SCK*%
X100095000Y-80315000D03*
%TO.P,U4,3*%
%TO.N,/SS*%
X98825000Y-80315000D03*
%TO.P,U4,2*%
%TO.N,/D2*%
X97555000Y-80315000D03*
%TO.P,U4,1*%
%TO.N,+3V3*%
X96285000Y-80315000D03*
%TO.P,U4,10*%
%TO.N,GND*%
X103695000Y-96775000D03*
%TD*%
D15*
%TO.P,J3,1*%
%TO.N,Net-(J3-Pad1)*%
X85600000Y-150900000D03*
%TD*%
%TO.P,J2,1*%
%TO.N,Net-(J2-Pad1)*%
X114400000Y-150900000D03*
%TD*%
%TO.P,J1,1*%
%TO.N,Net-(F1-Pad2)*%
X119300000Y-150900000D03*
%TD*%
D16*
%TO.P,U1,8*%
%TO.N,Net-(SW1-Pad1)*%
X112700000Y-91110000D03*
%TO.P,U1,5*%
%TO.N,Net-(R1-Pad1)*%
X105080000Y-91110000D03*
%TO.P,U1,4*%
%TO.N,Net-(R2-Pad2)*%
X102540000Y-91110000D03*
%TO.P,U1,2*%
%TO.N,/D2*%
X97460000Y-91110000D03*
%TO.P,U1,GND*%
%TO.N,GND*%
X94920000Y-91110000D03*
X89840000Y-75870000D03*
%TO.P,U1,VCC*%
%TO.N,+3V3*%
X94920000Y-75870000D03*
%TO.P,U1,13*%
%TO.N,/SCK*%
X107620000Y-75870000D03*
%TO.P,U1,12*%
%TO.N,/MISO*%
X110160000Y-75870000D03*
%TO.P,U1,11*%
%TO.N,/MOSI*%
X112700000Y-75870000D03*
%TO.P,U1,10*%
%TO.N,/SS*%
X115240000Y-75870000D03*
%TD*%
D17*
%TO.P,R1,1*%
%TO.N,Net-(R1-Pad1)*%
X111857000Y-100331000D03*
D18*
%TO.P,R1,2*%
%TO.N,Net-(Q1-Pad2)*%
X111857000Y-110491000D03*
%TD*%
%TO.P,R2,2*%
%TO.N,Net-(R2-Pad2)*%
X108301000Y-100331000D03*
D17*
%TO.P,R2,1*%
%TO.N,Net-(D1-Pad3)*%
X108301000Y-110491000D03*
%TD*%
%TO.P,R3,1*%
%TO.N,Net-(D1-Pad1)*%
X91283000Y-104649000D03*
D18*
%TO.P,R3,2*%
%TO.N,Net-(R1-Pad1)*%
X91283000Y-94489000D03*
%TD*%
D19*
%TO.P,U2,2*%
%TO.N,GND*%
X98395000Y-114809000D03*
%TO.P,U2,3*%
%TO.N,Net-(C2-Pad1)*%
X98395000Y-116079000D03*
D20*
%TO.P,U2,1*%
%TO.N,+3V3*%
X98395000Y-113539000D03*
%TD*%
D21*
%TO.P,Q1,2*%
%TO.N,Net-(Q1-Pad2)*%
X108555000Y-121159000D03*
%TO.P,Q1,3*%
%TO.N,GND*%
X109825000Y-121159000D03*
D22*
%TO.P,Q1,1*%
%TO.N,Net-(D2-Pad2)*%
X107285000Y-121159000D03*
%TD*%
D23*
%TO.P,C2,1*%
%TO.N,Net-(C2-Pad1)*%
X102713000Y-119635000D03*
D17*
%TO.P,C2,2*%
%TO.N,GND*%
X102713000Y-122135000D03*
%TD*%
D23*
%TO.P,C1,1*%
%TO.N,+3V3*%
X116937000Y-113285000D03*
D17*
%TO.P,C1,2*%
%TO.N,GND*%
X119437000Y-113285000D03*
%TD*%
%TO.P,C3,1*%
%TO.N,+3V3*%
X85187000Y-109475000D03*
%TO.P,C3,2*%
%TO.N,GND*%
X80187000Y-109475000D03*
%TD*%
D24*
%TO.P,SW1,2*%
%TO.N,GND*%
X103464102Y-102000000D03*
X96535898Y-102000000D03*
D25*
X96110520Y-100933781D03*
X103889480Y-100933781D03*
D24*
X100000000Y-96000000D03*
%TO.P,SW1,1*%
%TO.N,Net-(SW1-Pad1)*%
X100000000Y-100000000D03*
%TD*%
D23*
%TO.P,D2,1*%
%TO.N,Net-(C2-Pad1)*%
X102713000Y-115571000D03*
D18*
%TO.P,D2,2*%
%TO.N,Net-(D2-Pad2)*%
X110333000Y-115571000D03*
%TD*%
D25*
%TO.P,F1,1*%
%TO.N,Net-(F1-Pad1)*%
X82800000Y-115900000D03*
%TO.P,F1,2*%
%TO.N,Net-(F1-Pad2)*%
X82790000Y-120980000D03*
%TD*%
D17*
%TO.P,RV1,1*%
%TO.N,Net-(F1-Pad1)*%
X90800000Y-119400000D03*
%TO.P,RV1,2*%
%TO.N,Net-(J3-Pad1)*%
X95800000Y-121900000D03*
%TD*%
D26*
%TO.N,Net-(J3-Pad1)*%
X84575000Y-148985000D03*
X86555000Y-148955000D03*
X86575000Y-152865000D03*
X84585000Y-152885000D03*
%TO.N,Net-(J2-Pad1)*%
X115435000Y-148855000D03*
X115415000Y-152925000D03*
X113375000Y-152885000D03*
%TO.N,Net-(F1-Pad2)*%
X118245000Y-152995000D03*
X120315000Y-152985000D03*
X120255000Y-148865000D03*
X118375000Y-148885000D03*
%TO.N,Net-(J2-Pad1)*%
X113375000Y-148855000D03*
X113655000Y-133935000D03*
X121255000Y-133985000D03*
X121255000Y-135685000D03*
X113655000Y-135735000D03*
%TO.N,GND*%
X107031000Y-80315000D03*
X85695000Y-105665000D03*
X89251000Y-105665000D03*
X105761000Y-117857000D03*
X85695000Y-104395000D03*
X89251000Y-104395000D03*
X108555000Y-97791000D03*
X111095000Y-95251000D03*
X112111000Y-96267000D03*
X109571000Y-98807000D03*
X107031000Y-84075000D03*
X109063000Y-78741000D03*
X111603000Y-81281000D03*
X105761000Y-110745000D03*
X105507000Y-123699000D03*
X108809000Y-123699000D03*
X80300000Y-111900000D03*
X83300000Y-130900000D03*
%TO.N,Net-(F1-Pad2)*%
X116645000Y-131115000D03*
X117815000Y-131095000D03*
%TD*%
D27*
%TO.N,Net-(J2-Pad1)*%
X113635000Y-134875000D02*
X113655000Y-134875000D01*
D28*
X113635000Y-138685000D02*
X113635000Y-136835000D01*
X121255000Y-138685000D02*
X121255000Y-136135000D01*
D29*
X113635000Y-138685000D02*
X113635000Y-138715000D01*
D28*
X113635000Y-138715000D02*
X114405000Y-139485000D01*
D27*
X113655000Y-134875000D02*
X121255000Y-134875000D01*
D28*
X121255000Y-134885000D02*
X121255000Y-134875000D01*
X121255000Y-136135000D02*
X121255000Y-134885000D01*
D27*
X113655000Y-134875000D02*
X113655000Y-134875000D01*
D28*
X113635000Y-136835000D02*
X113635000Y-134875000D01*
X114400000Y-139450000D02*
X114400000Y-148150000D01*
D30*
%TO.N,GND*%
X96535898Y-102000000D02*
X96920000Y-102000000D01*
X96920000Y-102000000D02*
X97460000Y-102540000D01*
X96110520Y-101574622D02*
X96535898Y-102000000D01*
X96110520Y-100933781D02*
X96110520Y-101574622D01*
X103889480Y-101574622D02*
X103464102Y-102000000D01*
X103889480Y-100933781D02*
X103889480Y-101574622D01*
X96110520Y-100933781D02*
X96110520Y-97539480D01*
X97650000Y-96000000D02*
X100000000Y-96000000D01*
X96110520Y-97539480D02*
X97650000Y-96000000D01*
X85695000Y-104395000D02*
X89251000Y-104395000D01*
X111095000Y-95251000D02*
X108555000Y-97791000D01*
X112111000Y-96267000D02*
X109571000Y-98807000D01*
X107031000Y-80315000D02*
X107031000Y-84075000D01*
X109063000Y-78741000D02*
X111603000Y-81281000D01*
X105761000Y-117857000D02*
X105761000Y-112740010D01*
X105761000Y-110745000D02*
X105761000Y-112740010D01*
X88685315Y-105665000D02*
X85695000Y-105665000D01*
X89251000Y-105665000D02*
X88685315Y-105665000D01*
X105507000Y-123699000D02*
X108809000Y-123699000D01*
D31*
X83300000Y-126400000D02*
X83300000Y-130900000D01*
X79800000Y-122900000D02*
X83300000Y-126400000D01*
X80300000Y-111900000D02*
X79800000Y-112400000D01*
X79800000Y-112400000D02*
X79800000Y-122900000D01*
D29*
%TO.N,Net-(F1-Pad2)*%
X110470000Y-127900000D02*
X113635000Y-131065000D01*
X82790000Y-120980000D02*
X89710000Y-127900000D01*
X89710000Y-127900000D02*
X110470000Y-127900000D01*
D28*
X113635000Y-131065000D02*
X121255000Y-131065000D01*
D30*
%TO.N,Net-(SW1-Pad1)*%
X99989681Y-99983925D02*
X99945263Y-99983925D01*
X100000000Y-99994244D02*
X99989681Y-99983925D01*
X100000000Y-100000000D02*
X100000000Y-99994244D01*
X100520558Y-100746096D02*
X100442444Y-100850445D01*
X100841293Y-100346219D02*
X100831993Y-100476237D01*
X100957390Y-99950828D02*
X100841293Y-100346219D01*
X110160000Y-93650000D02*
X104445000Y-93650000D01*
X100894920Y-99836422D02*
X100957390Y-99950828D01*
X112700000Y-91110000D02*
X110160000Y-93650000D01*
X100831993Y-100476237D02*
X100520558Y-100746096D01*
X100664421Y-99378560D02*
X100778822Y-99441028D01*
X100778822Y-99441028D02*
X100894920Y-99836422D01*
X104445000Y-93650000D02*
X101905000Y-96190000D01*
X101905000Y-96190000D02*
X101905000Y-98095000D01*
X101905000Y-98095000D02*
X101905000Y-99387889D01*
X101905000Y-99387889D02*
X100442444Y-100850445D01*
X99815075Y-100940646D02*
X100442444Y-100850445D01*
X100442444Y-100850445D02*
X100034555Y-100909090D01*
X100034555Y-100909090D02*
X99912422Y-100954643D01*
X99912422Y-100954643D02*
X99710727Y-100862532D01*
X99710727Y-100862532D02*
X99815075Y-100940646D01*
%TO.N,Net-(Q1-Pad2)*%
X111857000Y-110491000D02*
X111857000Y-117349000D01*
X111857000Y-117349000D02*
X108555000Y-120651000D01*
X108555000Y-120651000D02*
X108555000Y-121667000D01*
%TD*%
M02*
