%TF.GenerationSoftware,KiCad,Pcbnew,(5.0.1)-4*%
%TF.CreationDate,2020-03-09T19:56:50+01:00*%
%TF.ProjectId,Funk-Schaltsteckdose,46756E6B2D536368616C74737465636B,rev?*%
%TF.SameCoordinates,Original*%
%TF.FileFunction,Soldermask,Bot*%
%TF.FilePolarity,Negative*%
%FSLAX46Y46*%
G04 Gerber Fmt 4.6, Leading zero omitted, Abs format (unit mm)*
G04 Created by KiCad (PCBNEW (5.0.1)-4) date 09.03.2020 19:56:50*
%MOMM*%
%LPD*%
G01*
G04 APERTURE LIST*
%ADD10C,0.150000*%
%ADD11C,0.200000*%
G04 APERTURE END LIST*
D10*
X113419000Y-73407000D02*
G75*
G03X113419000Y-73407000I-800000J0D01*
G01*
X88273000Y-73407000D02*
G75*
G03X88273000Y-73407000I-800000J0D01*
G01*
X82447000Y-91949000D02*
G75*
G03X82447000Y-91949000I-800000J0D01*
G01*
X119023000Y-91949000D02*
G75*
G03X119023000Y-91949000I-800000J0D01*
G01*
X107015000Y-96775000D02*
G75*
G03X107015000Y-96775000I-1000000J0D01*
G01*
D11*
X82150901Y-75467983D02*
G75*
G02X84065149Y-73283707I2931366J-638041D01*
G01*
X81000000Y-95000000D02*
G75*
G02X81000000Y-105000000I0J-5000000D01*
G01*
X80196658Y-75042623D02*
G75*
G02X83387070Y-71402163I4885609J-1063401D01*
G01*
X115068543Y-155000001D02*
G75*
G02X113820194Y-154461510I0J1716230D01*
G01*
X122685153Y-103000000D02*
G75*
G02X124393757Y-104554632I0J-1716229D01*
G01*
X74506558Y-129807258D02*
G75*
G02X76506506Y-129792742I999974J7258D01*
G01*
X101762500Y-70533059D02*
G75*
G02X115934851Y-73283707I-1762500J-46966941D01*
G01*
X101837500Y-68534465D02*
G75*
G02X116612930Y-71402163I-1837500J-48965535D01*
G01*
X76506506Y-126207258D02*
G75*
G02X77573182Y-105000000I246993494J-1792742D01*
G01*
X78390001Y-97000000D02*
X81000000Y-97000000D01*
X125493442Y-126192742D02*
G75*
G02X123493494Y-126207258I-999974J-7258D01*
G01*
X76506505Y-126207258D02*
G75*
G02X74506559Y-126192742I-999973J7258D01*
G01*
X75606243Y-104554632D02*
G75*
G02X77314847Y-103000000I1708604J-161597D01*
G01*
X83387070Y-71402163D02*
G75*
G02X98162500Y-68534465I16612930J-46097837D01*
G01*
X97500000Y-145000000D02*
G75*
G02X98500000Y-144000000I1000000J0D01*
G01*
X123493494Y-129792742D02*
G75*
G02X122231561Y-153000000I-246993494J1792742D01*
G01*
X75804972Y-153459248D02*
G75*
G02X74506559Y-129807258I247695028J25459248D01*
G01*
X81000000Y-95000000D02*
X78714380Y-95000000D01*
X122426818Y-105000000D02*
G75*
G02X123493494Y-126207258I-245926818J-23000000D01*
G01*
X119803342Y-75042623D02*
G75*
G02X123311142Y-95056710I-243303342J-52957377D01*
G01*
X98162500Y-68534465D02*
G75*
G02X98237500Y-70533059I37500J-999297D01*
G01*
X81000000Y-97000000D02*
G75*
G02X81000000Y-103000000I0J-3000000D01*
G01*
X76688858Y-95056710D02*
G75*
G02X80196658Y-75042623I246811142J-32943290D01*
G01*
X125493442Y-129807258D02*
G75*
G02X124195028Y-153459249I-248993442J1807258D01*
G01*
X101762500Y-70533059D02*
G75*
G02X101837500Y-68534465I37500J999297D01*
G01*
X77512207Y-155000001D02*
G75*
G02X75804972Y-153459249I0J1716230D01*
G01*
X102500000Y-146649341D02*
G75*
G02X115190458Y-153000000I-2500000J-20850659D01*
G01*
X124195027Y-153459249D02*
G75*
G02X122487793Y-155000000I-1707234J175478D01*
G01*
X116612930Y-71402163D02*
G75*
G02X119803342Y-75042623I-1695197J-4703861D01*
G01*
X86179806Y-154461510D02*
G75*
G02X113820194Y-154461510I13820194J-13038490D01*
G01*
X119000000Y-103000000D02*
G75*
G02X119000000Y-97000000I0J3000000D01*
G01*
X124393757Y-104554632D02*
G75*
G02X125493441Y-126192742I-247893757J-23445368D01*
G01*
X123311141Y-95056710D02*
G75*
G02X121609999Y-97000000I-1701142J-227061D01*
G01*
X115934851Y-73283707D02*
G75*
G02X117849098Y-75467983I-1017118J-2822317D01*
G01*
X74506559Y-126192742D02*
G75*
G02X75606243Y-104554632I248993441J-1807258D01*
G01*
X123493495Y-129792742D02*
G75*
G02X125493441Y-129807258I999973J-7258D01*
G01*
X78390001Y-97000001D02*
G75*
G02X76688858Y-95056710I0J1716230D01*
G01*
X81000000Y-103000000D02*
X77314847Y-103000000D01*
X78714380Y-95000000D02*
G75*
G02X82150902Y-75467983I244785620J-33000000D01*
G01*
X101500000Y-144000000D02*
G75*
G02X102500000Y-145000000I0J-1000000D01*
G01*
X84809542Y-153000000D02*
G75*
G02X97500000Y-146649341I15190458J-14500000D01*
G01*
X86179805Y-154461510D02*
G75*
G02X84931457Y-155000000I-1248348J1177739D01*
G01*
X84065149Y-73283707D02*
G75*
G02X98237500Y-70533059I15934851J-44216293D01*
G01*
X119000000Y-105000000D02*
G75*
G02X119000000Y-95000000I0J5000000D01*
G01*
X77573182Y-105000000D02*
X81000000Y-105000000D01*
X117849098Y-75467983D02*
G75*
G02X121285620Y-95000000I-241349098J-52532017D01*
G01*
X77768439Y-153000000D02*
G75*
G02X76506506Y-129792742I245731561J25000000D01*
G01*
X97500000Y-145000000D02*
X97500000Y-146649341D01*
X101500000Y-144000000D02*
X98500000Y-144000000D01*
X102500000Y-146649341D02*
X102500000Y-145000000D01*
X119000000Y-97000000D02*
X121609999Y-97000000D01*
X69500000Y-63500000D02*
X69500000Y-160000000D01*
X69500000Y-160000000D02*
X130500000Y-160000000D01*
X76000000Y-128000000D02*
G75*
G03X76000000Y-128000000I-500000J0D01*
G01*
X77512207Y-155000000D02*
X84931457Y-155000000D01*
X119000000Y-105000000D02*
X122426818Y-105000000D01*
X122231561Y-153000000D02*
X115190458Y-153000000D01*
X115068543Y-155000000D02*
X122487793Y-155000000D01*
X84809542Y-153000000D02*
X77768439Y-153000000D01*
X130500000Y-160000000D02*
X130500000Y-63500000D01*
X121285620Y-95000000D02*
X119000000Y-95000000D01*
X122685153Y-103000000D02*
X119000000Y-103000000D01*
X130500000Y-63500000D02*
X69500000Y-63500000D01*
X125000000Y-128000000D02*
G75*
G03X125000000Y-128000000I-500000J0D01*
G01*
X100500000Y-69500000D02*
G75*
G03X100500000Y-69500000I-500000J0D01*
G01*
D10*
X83490000Y-76505000D02*
G75*
G02X86030000Y-76505000I1270000J0D01*
G01*
X86030000Y-90475000D02*
G75*
G02X83490000Y-90475000I-1270000J0D01*
G01*
X86030000Y-90475000D02*
X86030000Y-76505000D01*
X83490000Y-76505000D02*
X83490000Y-90475000D01*
G36*
X120851000Y-153451000D02*
X117749000Y-153451000D01*
X117749000Y-141349000D01*
X120851000Y-141349000D01*
X120851000Y-153451000D01*
X120851000Y-153451000D01*
G37*
G36*
X115951000Y-153451000D02*
X112849000Y-153451000D01*
X112849000Y-141349000D01*
X115951000Y-141349000D01*
X115951000Y-153451000D01*
X115951000Y-153451000D01*
G37*
G36*
X87151000Y-153451000D02*
X84049000Y-153451000D01*
X84049000Y-141349000D01*
X87151000Y-141349000D01*
X87151000Y-153451000D01*
X87151000Y-153451000D01*
G37*
G36*
X79779485Y-140348996D02*
X79779487Y-140348997D01*
X79779488Y-140348997D01*
X80016255Y-140447069D01*
X80229342Y-140589449D01*
X80410551Y-140770658D01*
X80552931Y-140983745D01*
X80651004Y-141220515D01*
X80701000Y-141471861D01*
X80701000Y-141728139D01*
X80651004Y-141979485D01*
X80552931Y-142216255D01*
X80410551Y-142429342D01*
X80229342Y-142610551D01*
X80229339Y-142610553D01*
X80016255Y-142752931D01*
X79779488Y-142851003D01*
X79779487Y-142851003D01*
X79779485Y-142851004D01*
X79528139Y-142901000D01*
X79271861Y-142901000D01*
X79020515Y-142851004D01*
X79020513Y-142851003D01*
X79020512Y-142851003D01*
X78783745Y-142752931D01*
X78570661Y-142610553D01*
X78570658Y-142610551D01*
X78389449Y-142429342D01*
X78247069Y-142216255D01*
X78148996Y-141979485D01*
X78099000Y-141728139D01*
X78099000Y-141471861D01*
X78148996Y-141220515D01*
X78247069Y-140983745D01*
X78389449Y-140770658D01*
X78570658Y-140589449D01*
X78783745Y-140447069D01*
X79020512Y-140348997D01*
X79020513Y-140348997D01*
X79020515Y-140348996D01*
X79271861Y-140299000D01*
X79528139Y-140299000D01*
X79779485Y-140348996D01*
X79779485Y-140348996D01*
G37*
G36*
X114014485Y-137433996D02*
X114014487Y-137433997D01*
X114014488Y-137433997D01*
X114251255Y-137532069D01*
X114464342Y-137674449D01*
X114645551Y-137855658D01*
X114787931Y-138068745D01*
X114886004Y-138305515D01*
X114936000Y-138556861D01*
X114936000Y-138813139D01*
X114886004Y-139064485D01*
X114787931Y-139301255D01*
X114645551Y-139514342D01*
X114464342Y-139695551D01*
X114464339Y-139695553D01*
X114251255Y-139837931D01*
X114014488Y-139936003D01*
X114014487Y-139936003D01*
X114014485Y-139936004D01*
X113763139Y-139986000D01*
X113506861Y-139986000D01*
X113255515Y-139936004D01*
X113255513Y-139936003D01*
X113255512Y-139936003D01*
X113018745Y-139837931D01*
X112805661Y-139695553D01*
X112805658Y-139695551D01*
X112624449Y-139514342D01*
X112482069Y-139301255D01*
X112383996Y-139064485D01*
X112334000Y-138813139D01*
X112334000Y-138556861D01*
X112383996Y-138305515D01*
X112482069Y-138068745D01*
X112624449Y-137855658D01*
X112805658Y-137674449D01*
X113018745Y-137532069D01*
X113255512Y-137433997D01*
X113255513Y-137433997D01*
X113255515Y-137433996D01*
X113506861Y-137384000D01*
X113763139Y-137384000D01*
X114014485Y-137433996D01*
X114014485Y-137433996D01*
G37*
G36*
X121634485Y-137433996D02*
X121634487Y-137433997D01*
X121634488Y-137433997D01*
X121871255Y-137532069D01*
X122084342Y-137674449D01*
X122265551Y-137855658D01*
X122407931Y-138068745D01*
X122506004Y-138305515D01*
X122556000Y-138556861D01*
X122556000Y-138813139D01*
X122506004Y-139064485D01*
X122407931Y-139301255D01*
X122265551Y-139514342D01*
X122084342Y-139695551D01*
X122084339Y-139695553D01*
X121871255Y-139837931D01*
X121634488Y-139936003D01*
X121634487Y-139936003D01*
X121634485Y-139936004D01*
X121383139Y-139986000D01*
X121126861Y-139986000D01*
X120875515Y-139936004D01*
X120875513Y-139936003D01*
X120875512Y-139936003D01*
X120638745Y-139837931D01*
X120425661Y-139695553D01*
X120425658Y-139695551D01*
X120244449Y-139514342D01*
X120102069Y-139301255D01*
X120003996Y-139064485D01*
X119954000Y-138813139D01*
X119954000Y-138556861D01*
X120003996Y-138305515D01*
X120102069Y-138068745D01*
X120244449Y-137855658D01*
X120425658Y-137674449D01*
X120638745Y-137532069D01*
X120875512Y-137433997D01*
X120875513Y-137433997D01*
X120875515Y-137433996D01*
X121126861Y-137384000D01*
X121383139Y-137384000D01*
X121634485Y-137433996D01*
X121634485Y-137433996D01*
G37*
G36*
X109179485Y-135148996D02*
X109179487Y-135148997D01*
X109179488Y-135148997D01*
X109416255Y-135247069D01*
X109629342Y-135389449D01*
X109810551Y-135570658D01*
X109952931Y-135783745D01*
X110051004Y-136020515D01*
X110101000Y-136271861D01*
X110101000Y-136528139D01*
X110051004Y-136779485D01*
X109952931Y-137016255D01*
X109810551Y-137229342D01*
X109629342Y-137410551D01*
X109629339Y-137410553D01*
X109416255Y-137552931D01*
X109179488Y-137651003D01*
X109179487Y-137651003D01*
X109179485Y-137651004D01*
X108928139Y-137701000D01*
X108671861Y-137701000D01*
X108420515Y-137651004D01*
X108420513Y-137651003D01*
X108420512Y-137651003D01*
X108183745Y-137552931D01*
X107970661Y-137410553D01*
X107970658Y-137410551D01*
X107789449Y-137229342D01*
X107647069Y-137016255D01*
X107548996Y-136779485D01*
X107499000Y-136528139D01*
X107499000Y-136271861D01*
X107548996Y-136020515D01*
X107647069Y-135783745D01*
X107789449Y-135570658D01*
X107970658Y-135389449D01*
X108183745Y-135247069D01*
X108420512Y-135148997D01*
X108420513Y-135148997D01*
X108420515Y-135148996D01*
X108671861Y-135099000D01*
X108928139Y-135099000D01*
X109179485Y-135148996D01*
X109179485Y-135148996D01*
G37*
G36*
X109179485Y-130148996D02*
X109179487Y-130148997D01*
X109179488Y-130148997D01*
X109388706Y-130235658D01*
X109416255Y-130247069D01*
X109629342Y-130389449D01*
X109810551Y-130570658D01*
X109952931Y-130783745D01*
X110051004Y-131020515D01*
X110101000Y-131271861D01*
X110101000Y-131528139D01*
X110051004Y-131779485D01*
X109952931Y-132016255D01*
X109810551Y-132229342D01*
X109629342Y-132410551D01*
X109629339Y-132410553D01*
X109416255Y-132552931D01*
X109179488Y-132651003D01*
X109179487Y-132651003D01*
X109179485Y-132651004D01*
X108928139Y-132701000D01*
X108671861Y-132701000D01*
X108420515Y-132651004D01*
X108420513Y-132651003D01*
X108420512Y-132651003D01*
X108183745Y-132552931D01*
X107970661Y-132410553D01*
X107970658Y-132410551D01*
X107789449Y-132229342D01*
X107647069Y-132016255D01*
X107548996Y-131779485D01*
X107499000Y-131528139D01*
X107499000Y-131271861D01*
X107548996Y-131020515D01*
X107647069Y-130783745D01*
X107789449Y-130570658D01*
X107970658Y-130389449D01*
X108183745Y-130247069D01*
X108211294Y-130235658D01*
X108420512Y-130148997D01*
X108420513Y-130148997D01*
X108420515Y-130148996D01*
X108671861Y-130099000D01*
X108928139Y-130099000D01*
X109179485Y-130148996D01*
X109179485Y-130148996D01*
G37*
G36*
X114014485Y-129813996D02*
X114014487Y-129813997D01*
X114014488Y-129813997D01*
X114251255Y-129912069D01*
X114464342Y-130054449D01*
X114645551Y-130235658D01*
X114787931Y-130448745D01*
X114886004Y-130685515D01*
X114936000Y-130936861D01*
X114936000Y-131193139D01*
X114886004Y-131444485D01*
X114787931Y-131681255D01*
X114645551Y-131894342D01*
X114464342Y-132075551D01*
X114464339Y-132075553D01*
X114251255Y-132217931D01*
X114014488Y-132316003D01*
X114014487Y-132316003D01*
X114014485Y-132316004D01*
X113763139Y-132366000D01*
X113506861Y-132366000D01*
X113255515Y-132316004D01*
X113255513Y-132316003D01*
X113255512Y-132316003D01*
X113018745Y-132217931D01*
X112805661Y-132075553D01*
X112805658Y-132075551D01*
X112624449Y-131894342D01*
X112482069Y-131681255D01*
X112383996Y-131444485D01*
X112334000Y-131193139D01*
X112334000Y-130936861D01*
X112383996Y-130685515D01*
X112482069Y-130448745D01*
X112624449Y-130235658D01*
X112805658Y-130054449D01*
X113018745Y-129912069D01*
X113255512Y-129813997D01*
X113255513Y-129813997D01*
X113255515Y-129813996D01*
X113506861Y-129764000D01*
X113763139Y-129764000D01*
X114014485Y-129813996D01*
X114014485Y-129813996D01*
G37*
G36*
X121634485Y-129813996D02*
X121634487Y-129813997D01*
X121634488Y-129813997D01*
X121871255Y-129912069D01*
X122084342Y-130054449D01*
X122265551Y-130235658D01*
X122407931Y-130448745D01*
X122506004Y-130685515D01*
X122556000Y-130936861D01*
X122556000Y-131193139D01*
X122506004Y-131444485D01*
X122407931Y-131681255D01*
X122265551Y-131894342D01*
X122084342Y-132075551D01*
X122084339Y-132075553D01*
X121871255Y-132217931D01*
X121634488Y-132316003D01*
X121634487Y-132316003D01*
X121634485Y-132316004D01*
X121383139Y-132366000D01*
X121126861Y-132366000D01*
X120875515Y-132316004D01*
X120875513Y-132316003D01*
X120875512Y-132316003D01*
X120638745Y-132217931D01*
X120425661Y-132075553D01*
X120425658Y-132075551D01*
X120244449Y-131894342D01*
X120102069Y-131681255D01*
X120003996Y-131444485D01*
X119954000Y-131193139D01*
X119954000Y-130936861D01*
X120003996Y-130685515D01*
X120102069Y-130448745D01*
X120244449Y-130235658D01*
X120425658Y-130054449D01*
X120638745Y-129912069D01*
X120875512Y-129813997D01*
X120875513Y-129813997D01*
X120875515Y-129813996D01*
X121126861Y-129764000D01*
X121383139Y-129764000D01*
X121634485Y-129813996D01*
X121634485Y-129813996D01*
G37*
G36*
X79779485Y-124948996D02*
X79779487Y-124948997D01*
X79779488Y-124948997D01*
X80016255Y-125047069D01*
X80229342Y-125189449D01*
X80410551Y-125370658D01*
X80552931Y-125583745D01*
X80651004Y-125820515D01*
X80701000Y-126071861D01*
X80701000Y-126328139D01*
X80651004Y-126579485D01*
X80552931Y-126816255D01*
X80410551Y-127029342D01*
X80229342Y-127210551D01*
X80229339Y-127210553D01*
X80016255Y-127352931D01*
X79779488Y-127451003D01*
X79779487Y-127451003D01*
X79779485Y-127451004D01*
X79528139Y-127501000D01*
X79271861Y-127501000D01*
X79020515Y-127451004D01*
X79020513Y-127451003D01*
X79020512Y-127451003D01*
X78783745Y-127352931D01*
X78570661Y-127210553D01*
X78570658Y-127210551D01*
X78389449Y-127029342D01*
X78247069Y-126816255D01*
X78148996Y-126579485D01*
X78099000Y-126328139D01*
X78099000Y-126071861D01*
X78148996Y-125820515D01*
X78247069Y-125583745D01*
X78389449Y-125370658D01*
X78570658Y-125189449D01*
X78783745Y-125047069D01*
X79020512Y-124948997D01*
X79020513Y-124948997D01*
X79020515Y-124948996D01*
X79271861Y-124899000D01*
X79528139Y-124899000D01*
X79779485Y-124948996D01*
X79779485Y-124948996D01*
G37*
G36*
X102961228Y-121316703D02*
X103116100Y-121380853D01*
X103255481Y-121473985D01*
X103374015Y-121592519D01*
X103467147Y-121731900D01*
X103531297Y-121886772D01*
X103564000Y-122051184D01*
X103564000Y-122218816D01*
X103531297Y-122383228D01*
X103467147Y-122538100D01*
X103374015Y-122677481D01*
X103255481Y-122796015D01*
X103116100Y-122889147D01*
X102961228Y-122953297D01*
X102796816Y-122986000D01*
X102629184Y-122986000D01*
X102464772Y-122953297D01*
X102309900Y-122889147D01*
X102170519Y-122796015D01*
X102051985Y-122677481D01*
X101958853Y-122538100D01*
X101894703Y-122383228D01*
X101862000Y-122218816D01*
X101862000Y-122051184D01*
X101894703Y-121886772D01*
X101958853Y-121731900D01*
X102051985Y-121592519D01*
X102170519Y-121473985D01*
X102309900Y-121380853D01*
X102464772Y-121316703D01*
X102629184Y-121284000D01*
X102796816Y-121284000D01*
X102961228Y-121316703D01*
X102961228Y-121316703D01*
G37*
G36*
X96048228Y-121081703D02*
X96203100Y-121145853D01*
X96342481Y-121238985D01*
X96461015Y-121357519D01*
X96554147Y-121496900D01*
X96618297Y-121651772D01*
X96651000Y-121816184D01*
X96651000Y-121983816D01*
X96618297Y-122148228D01*
X96554147Y-122303100D01*
X96461015Y-122442481D01*
X96342481Y-122561015D01*
X96203100Y-122654147D01*
X96048228Y-122718297D01*
X95883816Y-122751000D01*
X95716184Y-122751000D01*
X95551772Y-122718297D01*
X95396900Y-122654147D01*
X95257519Y-122561015D01*
X95138985Y-122442481D01*
X95045853Y-122303100D01*
X94981703Y-122148228D01*
X94949000Y-121983816D01*
X94949000Y-121816184D01*
X94981703Y-121651772D01*
X95045853Y-121496900D01*
X95138985Y-121357519D01*
X95257519Y-121238985D01*
X95396900Y-121145853D01*
X95551772Y-121081703D01*
X95716184Y-121049000D01*
X95883816Y-121049000D01*
X96048228Y-121081703D01*
X96048228Y-121081703D01*
G37*
G36*
X121634485Y-119653996D02*
X121634487Y-119653997D01*
X121634488Y-119653997D01*
X121871255Y-119752069D01*
X122084342Y-119894449D01*
X122265551Y-120075658D01*
X122265553Y-120075661D01*
X122407931Y-120288745D01*
X122505682Y-120524736D01*
X122506004Y-120525515D01*
X122556000Y-120776861D01*
X122556000Y-121033139D01*
X122515055Y-121238985D01*
X122506003Y-121284488D01*
X122453063Y-121412297D01*
X122407931Y-121521255D01*
X122265551Y-121734342D01*
X122084342Y-121915551D01*
X122084339Y-121915553D01*
X121871255Y-122057931D01*
X121634488Y-122156003D01*
X121634487Y-122156003D01*
X121634485Y-122156004D01*
X121383139Y-122206000D01*
X121126861Y-122206000D01*
X120875515Y-122156004D01*
X120875513Y-122156003D01*
X120875512Y-122156003D01*
X120638745Y-122057931D01*
X120425661Y-121915553D01*
X120425658Y-121915551D01*
X120244449Y-121734342D01*
X120102069Y-121521255D01*
X120056937Y-121412297D01*
X120003997Y-121284488D01*
X119994946Y-121238985D01*
X119954000Y-121033139D01*
X119954000Y-120776861D01*
X120003996Y-120525515D01*
X120004319Y-120524736D01*
X120102069Y-120288745D01*
X120244447Y-120075661D01*
X120244449Y-120075658D01*
X120425658Y-119894449D01*
X120638745Y-119752069D01*
X120875512Y-119653997D01*
X120875513Y-119653997D01*
X120875515Y-119653996D01*
X121126861Y-119604000D01*
X121383139Y-119604000D01*
X121634485Y-119653996D01*
X121634485Y-119653996D01*
G37*
G36*
X114936000Y-122206000D02*
X112334000Y-122206000D01*
X112334000Y-119604000D01*
X114936000Y-119604000D01*
X114936000Y-122206000D01*
X114936000Y-122206000D01*
G37*
G36*
X83096565Y-119969389D02*
X83287834Y-120048615D01*
X83459976Y-120163637D01*
X83606363Y-120310024D01*
X83721385Y-120482166D01*
X83800611Y-120673435D01*
X83841000Y-120876484D01*
X83841000Y-121083516D01*
X83800611Y-121286565D01*
X83721385Y-121477834D01*
X83606363Y-121649976D01*
X83459976Y-121796363D01*
X83287834Y-121911385D01*
X83096565Y-121990611D01*
X82893516Y-122031000D01*
X82686484Y-122031000D01*
X82483435Y-121990611D01*
X82292166Y-121911385D01*
X82120024Y-121796363D01*
X81973637Y-121649976D01*
X81858615Y-121477834D01*
X81779389Y-121286565D01*
X81739000Y-121083516D01*
X81739000Y-120876484D01*
X81779389Y-120673435D01*
X81858615Y-120482166D01*
X81973637Y-120310024D01*
X82120024Y-120163637D01*
X82292166Y-120048615D01*
X82483435Y-119969389D01*
X82686484Y-119929000D01*
X82893516Y-119929000D01*
X83096565Y-119969389D01*
X83096565Y-119969389D01*
G37*
G36*
X109937915Y-120366334D02*
X110046491Y-120399271D01*
X110146556Y-120452756D01*
X110234264Y-120524736D01*
X110306244Y-120612443D01*
X110359729Y-120712508D01*
X110392666Y-120821084D01*
X110401000Y-120905702D01*
X110401000Y-121412297D01*
X110392666Y-121496916D01*
X110359729Y-121605492D01*
X110306244Y-121705557D01*
X110234264Y-121793264D01*
X110146557Y-121865244D01*
X110046492Y-121918729D01*
X109937916Y-121951666D01*
X109825000Y-121962787D01*
X109712085Y-121951666D01*
X109603509Y-121918729D01*
X109503444Y-121865244D01*
X109443665Y-121816184D01*
X109415739Y-121793266D01*
X109415737Y-121793264D01*
X109343757Y-121705557D01*
X109314047Y-121649973D01*
X109300240Y-121624143D01*
X109286627Y-121603768D01*
X109269299Y-121586441D01*
X109248925Y-121572827D01*
X109226286Y-121563450D01*
X109202253Y-121558669D01*
X109177748Y-121558669D01*
X109153715Y-121563449D01*
X109131076Y-121572827D01*
X109110701Y-121586440D01*
X109093374Y-121603768D01*
X109079760Y-121624143D01*
X109036244Y-121705557D01*
X108964264Y-121793264D01*
X108876557Y-121865244D01*
X108776492Y-121918729D01*
X108667916Y-121951666D01*
X108555000Y-121962787D01*
X108442085Y-121951666D01*
X108333509Y-121918729D01*
X108233444Y-121865244D01*
X108145737Y-121793264D01*
X108082626Y-121716364D01*
X108065299Y-121699036D01*
X108044924Y-121685423D01*
X108022285Y-121676045D01*
X107998252Y-121671265D01*
X107973748Y-121671265D01*
X107949714Y-121676046D01*
X107927075Y-121685423D01*
X107906701Y-121699037D01*
X107889373Y-121716364D01*
X107875760Y-121736739D01*
X107866382Y-121759378D01*
X107861000Y-121795663D01*
X107861000Y-121960000D01*
X106709000Y-121960000D01*
X106709000Y-120358000D01*
X107861000Y-120358000D01*
X107861000Y-120522337D01*
X107863402Y-120546723D01*
X107870515Y-120570172D01*
X107882066Y-120591783D01*
X107897612Y-120610725D01*
X107916554Y-120626271D01*
X107938165Y-120637822D01*
X107961614Y-120644935D01*
X107986000Y-120647337D01*
X108010386Y-120644935D01*
X108033835Y-120637822D01*
X108055446Y-120626271D01*
X108082626Y-120601636D01*
X108145097Y-120525515D01*
X108145736Y-120524736D01*
X108233443Y-120452756D01*
X108333508Y-120399271D01*
X108442084Y-120366334D01*
X108555000Y-120355213D01*
X108667915Y-120366334D01*
X108776491Y-120399271D01*
X108876556Y-120452756D01*
X108964264Y-120524736D01*
X109036244Y-120612443D01*
X109079767Y-120693869D01*
X109093373Y-120714232D01*
X109110700Y-120731560D01*
X109131075Y-120745174D01*
X109153713Y-120754551D01*
X109177747Y-120759332D01*
X109202251Y-120759332D01*
X109226285Y-120754552D01*
X109248924Y-120745175D01*
X109269298Y-120731561D01*
X109286626Y-120714234D01*
X109300240Y-120693858D01*
X109343756Y-120612444D01*
X109415097Y-120525515D01*
X109415736Y-120524736D01*
X109503443Y-120452756D01*
X109603508Y-120399271D01*
X109712084Y-120366334D01*
X109825000Y-120355213D01*
X109937915Y-120366334D01*
X109937915Y-120366334D01*
G37*
G36*
X103564000Y-120486000D02*
X101862000Y-120486000D01*
X101862000Y-118784000D01*
X103564000Y-118784000D01*
X103564000Y-120486000D01*
X103564000Y-120486000D01*
G37*
G36*
X91048228Y-118581703D02*
X91203100Y-118645853D01*
X91342481Y-118738985D01*
X91461015Y-118857519D01*
X91554147Y-118996900D01*
X91618297Y-119151772D01*
X91651000Y-119316184D01*
X91651000Y-119483816D01*
X91618297Y-119648228D01*
X91554147Y-119803100D01*
X91461015Y-119942481D01*
X91342481Y-120061015D01*
X91203100Y-120154147D01*
X91048228Y-120218297D01*
X90883816Y-120251000D01*
X90716184Y-120251000D01*
X90551772Y-120218297D01*
X90396900Y-120154147D01*
X90257519Y-120061015D01*
X90138985Y-119942481D01*
X90045853Y-119803100D01*
X89981703Y-119648228D01*
X89949000Y-119483816D01*
X89949000Y-119316184D01*
X89981703Y-119151772D01*
X90045853Y-118996900D01*
X90138985Y-118857519D01*
X90257519Y-118738985D01*
X90396900Y-118645853D01*
X90551772Y-118581703D01*
X90716184Y-118549000D01*
X90883816Y-118549000D01*
X91048228Y-118581703D01*
X91048228Y-118581703D01*
G37*
G36*
X83106565Y-114889389D02*
X83297834Y-114968615D01*
X83469976Y-115083637D01*
X83616363Y-115230024D01*
X83731385Y-115402166D01*
X83810611Y-115593435D01*
X83851000Y-115796484D01*
X83851000Y-116003516D01*
X83810611Y-116206565D01*
X83731385Y-116397834D01*
X83616363Y-116569976D01*
X83469976Y-116716363D01*
X83297834Y-116831385D01*
X83106565Y-116910611D01*
X82903516Y-116951000D01*
X82696484Y-116951000D01*
X82493435Y-116910611D01*
X82302166Y-116831385D01*
X82130024Y-116716363D01*
X81983637Y-116569976D01*
X81868615Y-116397834D01*
X81789389Y-116206565D01*
X81749000Y-116003516D01*
X81749000Y-115796484D01*
X81789389Y-115593435D01*
X81868615Y-115402166D01*
X81983637Y-115230024D01*
X82130024Y-115083637D01*
X82302166Y-114968615D01*
X82493435Y-114889389D01*
X82696484Y-114849000D01*
X82903516Y-114849000D01*
X83106565Y-114889389D01*
X83106565Y-114889389D01*
G37*
G36*
X99196000Y-114115000D02*
X99031664Y-114115000D01*
X99007278Y-114117402D01*
X98983829Y-114124515D01*
X98962218Y-114136066D01*
X98943276Y-114151612D01*
X98927730Y-114170554D01*
X98916179Y-114192165D01*
X98909066Y-114215614D01*
X98906664Y-114240000D01*
X98909066Y-114264386D01*
X98916179Y-114287835D01*
X98927730Y-114309446D01*
X98952365Y-114336626D01*
X99029264Y-114399736D01*
X99101244Y-114487443D01*
X99154729Y-114587508D01*
X99187666Y-114696084D01*
X99198787Y-114809000D01*
X99187666Y-114921916D01*
X99154729Y-115030492D01*
X99154726Y-115030497D01*
X99101244Y-115130557D01*
X99029264Y-115218264D01*
X98941557Y-115290244D01*
X98860143Y-115333760D01*
X98839768Y-115347373D01*
X98822441Y-115364701D01*
X98808827Y-115385075D01*
X98799450Y-115407714D01*
X98794669Y-115431747D01*
X98794669Y-115456252D01*
X98799449Y-115480285D01*
X98808827Y-115502924D01*
X98822440Y-115523299D01*
X98839768Y-115540626D01*
X98860143Y-115554240D01*
X98941557Y-115597756D01*
X99029264Y-115669736D01*
X99101244Y-115757443D01*
X99154729Y-115857508D01*
X99187666Y-115966084D01*
X99198787Y-116079000D01*
X99187666Y-116191916D01*
X99154729Y-116300492D01*
X99101244Y-116400557D01*
X99029264Y-116488264D01*
X98941557Y-116560244D01*
X98841492Y-116613729D01*
X98732916Y-116646666D01*
X98648298Y-116655000D01*
X98141702Y-116655000D01*
X98057084Y-116646666D01*
X97948508Y-116613729D01*
X97848443Y-116560244D01*
X97760736Y-116488264D01*
X97688756Y-116400557D01*
X97635271Y-116300492D01*
X97602334Y-116191916D01*
X97591213Y-116079000D01*
X97602334Y-115966084D01*
X97635271Y-115857508D01*
X97688756Y-115757443D01*
X97760736Y-115669736D01*
X97848443Y-115597756D01*
X97929857Y-115554240D01*
X97950232Y-115540627D01*
X97967559Y-115523299D01*
X97981173Y-115502925D01*
X97990550Y-115480286D01*
X97995331Y-115456253D01*
X97995331Y-115431748D01*
X97990551Y-115407715D01*
X97981173Y-115385076D01*
X97967560Y-115364701D01*
X97950232Y-115347374D01*
X97929857Y-115333760D01*
X97848443Y-115290244D01*
X97760736Y-115218264D01*
X97688756Y-115130557D01*
X97635274Y-115030497D01*
X97635271Y-115030492D01*
X97602334Y-114921916D01*
X97591213Y-114809000D01*
X97602334Y-114696084D01*
X97635271Y-114587508D01*
X97688756Y-114487443D01*
X97760736Y-114399736D01*
X97837635Y-114336626D01*
X97854962Y-114319299D01*
X97868576Y-114298924D01*
X97877954Y-114276285D01*
X97882734Y-114252252D01*
X97882734Y-114227748D01*
X97877953Y-114203714D01*
X97868576Y-114181075D01*
X97854962Y-114160701D01*
X97837635Y-114143374D01*
X97817260Y-114129760D01*
X97794621Y-114120382D01*
X97758336Y-114115000D01*
X97594000Y-114115000D01*
X97594000Y-112963000D01*
X99196000Y-112963000D01*
X99196000Y-114115000D01*
X99196000Y-114115000D01*
G37*
G36*
X110499821Y-114732313D02*
X110499824Y-114732314D01*
X110499825Y-114732314D01*
X110660239Y-114780975D01*
X110660241Y-114780976D01*
X110660244Y-114780977D01*
X110808078Y-114859995D01*
X110937659Y-114966341D01*
X111044005Y-115095922D01*
X111123023Y-115243756D01*
X111123024Y-115243759D01*
X111123025Y-115243761D01*
X111171686Y-115404175D01*
X111171687Y-115404179D01*
X111188117Y-115571000D01*
X111171687Y-115737821D01*
X111171686Y-115737824D01*
X111171686Y-115737825D01*
X111135381Y-115857508D01*
X111123023Y-115898244D01*
X111044005Y-116046078D01*
X110937659Y-116175659D01*
X110808078Y-116282005D01*
X110660244Y-116361023D01*
X110660241Y-116361024D01*
X110660239Y-116361025D01*
X110499825Y-116409686D01*
X110499824Y-116409686D01*
X110499821Y-116409687D01*
X110374804Y-116422000D01*
X110291196Y-116422000D01*
X110166179Y-116409687D01*
X110166176Y-116409686D01*
X110166175Y-116409686D01*
X110005761Y-116361025D01*
X110005759Y-116361024D01*
X110005756Y-116361023D01*
X109857922Y-116282005D01*
X109728341Y-116175659D01*
X109621995Y-116046078D01*
X109542977Y-115898244D01*
X109530620Y-115857508D01*
X109494314Y-115737825D01*
X109494314Y-115737824D01*
X109494313Y-115737821D01*
X109477883Y-115571000D01*
X109494313Y-115404179D01*
X109494314Y-115404175D01*
X109542975Y-115243761D01*
X109542976Y-115243759D01*
X109542977Y-115243756D01*
X109621995Y-115095922D01*
X109728341Y-114966341D01*
X109857922Y-114859995D01*
X110005756Y-114780977D01*
X110005759Y-114780976D01*
X110005761Y-114780975D01*
X110166175Y-114732314D01*
X110166176Y-114732314D01*
X110166179Y-114732313D01*
X110291196Y-114720000D01*
X110374804Y-114720000D01*
X110499821Y-114732313D01*
X110499821Y-114732313D01*
G37*
G36*
X103564000Y-116422000D02*
X101862000Y-116422000D01*
X101862000Y-114720000D01*
X103564000Y-114720000D01*
X103564000Y-116422000D01*
X103564000Y-116422000D01*
G37*
G36*
X119685228Y-112466703D02*
X119840100Y-112530853D01*
X119979481Y-112623985D01*
X120098015Y-112742519D01*
X120191147Y-112881900D01*
X120255297Y-113036772D01*
X120288000Y-113201184D01*
X120288000Y-113368816D01*
X120255297Y-113533228D01*
X120191147Y-113688100D01*
X120098015Y-113827481D01*
X119979481Y-113946015D01*
X119840100Y-114039147D01*
X119685228Y-114103297D01*
X119520816Y-114136000D01*
X119353184Y-114136000D01*
X119188772Y-114103297D01*
X119033900Y-114039147D01*
X118894519Y-113946015D01*
X118775985Y-113827481D01*
X118682853Y-113688100D01*
X118618703Y-113533228D01*
X118586000Y-113368816D01*
X118586000Y-113201184D01*
X118618703Y-113036772D01*
X118682853Y-112881900D01*
X118775985Y-112742519D01*
X118894519Y-112623985D01*
X119033900Y-112530853D01*
X119188772Y-112466703D01*
X119353184Y-112434000D01*
X119520816Y-112434000D01*
X119685228Y-112466703D01*
X119685228Y-112466703D01*
G37*
G36*
X117788000Y-114136000D02*
X116086000Y-114136000D01*
X116086000Y-112434000D01*
X117788000Y-112434000D01*
X117788000Y-114136000D01*
X117788000Y-114136000D01*
G37*
G36*
X112023821Y-109652313D02*
X112023824Y-109652314D01*
X112023825Y-109652314D01*
X112184239Y-109700975D01*
X112184241Y-109700976D01*
X112184244Y-109700977D01*
X112332078Y-109779995D01*
X112461659Y-109886341D01*
X112568005Y-110015922D01*
X112647023Y-110163756D01*
X112647024Y-110163759D01*
X112647025Y-110163761D01*
X112686319Y-110293296D01*
X112695687Y-110324179D01*
X112712117Y-110491000D01*
X112695687Y-110657821D01*
X112695686Y-110657824D01*
X112695686Y-110657825D01*
X112670993Y-110739228D01*
X112647023Y-110818244D01*
X112568005Y-110966078D01*
X112461659Y-111095659D01*
X112332078Y-111202005D01*
X112184244Y-111281023D01*
X112184241Y-111281024D01*
X112184239Y-111281025D01*
X112023825Y-111329686D01*
X112023824Y-111329686D01*
X112023821Y-111329687D01*
X111898804Y-111342000D01*
X111815196Y-111342000D01*
X111690179Y-111329687D01*
X111690176Y-111329686D01*
X111690175Y-111329686D01*
X111529761Y-111281025D01*
X111529759Y-111281024D01*
X111529756Y-111281023D01*
X111381922Y-111202005D01*
X111252341Y-111095659D01*
X111145995Y-110966078D01*
X111066977Y-110818244D01*
X111043008Y-110739228D01*
X111018314Y-110657825D01*
X111018314Y-110657824D01*
X111018313Y-110657821D01*
X111001883Y-110491000D01*
X111018313Y-110324179D01*
X111027681Y-110293296D01*
X111066975Y-110163761D01*
X111066976Y-110163759D01*
X111066977Y-110163756D01*
X111145995Y-110015922D01*
X111252341Y-109886341D01*
X111381922Y-109779995D01*
X111529756Y-109700977D01*
X111529759Y-109700976D01*
X111529761Y-109700975D01*
X111690175Y-109652314D01*
X111690176Y-109652314D01*
X111690179Y-109652313D01*
X111815196Y-109640000D01*
X111898804Y-109640000D01*
X112023821Y-109652313D01*
X112023821Y-109652313D01*
G37*
G36*
X108549228Y-109672703D02*
X108704100Y-109736853D01*
X108843481Y-109829985D01*
X108962015Y-109948519D01*
X109055147Y-110087900D01*
X109119297Y-110242772D01*
X109152000Y-110407184D01*
X109152000Y-110574816D01*
X109119297Y-110739228D01*
X109055147Y-110894100D01*
X108962015Y-111033481D01*
X108843481Y-111152015D01*
X108704100Y-111245147D01*
X108549228Y-111309297D01*
X108384816Y-111342000D01*
X108217184Y-111342000D01*
X108052772Y-111309297D01*
X107897900Y-111245147D01*
X107758519Y-111152015D01*
X107639985Y-111033481D01*
X107546853Y-110894100D01*
X107482703Y-110739228D01*
X107450000Y-110574816D01*
X107450000Y-110407184D01*
X107482703Y-110242772D01*
X107546853Y-110087900D01*
X107639985Y-109948519D01*
X107758519Y-109829985D01*
X107897900Y-109736853D01*
X108052772Y-109672703D01*
X108217184Y-109640000D01*
X108384816Y-109640000D01*
X108549228Y-109672703D01*
X108549228Y-109672703D01*
G37*
G36*
X80435228Y-108656703D02*
X80590100Y-108720853D01*
X80729481Y-108813985D01*
X80848015Y-108932519D01*
X80941147Y-109071900D01*
X81005297Y-109226772D01*
X81038000Y-109391184D01*
X81038000Y-109558816D01*
X81005297Y-109723228D01*
X80941147Y-109878100D01*
X80848015Y-110017481D01*
X80729481Y-110136015D01*
X80590100Y-110229147D01*
X80435228Y-110293297D01*
X80270816Y-110326000D01*
X80103184Y-110326000D01*
X79938772Y-110293297D01*
X79783900Y-110229147D01*
X79644519Y-110136015D01*
X79525985Y-110017481D01*
X79432853Y-109878100D01*
X79368703Y-109723228D01*
X79336000Y-109558816D01*
X79336000Y-109391184D01*
X79368703Y-109226772D01*
X79432853Y-109071900D01*
X79525985Y-108932519D01*
X79644519Y-108813985D01*
X79783900Y-108720853D01*
X79938772Y-108656703D01*
X80103184Y-108624000D01*
X80270816Y-108624000D01*
X80435228Y-108656703D01*
X80435228Y-108656703D01*
G37*
G36*
X85435228Y-108656703D02*
X85590100Y-108720853D01*
X85729481Y-108813985D01*
X85848015Y-108932519D01*
X85941147Y-109071900D01*
X86005297Y-109226772D01*
X86038000Y-109391184D01*
X86038000Y-109558816D01*
X86005297Y-109723228D01*
X85941147Y-109878100D01*
X85848015Y-110017481D01*
X85729481Y-110136015D01*
X85590100Y-110229147D01*
X85435228Y-110293297D01*
X85270816Y-110326000D01*
X85103184Y-110326000D01*
X84938772Y-110293297D01*
X84783900Y-110229147D01*
X84644519Y-110136015D01*
X84525985Y-110017481D01*
X84432853Y-109878100D01*
X84368703Y-109723228D01*
X84336000Y-109558816D01*
X84336000Y-109391184D01*
X84368703Y-109226772D01*
X84432853Y-109071900D01*
X84525985Y-108932519D01*
X84644519Y-108813985D01*
X84783900Y-108720853D01*
X84938772Y-108656703D01*
X85103184Y-108624000D01*
X85270816Y-108624000D01*
X85435228Y-108656703D01*
X85435228Y-108656703D01*
G37*
G36*
X105361000Y-108052000D02*
X102259000Y-108052000D01*
X102259000Y-106426000D01*
X105361000Y-106426000D01*
X105361000Y-108052000D01*
X105361000Y-108052000D01*
G37*
G36*
X100352527Y-104457736D02*
X100452410Y-104477604D01*
X100734674Y-104594521D01*
X100988705Y-104764259D01*
X101204741Y-104980295D01*
X101374479Y-105234326D01*
X101491396Y-105516590D01*
X101551000Y-105816240D01*
X101551000Y-106121760D01*
X101491396Y-106421410D01*
X101374479Y-106703674D01*
X101204741Y-106957705D01*
X100988705Y-107173741D01*
X100734674Y-107343479D01*
X100452410Y-107460396D01*
X100352527Y-107480264D01*
X100152762Y-107520000D01*
X99847238Y-107520000D01*
X99647473Y-107480264D01*
X99547590Y-107460396D01*
X99265326Y-107343479D01*
X99011295Y-107173741D01*
X98795259Y-106957705D01*
X98625521Y-106703674D01*
X98508604Y-106421410D01*
X98449000Y-106121760D01*
X98449000Y-105816240D01*
X98508604Y-105516590D01*
X98625521Y-105234326D01*
X98795259Y-104980295D01*
X99011295Y-104764259D01*
X99265326Y-104594521D01*
X99547590Y-104477604D01*
X99647473Y-104457736D01*
X99847238Y-104418000D01*
X100152762Y-104418000D01*
X100352527Y-104457736D01*
X100352527Y-104457736D01*
G37*
G36*
X97741000Y-106782000D02*
X94639000Y-106782000D01*
X94639000Y-105156000D01*
X97741000Y-105156000D01*
X97741000Y-106782000D01*
X97741000Y-106782000D01*
G37*
G36*
X105361000Y-105512000D02*
X102259000Y-105512000D01*
X102259000Y-103886000D01*
X105361000Y-103886000D01*
X105361000Y-105512000D01*
X105361000Y-105512000D01*
G37*
G36*
X91531228Y-103830703D02*
X91686100Y-103894853D01*
X91825481Y-103987985D01*
X91944015Y-104106519D01*
X92037147Y-104245900D01*
X92101297Y-104400772D01*
X92134000Y-104565184D01*
X92134000Y-104732816D01*
X92101297Y-104897228D01*
X92037147Y-105052100D01*
X91944015Y-105191481D01*
X91825481Y-105310015D01*
X91686100Y-105403147D01*
X91531228Y-105467297D01*
X91366816Y-105500000D01*
X91199184Y-105500000D01*
X91034772Y-105467297D01*
X90879900Y-105403147D01*
X90740519Y-105310015D01*
X90621985Y-105191481D01*
X90528853Y-105052100D01*
X90464703Y-104897228D01*
X90432000Y-104732816D01*
X90432000Y-104565184D01*
X90464703Y-104400772D01*
X90528853Y-104245900D01*
X90621985Y-104106519D01*
X90740519Y-103987985D01*
X90879900Y-103894853D01*
X91034772Y-103830703D01*
X91199184Y-103798000D01*
X91366816Y-103798000D01*
X91531228Y-103830703D01*
X91531228Y-103830703D01*
G37*
G36*
X96417085Y-99923170D02*
X96608354Y-100002396D01*
X96780496Y-100117418D01*
X96926883Y-100263805D01*
X97041905Y-100435947D01*
X97121131Y-100627216D01*
X97161520Y-100830265D01*
X97161520Y-101037297D01*
X97121131Y-101240346D01*
X97041905Y-101431615D01*
X96926883Y-101603757D01*
X96780496Y-101750144D01*
X96608354Y-101865166D01*
X96417085Y-101944392D01*
X96214036Y-101984781D01*
X96007004Y-101984781D01*
X95803955Y-101944392D01*
X95612686Y-101865166D01*
X95440544Y-101750144D01*
X95294157Y-101603757D01*
X95179135Y-101431615D01*
X95099909Y-101240346D01*
X95059520Y-101037297D01*
X95059520Y-100830265D01*
X95099909Y-100627216D01*
X95179135Y-100435947D01*
X95294157Y-100263805D01*
X95440544Y-100117418D01*
X95612686Y-100002396D01*
X95803955Y-99923170D01*
X96007004Y-99882781D01*
X96214036Y-99882781D01*
X96417085Y-99923170D01*
X96417085Y-99923170D01*
G37*
G36*
X104196045Y-99923170D02*
X104387314Y-100002396D01*
X104559456Y-100117418D01*
X104705843Y-100263805D01*
X104820865Y-100435947D01*
X104900091Y-100627216D01*
X104940480Y-100830265D01*
X104940480Y-101037297D01*
X104900091Y-101240346D01*
X104820865Y-101431615D01*
X104705843Y-101603757D01*
X104559456Y-101750144D01*
X104387314Y-101865166D01*
X104196045Y-101944392D01*
X103992996Y-101984781D01*
X103785964Y-101984781D01*
X103582915Y-101944392D01*
X103391646Y-101865166D01*
X103219504Y-101750144D01*
X103073117Y-101603757D01*
X102958095Y-101431615D01*
X102878869Y-101240346D01*
X102838480Y-101037297D01*
X102838480Y-100830265D01*
X102878869Y-100627216D01*
X102958095Y-100435947D01*
X103073117Y-100263805D01*
X103219504Y-100117418D01*
X103391646Y-100002396D01*
X103582915Y-99923170D01*
X103785964Y-99882781D01*
X103992996Y-99882781D01*
X104196045Y-99923170D01*
X104196045Y-99923170D01*
G37*
G36*
X112105228Y-99512703D02*
X112260100Y-99576853D01*
X112399481Y-99669985D01*
X112518015Y-99788519D01*
X112611147Y-99927900D01*
X112675297Y-100082772D01*
X112708000Y-100247184D01*
X112708000Y-100414816D01*
X112675297Y-100579228D01*
X112611147Y-100734100D01*
X112518015Y-100873481D01*
X112399481Y-100992015D01*
X112260100Y-101085147D01*
X112105228Y-101149297D01*
X111940816Y-101182000D01*
X111773184Y-101182000D01*
X111608772Y-101149297D01*
X111453900Y-101085147D01*
X111314519Y-100992015D01*
X111195985Y-100873481D01*
X111102853Y-100734100D01*
X111038703Y-100579228D01*
X111006000Y-100414816D01*
X111006000Y-100247184D01*
X111038703Y-100082772D01*
X111102853Y-99927900D01*
X111195985Y-99788519D01*
X111314519Y-99669985D01*
X111453900Y-99576853D01*
X111608772Y-99512703D01*
X111773184Y-99480000D01*
X111940816Y-99480000D01*
X112105228Y-99512703D01*
X112105228Y-99512703D01*
G37*
G36*
X108467821Y-99492313D02*
X108467824Y-99492314D01*
X108467825Y-99492314D01*
X108628239Y-99540975D01*
X108628241Y-99540976D01*
X108628244Y-99540977D01*
X108776078Y-99619995D01*
X108905659Y-99726341D01*
X109012005Y-99855922D01*
X109091023Y-100003756D01*
X109091024Y-100003759D01*
X109091025Y-100003761D01*
X109125502Y-100117416D01*
X109139687Y-100164179D01*
X109156117Y-100331000D01*
X109139687Y-100497821D01*
X109139686Y-100497824D01*
X109139686Y-100497825D01*
X109100436Y-100627216D01*
X109091023Y-100658244D01*
X109012005Y-100806078D01*
X108905659Y-100935659D01*
X108776078Y-101042005D01*
X108628244Y-101121023D01*
X108628241Y-101121024D01*
X108628239Y-101121025D01*
X108467825Y-101169686D01*
X108467824Y-101169686D01*
X108467821Y-101169687D01*
X108342804Y-101182000D01*
X108259196Y-101182000D01*
X108134179Y-101169687D01*
X108134176Y-101169686D01*
X108134175Y-101169686D01*
X107973761Y-101121025D01*
X107973759Y-101121024D01*
X107973756Y-101121023D01*
X107825922Y-101042005D01*
X107696341Y-100935659D01*
X107589995Y-100806078D01*
X107510977Y-100658244D01*
X107501565Y-100627216D01*
X107462314Y-100497825D01*
X107462314Y-100497824D01*
X107462313Y-100497821D01*
X107445883Y-100331000D01*
X107462313Y-100164179D01*
X107476498Y-100117416D01*
X107510975Y-100003761D01*
X107510976Y-100003759D01*
X107510977Y-100003756D01*
X107589995Y-99855922D01*
X107696341Y-99726341D01*
X107825922Y-99619995D01*
X107973756Y-99540977D01*
X107973759Y-99540976D01*
X107973761Y-99540975D01*
X108134175Y-99492314D01*
X108134176Y-99492314D01*
X108134179Y-99492313D01*
X108259196Y-99480000D01*
X108342804Y-99480000D01*
X108467821Y-99492313D01*
X108467821Y-99492313D01*
G37*
G36*
X103793212Y-95969249D02*
X103887651Y-95997897D01*
X103974687Y-96044418D01*
X104050975Y-96107025D01*
X104113582Y-96183313D01*
X104160103Y-96270348D01*
X104188751Y-96364787D01*
X104196000Y-96438388D01*
X104196000Y-99146000D01*
X103194000Y-99146000D01*
X103194000Y-96438389D01*
X103201249Y-96364788D01*
X103229897Y-96270349D01*
X103276418Y-96183313D01*
X103339025Y-96107025D01*
X103415313Y-96044418D01*
X103502348Y-95997897D01*
X103596787Y-95969249D01*
X103695000Y-95959576D01*
X103793212Y-95969249D01*
X103793212Y-95969249D01*
G37*
G36*
X91449821Y-93650313D02*
X91449824Y-93650314D01*
X91449825Y-93650314D01*
X91610239Y-93698975D01*
X91610241Y-93698976D01*
X91610244Y-93698977D01*
X91758078Y-93777995D01*
X91887659Y-93884341D01*
X91994005Y-94013922D01*
X92073023Y-94161756D01*
X92121687Y-94322179D01*
X92138117Y-94489000D01*
X92121687Y-94655821D01*
X92073023Y-94816244D01*
X91994005Y-94964078D01*
X91887659Y-95093659D01*
X91758078Y-95200005D01*
X91610244Y-95279023D01*
X91610241Y-95279024D01*
X91610239Y-95279025D01*
X91449825Y-95327686D01*
X91449824Y-95327686D01*
X91449821Y-95327687D01*
X91324804Y-95340000D01*
X91241196Y-95340000D01*
X91116179Y-95327687D01*
X91116176Y-95327686D01*
X91116175Y-95327686D01*
X90955761Y-95279025D01*
X90955759Y-95279024D01*
X90955756Y-95279023D01*
X90807922Y-95200005D01*
X90678341Y-95093659D01*
X90571995Y-94964078D01*
X90492977Y-94816244D01*
X90444313Y-94655821D01*
X90427883Y-94489000D01*
X90444313Y-94322179D01*
X90492977Y-94161756D01*
X90571995Y-94013922D01*
X90678341Y-93884341D01*
X90807922Y-93777995D01*
X90955756Y-93698977D01*
X90955759Y-93698976D01*
X90955761Y-93698975D01*
X91116175Y-93650314D01*
X91116176Y-93650314D01*
X91116179Y-93650313D01*
X91241196Y-93638000D01*
X91324804Y-93638000D01*
X91449821Y-93650313D01*
X91449821Y-93650313D01*
G37*
G36*
X102817396Y-90195546D02*
X102990466Y-90267234D01*
X103146230Y-90371312D01*
X103278688Y-90503770D01*
X103382766Y-90659534D01*
X103454454Y-90832604D01*
X103491000Y-91016333D01*
X103491000Y-91203667D01*
X103454454Y-91387396D01*
X103382766Y-91560466D01*
X103278688Y-91716230D01*
X103146230Y-91848688D01*
X102990466Y-91952766D01*
X102817396Y-92024454D01*
X102633667Y-92061000D01*
X102446333Y-92061000D01*
X102262604Y-92024454D01*
X102089534Y-91952766D01*
X101933770Y-91848688D01*
X101801312Y-91716230D01*
X101697234Y-91560466D01*
X101625546Y-91387396D01*
X101589000Y-91203667D01*
X101589000Y-91016333D01*
X101625546Y-90832604D01*
X101697234Y-90659534D01*
X101801312Y-90503770D01*
X101933770Y-90371312D01*
X102089534Y-90267234D01*
X102262604Y-90195546D01*
X102446333Y-90159000D01*
X102633667Y-90159000D01*
X102817396Y-90195546D01*
X102817396Y-90195546D01*
G37*
G36*
X105357396Y-90195546D02*
X105530466Y-90267234D01*
X105686230Y-90371312D01*
X105818688Y-90503770D01*
X105922766Y-90659534D01*
X105994454Y-90832604D01*
X106031000Y-91016333D01*
X106031000Y-91203667D01*
X105994454Y-91387396D01*
X105922766Y-91560466D01*
X105818688Y-91716230D01*
X105686230Y-91848688D01*
X105530466Y-91952766D01*
X105357396Y-92024454D01*
X105173667Y-92061000D01*
X104986333Y-92061000D01*
X104802604Y-92024454D01*
X104629534Y-91952766D01*
X104473770Y-91848688D01*
X104341312Y-91716230D01*
X104237234Y-91560466D01*
X104165546Y-91387396D01*
X104129000Y-91203667D01*
X104129000Y-91016333D01*
X104165546Y-90832604D01*
X104237234Y-90659534D01*
X104341312Y-90503770D01*
X104473770Y-90371312D01*
X104629534Y-90267234D01*
X104802604Y-90195546D01*
X104986333Y-90159000D01*
X105173667Y-90159000D01*
X105357396Y-90195546D01*
X105357396Y-90195546D01*
G37*
G36*
X95197396Y-90195546D02*
X95370466Y-90267234D01*
X95526230Y-90371312D01*
X95658688Y-90503770D01*
X95762766Y-90659534D01*
X95834454Y-90832604D01*
X95871000Y-91016333D01*
X95871000Y-91203667D01*
X95834454Y-91387396D01*
X95762766Y-91560466D01*
X95658688Y-91716230D01*
X95526230Y-91848688D01*
X95370466Y-91952766D01*
X95197396Y-92024454D01*
X95013667Y-92061000D01*
X94826333Y-92061000D01*
X94642604Y-92024454D01*
X94469534Y-91952766D01*
X94313770Y-91848688D01*
X94181312Y-91716230D01*
X94077234Y-91560466D01*
X94005546Y-91387396D01*
X93969000Y-91203667D01*
X93969000Y-91016333D01*
X94005546Y-90832604D01*
X94077234Y-90659534D01*
X94181312Y-90503770D01*
X94313770Y-90371312D01*
X94469534Y-90267234D01*
X94642604Y-90195546D01*
X94826333Y-90159000D01*
X95013667Y-90159000D01*
X95197396Y-90195546D01*
X95197396Y-90195546D01*
G37*
G36*
X112977396Y-90195546D02*
X113150466Y-90267234D01*
X113306230Y-90371312D01*
X113438688Y-90503770D01*
X113542766Y-90659534D01*
X113614454Y-90832604D01*
X113651000Y-91016333D01*
X113651000Y-91203667D01*
X113614454Y-91387396D01*
X113542766Y-91560466D01*
X113438688Y-91716230D01*
X113306230Y-91848688D01*
X113150466Y-91952766D01*
X112977396Y-92024454D01*
X112793667Y-92061000D01*
X112606333Y-92061000D01*
X112422604Y-92024454D01*
X112249534Y-91952766D01*
X112093770Y-91848688D01*
X111961312Y-91716230D01*
X111857234Y-91560466D01*
X111785546Y-91387396D01*
X111749000Y-91203667D01*
X111749000Y-91016333D01*
X111785546Y-90832604D01*
X111857234Y-90659534D01*
X111961312Y-90503770D01*
X112093770Y-90371312D01*
X112249534Y-90267234D01*
X112422604Y-90195546D01*
X112606333Y-90159000D01*
X112793667Y-90159000D01*
X112977396Y-90195546D01*
X112977396Y-90195546D01*
G37*
G36*
X97737396Y-90195546D02*
X97910466Y-90267234D01*
X98066230Y-90371312D01*
X98198688Y-90503770D01*
X98302766Y-90659534D01*
X98374454Y-90832604D01*
X98411000Y-91016333D01*
X98411000Y-91203667D01*
X98374454Y-91387396D01*
X98302766Y-91560466D01*
X98198688Y-91716230D01*
X98066230Y-91848688D01*
X97910466Y-91952766D01*
X97737396Y-92024454D01*
X97553667Y-92061000D01*
X97366333Y-92061000D01*
X97182604Y-92024454D01*
X97009534Y-91952766D01*
X96853770Y-91848688D01*
X96721312Y-91716230D01*
X96617234Y-91560466D01*
X96545546Y-91387396D01*
X96509000Y-91203667D01*
X96509000Y-91016333D01*
X96545546Y-90832604D01*
X96617234Y-90659534D01*
X96721312Y-90503770D01*
X96853770Y-90371312D01*
X97009534Y-90267234D01*
X97182604Y-90195546D01*
X97366333Y-90159000D01*
X97553667Y-90159000D01*
X97737396Y-90195546D01*
X97737396Y-90195546D01*
G37*
G36*
X99326000Y-80651612D02*
X99318751Y-80725213D01*
X99290103Y-80819652D01*
X99243582Y-80906687D01*
X99180975Y-80982975D01*
X99104687Y-81045582D01*
X99017652Y-81092103D01*
X98923213Y-81120751D01*
X98825000Y-81130424D01*
X98726788Y-81120751D01*
X98632349Y-81092103D01*
X98545314Y-81045582D01*
X98469026Y-80982975D01*
X98406419Y-80906687D01*
X98384764Y-80866174D01*
X98359898Y-80819653D01*
X98350349Y-80788172D01*
X98331250Y-80725213D01*
X98324001Y-80651612D01*
X98324000Y-80651602D01*
X98324000Y-78194000D01*
X99326000Y-78194000D01*
X99326000Y-80651612D01*
X99326000Y-80651612D01*
G37*
G36*
X96786000Y-80651612D02*
X96778751Y-80725213D01*
X96750103Y-80819652D01*
X96703582Y-80906687D01*
X96640975Y-80982975D01*
X96564687Y-81045582D01*
X96477652Y-81092103D01*
X96383213Y-81120751D01*
X96285000Y-81130424D01*
X96186788Y-81120751D01*
X96092349Y-81092103D01*
X96005314Y-81045582D01*
X95929026Y-80982975D01*
X95866419Y-80906687D01*
X95844764Y-80866174D01*
X95819898Y-80819653D01*
X95810349Y-80788172D01*
X95791250Y-80725213D01*
X95784001Y-80651612D01*
X95784000Y-80651602D01*
X95784000Y-78194000D01*
X96786000Y-78194000D01*
X96786000Y-80651612D01*
X96786000Y-80651612D01*
G37*
G36*
X98056000Y-80651612D02*
X98048751Y-80725213D01*
X98020103Y-80819652D01*
X97973582Y-80906687D01*
X97910975Y-80982975D01*
X97834687Y-81045582D01*
X97747652Y-81092103D01*
X97653213Y-81120751D01*
X97555000Y-81130424D01*
X97456788Y-81120751D01*
X97362349Y-81092103D01*
X97275314Y-81045582D01*
X97199026Y-80982975D01*
X97136419Y-80906687D01*
X97114764Y-80866174D01*
X97089898Y-80819653D01*
X97080349Y-80788172D01*
X97061250Y-80725213D01*
X97054001Y-80651612D01*
X97054000Y-80651602D01*
X97054000Y-78194000D01*
X98056000Y-78194000D01*
X98056000Y-80651612D01*
X98056000Y-80651612D01*
G37*
G36*
X100596000Y-80651612D02*
X100588751Y-80725213D01*
X100560103Y-80819652D01*
X100513582Y-80906687D01*
X100450975Y-80982975D01*
X100374687Y-81045582D01*
X100287652Y-81092103D01*
X100193213Y-81120751D01*
X100095000Y-81130424D01*
X99996788Y-81120751D01*
X99902349Y-81092103D01*
X99815314Y-81045582D01*
X99739026Y-80982975D01*
X99676419Y-80906687D01*
X99654764Y-80866174D01*
X99629898Y-80819653D01*
X99620349Y-80788172D01*
X99601250Y-80725213D01*
X99594001Y-80651612D01*
X99594000Y-80651602D01*
X99594000Y-78194000D01*
X100596000Y-78194000D01*
X100596000Y-80651612D01*
X100596000Y-80651612D01*
G37*
G36*
X101866000Y-80651612D02*
X101858751Y-80725213D01*
X101830103Y-80819652D01*
X101783582Y-80906687D01*
X101720975Y-80982975D01*
X101644687Y-81045582D01*
X101557652Y-81092103D01*
X101463213Y-81120751D01*
X101365000Y-81130424D01*
X101266788Y-81120751D01*
X101172349Y-81092103D01*
X101085314Y-81045582D01*
X101009026Y-80982975D01*
X100946419Y-80906687D01*
X100924764Y-80866174D01*
X100899898Y-80819653D01*
X100890349Y-80788172D01*
X100871250Y-80725213D01*
X100864001Y-80651612D01*
X100864000Y-80651602D01*
X100864000Y-78194000D01*
X101866000Y-78194000D01*
X101866000Y-80651612D01*
X101866000Y-80651612D01*
G37*
G36*
X104406000Y-80651612D02*
X104398751Y-80725213D01*
X104370103Y-80819652D01*
X104323582Y-80906687D01*
X104260975Y-80982975D01*
X104184687Y-81045582D01*
X104097652Y-81092103D01*
X104003213Y-81120751D01*
X103905000Y-81130424D01*
X103806788Y-81120751D01*
X103712349Y-81092103D01*
X103625314Y-81045582D01*
X103549026Y-80982975D01*
X103486419Y-80906687D01*
X103464764Y-80866174D01*
X103439898Y-80819653D01*
X103430349Y-80788172D01*
X103411250Y-80725213D01*
X103404001Y-80651612D01*
X103404000Y-80651602D01*
X103404000Y-78194000D01*
X104406000Y-78194000D01*
X104406000Y-80651612D01*
X104406000Y-80651612D01*
G37*
G36*
X105676000Y-80651612D02*
X105668751Y-80725213D01*
X105640103Y-80819652D01*
X105593582Y-80906687D01*
X105530975Y-80982975D01*
X105454687Y-81045582D01*
X105367652Y-81092103D01*
X105273213Y-81120751D01*
X105175000Y-81130424D01*
X105076788Y-81120751D01*
X104982349Y-81092103D01*
X104895314Y-81045582D01*
X104819026Y-80982975D01*
X104756419Y-80906687D01*
X104734764Y-80866174D01*
X104709898Y-80819653D01*
X104700349Y-80788172D01*
X104681250Y-80725213D01*
X104674001Y-80651612D01*
X104674000Y-80651602D01*
X104674000Y-78194000D01*
X105676000Y-78194000D01*
X105676000Y-80651612D01*
X105676000Y-80651612D01*
G37*
G36*
X103136000Y-80651612D02*
X103128751Y-80725213D01*
X103100103Y-80819652D01*
X103053582Y-80906687D01*
X102990975Y-80982975D01*
X102914687Y-81045582D01*
X102827652Y-81092103D01*
X102733213Y-81120751D01*
X102635000Y-81130424D01*
X102536788Y-81120751D01*
X102442349Y-81092103D01*
X102355314Y-81045582D01*
X102279026Y-80982975D01*
X102216419Y-80906687D01*
X102194764Y-80866174D01*
X102169898Y-80819653D01*
X102160349Y-80788172D01*
X102141250Y-80725213D01*
X102134001Y-80651612D01*
X102134000Y-80651602D01*
X102134000Y-78194000D01*
X103136000Y-78194000D01*
X103136000Y-80651612D01*
X103136000Y-80651612D01*
G37*
G36*
X115517396Y-74955546D02*
X115690466Y-75027234D01*
X115846230Y-75131312D01*
X115978688Y-75263770D01*
X116082766Y-75419534D01*
X116154454Y-75592604D01*
X116191000Y-75776333D01*
X116191000Y-75963667D01*
X116154454Y-76147396D01*
X116082766Y-76320466D01*
X115978688Y-76476230D01*
X115846230Y-76608688D01*
X115690466Y-76712766D01*
X115517396Y-76784454D01*
X115333667Y-76821000D01*
X115146333Y-76821000D01*
X114962604Y-76784454D01*
X114789534Y-76712766D01*
X114633770Y-76608688D01*
X114501312Y-76476230D01*
X114397234Y-76320466D01*
X114325546Y-76147396D01*
X114289000Y-75963667D01*
X114289000Y-75776333D01*
X114325546Y-75592604D01*
X114397234Y-75419534D01*
X114501312Y-75263770D01*
X114633770Y-75131312D01*
X114789534Y-75027234D01*
X114962604Y-74955546D01*
X115146333Y-74919000D01*
X115333667Y-74919000D01*
X115517396Y-74955546D01*
X115517396Y-74955546D01*
G37*
G36*
X112977396Y-74955546D02*
X113150466Y-75027234D01*
X113306230Y-75131312D01*
X113438688Y-75263770D01*
X113542766Y-75419534D01*
X113614454Y-75592604D01*
X113651000Y-75776333D01*
X113651000Y-75963667D01*
X113614454Y-76147396D01*
X113542766Y-76320466D01*
X113438688Y-76476230D01*
X113306230Y-76608688D01*
X113150466Y-76712766D01*
X112977396Y-76784454D01*
X112793667Y-76821000D01*
X112606333Y-76821000D01*
X112422604Y-76784454D01*
X112249534Y-76712766D01*
X112093770Y-76608688D01*
X111961312Y-76476230D01*
X111857234Y-76320466D01*
X111785546Y-76147396D01*
X111749000Y-75963667D01*
X111749000Y-75776333D01*
X111785546Y-75592604D01*
X111857234Y-75419534D01*
X111961312Y-75263770D01*
X112093770Y-75131312D01*
X112249534Y-75027234D01*
X112422604Y-74955546D01*
X112606333Y-74919000D01*
X112793667Y-74919000D01*
X112977396Y-74955546D01*
X112977396Y-74955546D01*
G37*
G36*
X110437396Y-74955546D02*
X110610466Y-75027234D01*
X110766230Y-75131312D01*
X110898688Y-75263770D01*
X111002766Y-75419534D01*
X111074454Y-75592604D01*
X111111000Y-75776333D01*
X111111000Y-75963667D01*
X111074454Y-76147396D01*
X111002766Y-76320466D01*
X110898688Y-76476230D01*
X110766230Y-76608688D01*
X110610466Y-76712766D01*
X110437396Y-76784454D01*
X110253667Y-76821000D01*
X110066333Y-76821000D01*
X109882604Y-76784454D01*
X109709534Y-76712766D01*
X109553770Y-76608688D01*
X109421312Y-76476230D01*
X109317234Y-76320466D01*
X109245546Y-76147396D01*
X109209000Y-75963667D01*
X109209000Y-75776333D01*
X109245546Y-75592604D01*
X109317234Y-75419534D01*
X109421312Y-75263770D01*
X109553770Y-75131312D01*
X109709534Y-75027234D01*
X109882604Y-74955546D01*
X110066333Y-74919000D01*
X110253667Y-74919000D01*
X110437396Y-74955546D01*
X110437396Y-74955546D01*
G37*
G36*
X107897396Y-74955546D02*
X108070466Y-75027234D01*
X108226230Y-75131312D01*
X108358688Y-75263770D01*
X108462766Y-75419534D01*
X108534454Y-75592604D01*
X108571000Y-75776333D01*
X108571000Y-75963667D01*
X108534454Y-76147396D01*
X108462766Y-76320466D01*
X108358688Y-76476230D01*
X108226230Y-76608688D01*
X108070466Y-76712766D01*
X107897396Y-76784454D01*
X107713667Y-76821000D01*
X107526333Y-76821000D01*
X107342604Y-76784454D01*
X107169534Y-76712766D01*
X107013770Y-76608688D01*
X106881312Y-76476230D01*
X106777234Y-76320466D01*
X106705546Y-76147396D01*
X106669000Y-75963667D01*
X106669000Y-75776333D01*
X106705546Y-75592604D01*
X106777234Y-75419534D01*
X106881312Y-75263770D01*
X107013770Y-75131312D01*
X107169534Y-75027234D01*
X107342604Y-74955546D01*
X107526333Y-74919000D01*
X107713667Y-74919000D01*
X107897396Y-74955546D01*
X107897396Y-74955546D01*
G37*
G36*
X90117396Y-74955546D02*
X90290466Y-75027234D01*
X90446230Y-75131312D01*
X90578688Y-75263770D01*
X90682766Y-75419534D01*
X90754454Y-75592604D01*
X90791000Y-75776333D01*
X90791000Y-75963667D01*
X90754454Y-76147396D01*
X90682766Y-76320466D01*
X90578688Y-76476230D01*
X90446230Y-76608688D01*
X90290466Y-76712766D01*
X90117396Y-76784454D01*
X89933667Y-76821000D01*
X89746333Y-76821000D01*
X89562604Y-76784454D01*
X89389534Y-76712766D01*
X89233770Y-76608688D01*
X89101312Y-76476230D01*
X88997234Y-76320466D01*
X88925546Y-76147396D01*
X88889000Y-75963667D01*
X88889000Y-75776333D01*
X88925546Y-75592604D01*
X88997234Y-75419534D01*
X89101312Y-75263770D01*
X89233770Y-75131312D01*
X89389534Y-75027234D01*
X89562604Y-74955546D01*
X89746333Y-74919000D01*
X89933667Y-74919000D01*
X90117396Y-74955546D01*
X90117396Y-74955546D01*
G37*
G36*
X95197396Y-74955546D02*
X95370466Y-75027234D01*
X95526230Y-75131312D01*
X95658688Y-75263770D01*
X95762766Y-75419534D01*
X95834454Y-75592604D01*
X95871000Y-75776333D01*
X95871000Y-75963667D01*
X95834454Y-76147396D01*
X95762766Y-76320466D01*
X95658688Y-76476230D01*
X95526230Y-76608688D01*
X95370466Y-76712766D01*
X95197396Y-76784454D01*
X95013667Y-76821000D01*
X94826333Y-76821000D01*
X94642604Y-76784454D01*
X94469534Y-76712766D01*
X94313770Y-76608688D01*
X94181312Y-76476230D01*
X94077234Y-76320466D01*
X94005546Y-76147396D01*
X93969000Y-75963667D01*
X93969000Y-75776333D01*
X94005546Y-75592604D01*
X94077234Y-75419534D01*
X94181312Y-75263770D01*
X94313770Y-75131312D01*
X94469534Y-75027234D01*
X94642604Y-74955546D01*
X94826333Y-74919000D01*
X95013667Y-74919000D01*
X95197396Y-74955546D01*
X95197396Y-74955546D01*
G37*
M02*
