%TF.GenerationSoftware,KiCad,Pcbnew,(5.0.1)-4*%
%TF.CreationDate,2020-03-09T19:56:50+01:00*%
%TF.ProjectId,Funk-Schaltsteckdose,46756E6B2D536368616C74737465636B,rev?*%
%TF.SameCoordinates,Original*%
%TF.FileFunction,Legend,Top*%
%TF.FilePolarity,Positive*%
%FSLAX46Y46*%
G04 Gerber Fmt 4.6, Leading zero omitted, Abs format (unit mm)*
G04 Created by KiCad (PCBNEW (5.0.1)-4) date 09.03.2020 19:56:50*
%MOMM*%
%LPD*%
G01*
G04 APERTURE LIST*
%ADD10C,0.300000*%
%ADD11C,0.150000*%
%ADD12C,0.200000*%
%ADD13C,0.120000*%
G04 APERTURE END LIST*
D10*
X138329877Y-108971042D02*
X138329995Y-109256756D01*
X138401483Y-109399584D01*
X138472941Y-109470983D01*
X138687286Y-109613751D01*
X138973030Y-109685061D01*
X139544459Y-109684824D01*
X139687286Y-109613336D01*
X139758685Y-109541878D01*
X139830055Y-109398991D01*
X139829936Y-109113277D01*
X139758448Y-108970449D01*
X139686990Y-108899050D01*
X139544103Y-108827681D01*
X139186960Y-108827829D01*
X139044133Y-108899317D01*
X138972734Y-108970775D01*
X138901365Y-109113662D01*
X138901483Y-109399376D01*
X138972971Y-109542204D01*
X139044429Y-109613603D01*
X139187316Y-109684972D01*
X139830706Y-110970420D02*
X139830588Y-110684705D01*
X139759100Y-110541878D01*
X139687642Y-110470479D01*
X139473297Y-110327711D01*
X139187553Y-110256401D01*
X138616124Y-110256638D01*
X138473297Y-110328125D01*
X138401898Y-110399584D01*
X138330529Y-110542470D01*
X138330647Y-110828185D01*
X138402135Y-110971012D01*
X138473593Y-111042411D01*
X138616480Y-111113780D01*
X138973623Y-111113632D01*
X139116450Y-111042144D01*
X139187849Y-110970686D01*
X139259218Y-110827799D01*
X139259100Y-110542085D01*
X139187612Y-110399258D01*
X139116154Y-110327859D01*
X138973267Y-110256489D01*
X138402490Y-111828155D02*
X138331062Y-111828184D01*
X138188175Y-111756815D01*
X138116717Y-111685416D01*
X139831624Y-113184705D02*
X139831328Y-112470420D01*
X139117013Y-112399287D01*
X139188471Y-112470686D01*
X139259959Y-112613514D01*
X139260107Y-112970656D01*
X139188738Y-113113543D01*
X139117339Y-113185001D01*
X138974511Y-113256489D01*
X138617368Y-113256637D01*
X138474482Y-113185268D01*
X138403023Y-113113869D01*
X138331536Y-112971041D01*
X138331388Y-112613899D01*
X138402757Y-112471012D01*
X138474156Y-112399554D01*
X139832039Y-114184705D02*
X139832098Y-114327562D01*
X139760729Y-114470449D01*
X139689330Y-114541907D01*
X139546503Y-114613395D01*
X139260818Y-114684942D01*
X138903675Y-114685090D01*
X138617931Y-114613780D01*
X138475044Y-114542411D01*
X138403586Y-114471012D01*
X138332098Y-114328184D01*
X138332039Y-114185327D01*
X138403409Y-114042440D01*
X138474807Y-113970982D01*
X138617635Y-113899494D01*
X138903320Y-113827947D01*
X139260462Y-113827799D01*
X139546206Y-113899109D01*
X139689093Y-113970479D01*
X139760551Y-114041878D01*
X139832039Y-114184705D01*
X136889604Y-63527346D02*
X136929604Y-159987346D01*
X130490000Y-63530000D02*
X137476025Y-63527103D01*
X130530000Y-159990000D02*
X137516025Y-159987103D01*
X136929604Y-159987346D02*
X136342716Y-158861086D01*
X136929604Y-159987346D02*
X137515558Y-158860599D01*
X136889604Y-63527346D02*
X136303650Y-64654093D01*
X136889604Y-63527346D02*
X137476492Y-64653606D01*
X97787536Y-164519697D02*
X97501822Y-164520119D01*
X97359070Y-164591758D01*
X97287747Y-164663292D01*
X97145207Y-164877788D01*
X97074200Y-165163608D01*
X97075043Y-165735036D01*
X97146682Y-165877787D01*
X97218216Y-165949110D01*
X97361179Y-166020328D01*
X97646893Y-166019907D01*
X97789644Y-165948267D01*
X97860967Y-165876733D01*
X97932185Y-165733771D01*
X97931658Y-165376628D01*
X97860019Y-165233877D01*
X97788485Y-165162554D01*
X97645522Y-165091336D01*
X97359808Y-165091758D01*
X97217057Y-165163397D01*
X97145734Y-165234931D01*
X97074516Y-165377893D01*
X99361176Y-166017377D02*
X98504034Y-166018642D01*
X98932605Y-166018009D02*
X98930392Y-164518011D01*
X98787851Y-164732507D01*
X98645205Y-164875575D01*
X98502453Y-164947214D01*
X100075356Y-165944894D02*
X100075461Y-166016323D01*
X100004244Y-166159285D01*
X99932921Y-166230819D01*
X101001818Y-164514954D02*
X101144675Y-164514743D01*
X101287638Y-164585961D01*
X101359172Y-164657284D01*
X101430811Y-164800036D01*
X101502661Y-165085644D01*
X101503188Y-165442787D01*
X101432181Y-165728606D01*
X101360963Y-165871569D01*
X101289640Y-165943102D01*
X101146889Y-166014742D01*
X101004032Y-166014953D01*
X100861069Y-165943735D01*
X100789535Y-165872412D01*
X100717896Y-165729660D01*
X100646046Y-165444052D01*
X100645519Y-165086909D01*
X100716526Y-164801090D01*
X100787744Y-164658127D01*
X100859067Y-164586593D01*
X101001818Y-164514954D01*
X102430388Y-164512846D02*
X102573245Y-164512635D01*
X102716208Y-164583853D01*
X102787741Y-164655176D01*
X102859381Y-164797928D01*
X102931231Y-165083536D01*
X102931758Y-165440679D01*
X102860751Y-165726498D01*
X102789533Y-165869460D01*
X102718210Y-165940994D01*
X102575459Y-166012634D01*
X102432602Y-166012844D01*
X102289639Y-165941627D01*
X102218105Y-165870304D01*
X102146466Y-165727552D01*
X102074616Y-165441944D01*
X102074089Y-165084801D01*
X102145096Y-164798982D01*
X102216313Y-164656019D01*
X102287637Y-164584485D01*
X102430388Y-164512846D01*
X69504933Y-163282860D02*
X130494933Y-163192860D01*
X69500000Y-159940000D02*
X69505798Y-163869280D01*
X130490000Y-159850000D02*
X130495798Y-163779280D01*
X130494933Y-163192860D02*
X129369296Y-163780942D01*
X130494933Y-163192860D02*
X129367565Y-162608102D01*
X69504933Y-163282860D02*
X70632301Y-163867618D01*
X69504933Y-163282860D02*
X70630570Y-162694778D01*
X120151571Y-147662142D02*
X118723000Y-147662142D01*
X118723000Y-144662142D01*
X115119285Y-147662142D02*
X113690714Y-147662142D01*
X113690714Y-144662142D01*
X116262142Y-144662142D02*
X115976428Y-145233571D01*
X84837857Y-147662142D02*
X84837857Y-144662142D01*
X86552142Y-147662142D01*
X86552142Y-144662142D01*
D11*
X113419000Y-73407000D02*
G75*
G03X113419000Y-73407000I-800000J0D01*
G01*
X88273000Y-73407000D02*
G75*
G03X88273000Y-73407000I-800000J0D01*
G01*
X82447000Y-91949000D02*
G75*
G03X82447000Y-91949000I-800000J0D01*
G01*
X119023000Y-91949000D02*
G75*
G03X119023000Y-91949000I-800000J0D01*
G01*
X107015000Y-96775000D02*
G75*
G03X107015000Y-96775000I-1000000J0D01*
G01*
D12*
X82150901Y-75467983D02*
G75*
G02X84065149Y-73283707I2931366J-638041D01*
G01*
X81000000Y-95000000D02*
G75*
G02X81000000Y-105000000I0J-5000000D01*
G01*
X80196658Y-75042623D02*
G75*
G02X83387070Y-71402163I4885609J-1063401D01*
G01*
X115068543Y-155000001D02*
G75*
G02X113820194Y-154461510I0J1716230D01*
G01*
X122685153Y-103000000D02*
G75*
G02X124393757Y-104554632I0J-1716229D01*
G01*
X74506558Y-129807258D02*
G75*
G02X76506506Y-129792742I999974J7258D01*
G01*
X101762500Y-70533059D02*
G75*
G02X115934851Y-73283707I-1762500J-46966941D01*
G01*
X101837500Y-68534465D02*
G75*
G02X116612930Y-71402163I-1837500J-48965535D01*
G01*
X76506506Y-126207258D02*
G75*
G02X77573182Y-105000000I246993494J-1792742D01*
G01*
X78390001Y-97000000D02*
X81000000Y-97000000D01*
X125493442Y-126192742D02*
G75*
G02X123493494Y-126207258I-999974J-7258D01*
G01*
X76506505Y-126207258D02*
G75*
G02X74506559Y-126192742I-999973J7258D01*
G01*
X75606243Y-104554632D02*
G75*
G02X77314847Y-103000000I1708604J-161597D01*
G01*
X83387070Y-71402163D02*
G75*
G02X98162500Y-68534465I16612930J-46097837D01*
G01*
X97500000Y-145000000D02*
G75*
G02X98500000Y-144000000I1000000J0D01*
G01*
X123493494Y-129792742D02*
G75*
G02X122231561Y-153000000I-246993494J1792742D01*
G01*
X75804972Y-153459248D02*
G75*
G02X74506559Y-129807258I247695028J25459248D01*
G01*
X81000000Y-95000000D02*
X78714380Y-95000000D01*
X122426818Y-105000000D02*
G75*
G02X123493494Y-126207258I-245926818J-23000000D01*
G01*
X119803342Y-75042623D02*
G75*
G02X123311142Y-95056710I-243303342J-52957377D01*
G01*
X98162500Y-68534465D02*
G75*
G02X98237500Y-70533059I37500J-999297D01*
G01*
X81000000Y-97000000D02*
G75*
G02X81000000Y-103000000I0J-3000000D01*
G01*
X76688858Y-95056710D02*
G75*
G02X80196658Y-75042623I246811142J-32943290D01*
G01*
X125493442Y-129807258D02*
G75*
G02X124195028Y-153459249I-248993442J1807258D01*
G01*
X101762500Y-70533059D02*
G75*
G02X101837500Y-68534465I37500J999297D01*
G01*
X77512207Y-155000001D02*
G75*
G02X75804972Y-153459249I0J1716230D01*
G01*
X102500000Y-146649341D02*
G75*
G02X115190458Y-153000000I-2500000J-20850659D01*
G01*
X124195027Y-153459249D02*
G75*
G02X122487793Y-155000000I-1707234J175478D01*
G01*
X116612930Y-71402163D02*
G75*
G02X119803342Y-75042623I-1695197J-4703861D01*
G01*
X86179806Y-154461510D02*
G75*
G02X113820194Y-154461510I13820194J-13038490D01*
G01*
X119000000Y-103000000D02*
G75*
G02X119000000Y-97000000I0J3000000D01*
G01*
X124393757Y-104554632D02*
G75*
G02X125493441Y-126192742I-247893757J-23445368D01*
G01*
X123311141Y-95056710D02*
G75*
G02X121609999Y-97000000I-1701142J-227061D01*
G01*
X115934851Y-73283707D02*
G75*
G02X117849098Y-75467983I-1017118J-2822317D01*
G01*
X74506559Y-126192742D02*
G75*
G02X75606243Y-104554632I248993441J-1807258D01*
G01*
X123493495Y-129792742D02*
G75*
G02X125493441Y-129807258I999973J-7258D01*
G01*
X78390001Y-97000001D02*
G75*
G02X76688858Y-95056710I0J1716230D01*
G01*
X81000000Y-103000000D02*
X77314847Y-103000000D01*
X78714380Y-95000000D02*
G75*
G02X82150902Y-75467983I244785620J-33000000D01*
G01*
X101500000Y-144000000D02*
G75*
G02X102500000Y-145000000I0J-1000000D01*
G01*
X84809542Y-153000000D02*
G75*
G02X97500000Y-146649341I15190458J-14500000D01*
G01*
X86179805Y-154461510D02*
G75*
G02X84931457Y-155000000I-1248348J1177739D01*
G01*
X84065149Y-73283707D02*
G75*
G02X98237500Y-70533059I15934851J-44216293D01*
G01*
X119000000Y-105000000D02*
G75*
G02X119000000Y-95000000I0J5000000D01*
G01*
X77573182Y-105000000D02*
X81000000Y-105000000D01*
X117849098Y-75467983D02*
G75*
G02X121285620Y-95000000I-241349098J-52532017D01*
G01*
X77768439Y-153000000D02*
G75*
G02X76506506Y-129792742I245731561J25000000D01*
G01*
X97500000Y-145000000D02*
X97500000Y-146649341D01*
X101500000Y-144000000D02*
X98500000Y-144000000D01*
X102500000Y-146649341D02*
X102500000Y-145000000D01*
X119000000Y-97000000D02*
X121609999Y-97000000D01*
X69500000Y-63500000D02*
X69500000Y-160000000D01*
X69500000Y-160000000D02*
X130500000Y-160000000D01*
X76000000Y-128000000D02*
G75*
G03X76000000Y-128000000I-500000J0D01*
G01*
X77512207Y-155000000D02*
X84931457Y-155000000D01*
X119000000Y-105000000D02*
X122426818Y-105000000D01*
X122231561Y-153000000D02*
X115190458Y-153000000D01*
X115068543Y-155000000D02*
X122487793Y-155000000D01*
X84809542Y-153000000D02*
X77768439Y-153000000D01*
X130500000Y-160000000D02*
X130500000Y-63500000D01*
X121285620Y-95000000D02*
X119000000Y-95000000D01*
X122685153Y-103000000D02*
X119000000Y-103000000D01*
X130500000Y-63500000D02*
X69500000Y-63500000D01*
X125000000Y-128000000D02*
G75*
G03X125000000Y-128000000I-500000J0D01*
G01*
X100500000Y-69500000D02*
G75*
G03X100500000Y-69500000I-500000J0D01*
G01*
D11*
X83490000Y-76505000D02*
G75*
G02X86030000Y-76505000I1270000J0D01*
G01*
X86030000Y-90475000D02*
G75*
G02X83490000Y-90475000I-1270000J0D01*
G01*
X86030000Y-90475000D02*
X86030000Y-76505000D01*
X83490000Y-76505000D02*
X83490000Y-90475000D01*
D13*
%TO.C,K1*%
X111535000Y-120280000D02*
X111535000Y-122780000D01*
X111810000Y-139930000D02*
X111810000Y-119655000D01*
X123060000Y-139930000D02*
X111810000Y-139930000D01*
X123060000Y-119655000D02*
X123060000Y-139930000D01*
X111810000Y-119655000D02*
X123060000Y-119655000D01*
D11*
%TO.C,PS1*%
X77100000Y-123800000D02*
X111100000Y-123800000D01*
X77100000Y-144000000D02*
X77100000Y-123800000D01*
X111100000Y-144000000D02*
X77100000Y-144000000D01*
X111100000Y-123800000D02*
X111100000Y-144000000D01*
%TO.C,U1*%
X116510000Y-92380000D02*
X116510000Y-74600000D01*
X83490000Y-92380000D02*
X116510000Y-92380000D01*
X83490000Y-74600000D02*
X83490000Y-92380000D01*
X116510000Y-74600000D02*
X83490000Y-74600000D01*
X106350000Y-83490000D02*
X101270000Y-78410000D01*
X101270000Y-88570000D02*
X106350000Y-83490000D01*
X96190000Y-83490000D02*
X101270000Y-88570000D01*
X101270000Y-78410000D02*
X96190000Y-83490000D01*
X111430000Y-86030000D02*
X113970000Y-86030000D01*
X111430000Y-80950000D02*
X111430000Y-86030000D01*
X113970000Y-80950000D02*
X111430000Y-80950000D01*
X113970000Y-86030000D02*
X113970000Y-80950000D01*
X85395000Y-89840000D02*
G75*
G03X85395000Y-89840000I-635000J0D01*
G01*
X85395000Y-87300000D02*
G75*
G03X85395000Y-87300000I-635000J0D01*
G01*
X85395000Y-84760000D02*
G75*
G03X85395000Y-84760000I-635000J0D01*
G01*
X85395000Y-82220000D02*
G75*
G03X85395000Y-82220000I-635000J0D01*
G01*
X85395000Y-79680000D02*
G75*
G03X85395000Y-79680000I-635000J0D01*
G01*
X85395000Y-77140000D02*
G75*
G03X85395000Y-77140000I-635000J0D01*
G01*
D13*
%TO.C,U2*%
X97375000Y-113539000D02*
X94585000Y-113539000D01*
X97375000Y-114809000D02*
X94585000Y-114809000D01*
X97375000Y-116079000D02*
X94585000Y-116079000D01*
X94585000Y-112409000D02*
X94585000Y-117209000D01*
X94585000Y-117209000D02*
X89395000Y-117209000D01*
X89395000Y-117209000D02*
X89395000Y-112409000D01*
X89395000Y-112409000D02*
X94585000Y-112409000D01*
%TO.C,Q1*%
X106755000Y-123009000D02*
X110355000Y-123009000D01*
X106716522Y-122997478D02*
G75*
G02X108555000Y-118559000I1838478J1838478D01*
G01*
X110393478Y-122997478D02*
G75*
G03X108555000Y-118559000I-1838478J1838478D01*
G01*
%TO.C,C2*%
X105333000Y-120885000D02*
G75*
G03X105333000Y-120885000I-2620000J0D01*
G01*
X105293000Y-120885000D02*
X100133000Y-120885000D01*
X105293000Y-120925000D02*
X100133000Y-120925000D01*
X105292000Y-120965000D02*
X100134000Y-120965000D01*
X105291000Y-121005000D02*
X100135000Y-121005000D01*
X105289000Y-121045000D02*
X100137000Y-121045000D01*
X105286000Y-121085000D02*
X100140000Y-121085000D01*
X105282000Y-121125000D02*
X103753000Y-121125000D01*
X101673000Y-121125000D02*
X100144000Y-121125000D01*
X105278000Y-121165000D02*
X103753000Y-121165000D01*
X101673000Y-121165000D02*
X100148000Y-121165000D01*
X105274000Y-121205000D02*
X103753000Y-121205000D01*
X101673000Y-121205000D02*
X100152000Y-121205000D01*
X105269000Y-121245000D02*
X103753000Y-121245000D01*
X101673000Y-121245000D02*
X100157000Y-121245000D01*
X105263000Y-121285000D02*
X103753000Y-121285000D01*
X101673000Y-121285000D02*
X100163000Y-121285000D01*
X105256000Y-121325000D02*
X103753000Y-121325000D01*
X101673000Y-121325000D02*
X100170000Y-121325000D01*
X105249000Y-121365000D02*
X103753000Y-121365000D01*
X101673000Y-121365000D02*
X100177000Y-121365000D01*
X105241000Y-121405000D02*
X103753000Y-121405000D01*
X101673000Y-121405000D02*
X100185000Y-121405000D01*
X105233000Y-121445000D02*
X103753000Y-121445000D01*
X101673000Y-121445000D02*
X100193000Y-121445000D01*
X105224000Y-121485000D02*
X103753000Y-121485000D01*
X101673000Y-121485000D02*
X100202000Y-121485000D01*
X105214000Y-121525000D02*
X103753000Y-121525000D01*
X101673000Y-121525000D02*
X100212000Y-121525000D01*
X105204000Y-121565000D02*
X103753000Y-121565000D01*
X101673000Y-121565000D02*
X100222000Y-121565000D01*
X105193000Y-121606000D02*
X103753000Y-121606000D01*
X101673000Y-121606000D02*
X100233000Y-121606000D01*
X105181000Y-121646000D02*
X103753000Y-121646000D01*
X101673000Y-121646000D02*
X100245000Y-121646000D01*
X105168000Y-121686000D02*
X103753000Y-121686000D01*
X101673000Y-121686000D02*
X100258000Y-121686000D01*
X105155000Y-121726000D02*
X103753000Y-121726000D01*
X101673000Y-121726000D02*
X100271000Y-121726000D01*
X105141000Y-121766000D02*
X103753000Y-121766000D01*
X101673000Y-121766000D02*
X100285000Y-121766000D01*
X105127000Y-121806000D02*
X103753000Y-121806000D01*
X101673000Y-121806000D02*
X100299000Y-121806000D01*
X105111000Y-121846000D02*
X103753000Y-121846000D01*
X101673000Y-121846000D02*
X100315000Y-121846000D01*
X105095000Y-121886000D02*
X103753000Y-121886000D01*
X101673000Y-121886000D02*
X100331000Y-121886000D01*
X105078000Y-121926000D02*
X103753000Y-121926000D01*
X101673000Y-121926000D02*
X100348000Y-121926000D01*
X105061000Y-121966000D02*
X103753000Y-121966000D01*
X101673000Y-121966000D02*
X100365000Y-121966000D01*
X105042000Y-122006000D02*
X103753000Y-122006000D01*
X101673000Y-122006000D02*
X100384000Y-122006000D01*
X105023000Y-122046000D02*
X103753000Y-122046000D01*
X101673000Y-122046000D02*
X100403000Y-122046000D01*
X105003000Y-122086000D02*
X103753000Y-122086000D01*
X101673000Y-122086000D02*
X100423000Y-122086000D01*
X104981000Y-122126000D02*
X103753000Y-122126000D01*
X101673000Y-122126000D02*
X100445000Y-122126000D01*
X104960000Y-122166000D02*
X103753000Y-122166000D01*
X101673000Y-122166000D02*
X100466000Y-122166000D01*
X104937000Y-122206000D02*
X103753000Y-122206000D01*
X101673000Y-122206000D02*
X100489000Y-122206000D01*
X104913000Y-122246000D02*
X103753000Y-122246000D01*
X101673000Y-122246000D02*
X100513000Y-122246000D01*
X104888000Y-122286000D02*
X103753000Y-122286000D01*
X101673000Y-122286000D02*
X100538000Y-122286000D01*
X104862000Y-122326000D02*
X103753000Y-122326000D01*
X101673000Y-122326000D02*
X100564000Y-122326000D01*
X104835000Y-122366000D02*
X103753000Y-122366000D01*
X101673000Y-122366000D02*
X100591000Y-122366000D01*
X104808000Y-122406000D02*
X103753000Y-122406000D01*
X101673000Y-122406000D02*
X100618000Y-122406000D01*
X104778000Y-122446000D02*
X103753000Y-122446000D01*
X101673000Y-122446000D02*
X100648000Y-122446000D01*
X104748000Y-122486000D02*
X103753000Y-122486000D01*
X101673000Y-122486000D02*
X100678000Y-122486000D01*
X104717000Y-122526000D02*
X103753000Y-122526000D01*
X101673000Y-122526000D02*
X100709000Y-122526000D01*
X104684000Y-122566000D02*
X103753000Y-122566000D01*
X101673000Y-122566000D02*
X100742000Y-122566000D01*
X104650000Y-122606000D02*
X103753000Y-122606000D01*
X101673000Y-122606000D02*
X100776000Y-122606000D01*
X104614000Y-122646000D02*
X103753000Y-122646000D01*
X101673000Y-122646000D02*
X100812000Y-122646000D01*
X104577000Y-122686000D02*
X103753000Y-122686000D01*
X101673000Y-122686000D02*
X100849000Y-122686000D01*
X104539000Y-122726000D02*
X103753000Y-122726000D01*
X101673000Y-122726000D02*
X100887000Y-122726000D01*
X104498000Y-122766000D02*
X103753000Y-122766000D01*
X101673000Y-122766000D02*
X100928000Y-122766000D01*
X104456000Y-122806000D02*
X103753000Y-122806000D01*
X101673000Y-122806000D02*
X100970000Y-122806000D01*
X104412000Y-122846000D02*
X103753000Y-122846000D01*
X101673000Y-122846000D02*
X101014000Y-122846000D01*
X104366000Y-122886000D02*
X103753000Y-122886000D01*
X101673000Y-122886000D02*
X101060000Y-122886000D01*
X104318000Y-122926000D02*
X103753000Y-122926000D01*
X101673000Y-122926000D02*
X101108000Y-122926000D01*
X104267000Y-122966000D02*
X103753000Y-122966000D01*
X101673000Y-122966000D02*
X101159000Y-122966000D01*
X104213000Y-123006000D02*
X103753000Y-123006000D01*
X101673000Y-123006000D02*
X101213000Y-123006000D01*
X104156000Y-123046000D02*
X103753000Y-123046000D01*
X101673000Y-123046000D02*
X101270000Y-123046000D01*
X104096000Y-123086000D02*
X103753000Y-123086000D01*
X101673000Y-123086000D02*
X101330000Y-123086000D01*
X104032000Y-123126000D02*
X103753000Y-123126000D01*
X101673000Y-123126000D02*
X101394000Y-123126000D01*
X103964000Y-123166000D02*
X103753000Y-123166000D01*
X101673000Y-123166000D02*
X101462000Y-123166000D01*
X103891000Y-123206000D02*
X101535000Y-123206000D01*
X103811000Y-123246000D02*
X101615000Y-123246000D01*
X103724000Y-123286000D02*
X101702000Y-123286000D01*
X103628000Y-123326000D02*
X101798000Y-123326000D01*
X103518000Y-123366000D02*
X101908000Y-123366000D01*
X103390000Y-123406000D02*
X102036000Y-123406000D01*
X103231000Y-123446000D02*
X102195000Y-123446000D01*
X102997000Y-123486000D02*
X102429000Y-123486000D01*
X104188000Y-118080225D02*
X104188000Y-118580225D01*
X104438000Y-118330225D02*
X103938000Y-118330225D01*
%TO.C,C1*%
X122307000Y-113285000D02*
G75*
G03X122307000Y-113285000I-4120000J0D01*
G01*
X118187000Y-109205000D02*
X118187000Y-117365000D01*
X118227000Y-109205000D02*
X118227000Y-117365000D01*
X118267000Y-109205000D02*
X118267000Y-117365000D01*
X118307000Y-109206000D02*
X118307000Y-117364000D01*
X118347000Y-109208000D02*
X118347000Y-117362000D01*
X118387000Y-109209000D02*
X118387000Y-117361000D01*
X118427000Y-109211000D02*
X118427000Y-112245000D01*
X118427000Y-114325000D02*
X118427000Y-117359000D01*
X118467000Y-109214000D02*
X118467000Y-112245000D01*
X118467000Y-114325000D02*
X118467000Y-117356000D01*
X118507000Y-109217000D02*
X118507000Y-112245000D01*
X118507000Y-114325000D02*
X118507000Y-117353000D01*
X118547000Y-109220000D02*
X118547000Y-112245000D01*
X118547000Y-114325000D02*
X118547000Y-117350000D01*
X118587000Y-109224000D02*
X118587000Y-112245000D01*
X118587000Y-114325000D02*
X118587000Y-117346000D01*
X118627000Y-109228000D02*
X118627000Y-112245000D01*
X118627000Y-114325000D02*
X118627000Y-117342000D01*
X118667000Y-109233000D02*
X118667000Y-112245000D01*
X118667000Y-114325000D02*
X118667000Y-117337000D01*
X118707000Y-109237000D02*
X118707000Y-112245000D01*
X118707000Y-114325000D02*
X118707000Y-117333000D01*
X118747000Y-109243000D02*
X118747000Y-112245000D01*
X118747000Y-114325000D02*
X118747000Y-117327000D01*
X118787000Y-109248000D02*
X118787000Y-112245000D01*
X118787000Y-114325000D02*
X118787000Y-117322000D01*
X118827000Y-109255000D02*
X118827000Y-112245000D01*
X118827000Y-114325000D02*
X118827000Y-117315000D01*
X118867000Y-109261000D02*
X118867000Y-112245000D01*
X118867000Y-114325000D02*
X118867000Y-117309000D01*
X118908000Y-109268000D02*
X118908000Y-112245000D01*
X118908000Y-114325000D02*
X118908000Y-117302000D01*
X118948000Y-109275000D02*
X118948000Y-112245000D01*
X118948000Y-114325000D02*
X118948000Y-117295000D01*
X118988000Y-109283000D02*
X118988000Y-112245000D01*
X118988000Y-114325000D02*
X118988000Y-117287000D01*
X119028000Y-109291000D02*
X119028000Y-112245000D01*
X119028000Y-114325000D02*
X119028000Y-117279000D01*
X119068000Y-109300000D02*
X119068000Y-112245000D01*
X119068000Y-114325000D02*
X119068000Y-117270000D01*
X119108000Y-109309000D02*
X119108000Y-112245000D01*
X119108000Y-114325000D02*
X119108000Y-117261000D01*
X119148000Y-109318000D02*
X119148000Y-112245000D01*
X119148000Y-114325000D02*
X119148000Y-117252000D01*
X119188000Y-109328000D02*
X119188000Y-112245000D01*
X119188000Y-114325000D02*
X119188000Y-117242000D01*
X119228000Y-109338000D02*
X119228000Y-112245000D01*
X119228000Y-114325000D02*
X119228000Y-117232000D01*
X119268000Y-109349000D02*
X119268000Y-112245000D01*
X119268000Y-114325000D02*
X119268000Y-117221000D01*
X119308000Y-109360000D02*
X119308000Y-112245000D01*
X119308000Y-114325000D02*
X119308000Y-117210000D01*
X119348000Y-109371000D02*
X119348000Y-112245000D01*
X119348000Y-114325000D02*
X119348000Y-117199000D01*
X119388000Y-109383000D02*
X119388000Y-112245000D01*
X119388000Y-114325000D02*
X119388000Y-117187000D01*
X119428000Y-109396000D02*
X119428000Y-112245000D01*
X119428000Y-114325000D02*
X119428000Y-117174000D01*
X119468000Y-109408000D02*
X119468000Y-112245000D01*
X119468000Y-114325000D02*
X119468000Y-117162000D01*
X119508000Y-109422000D02*
X119508000Y-112245000D01*
X119508000Y-114325000D02*
X119508000Y-117148000D01*
X119548000Y-109435000D02*
X119548000Y-112245000D01*
X119548000Y-114325000D02*
X119548000Y-117135000D01*
X119588000Y-109450000D02*
X119588000Y-112245000D01*
X119588000Y-114325000D02*
X119588000Y-117120000D01*
X119628000Y-109464000D02*
X119628000Y-112245000D01*
X119628000Y-114325000D02*
X119628000Y-117106000D01*
X119668000Y-109480000D02*
X119668000Y-112245000D01*
X119668000Y-114325000D02*
X119668000Y-117090000D01*
X119708000Y-109495000D02*
X119708000Y-112245000D01*
X119708000Y-114325000D02*
X119708000Y-117075000D01*
X119748000Y-109511000D02*
X119748000Y-112245000D01*
X119748000Y-114325000D02*
X119748000Y-117059000D01*
X119788000Y-109528000D02*
X119788000Y-112245000D01*
X119788000Y-114325000D02*
X119788000Y-117042000D01*
X119828000Y-109545000D02*
X119828000Y-112245000D01*
X119828000Y-114325000D02*
X119828000Y-117025000D01*
X119868000Y-109563000D02*
X119868000Y-112245000D01*
X119868000Y-114325000D02*
X119868000Y-117007000D01*
X119908000Y-109581000D02*
X119908000Y-112245000D01*
X119908000Y-114325000D02*
X119908000Y-116989000D01*
X119948000Y-109599000D02*
X119948000Y-112245000D01*
X119948000Y-114325000D02*
X119948000Y-116971000D01*
X119988000Y-109619000D02*
X119988000Y-112245000D01*
X119988000Y-114325000D02*
X119988000Y-116951000D01*
X120028000Y-109638000D02*
X120028000Y-112245000D01*
X120028000Y-114325000D02*
X120028000Y-116932000D01*
X120068000Y-109658000D02*
X120068000Y-112245000D01*
X120068000Y-114325000D02*
X120068000Y-116912000D01*
X120108000Y-109679000D02*
X120108000Y-112245000D01*
X120108000Y-114325000D02*
X120108000Y-116891000D01*
X120148000Y-109701000D02*
X120148000Y-112245000D01*
X120148000Y-114325000D02*
X120148000Y-116869000D01*
X120188000Y-109723000D02*
X120188000Y-112245000D01*
X120188000Y-114325000D02*
X120188000Y-116847000D01*
X120228000Y-109745000D02*
X120228000Y-112245000D01*
X120228000Y-114325000D02*
X120228000Y-116825000D01*
X120268000Y-109768000D02*
X120268000Y-112245000D01*
X120268000Y-114325000D02*
X120268000Y-116802000D01*
X120308000Y-109792000D02*
X120308000Y-112245000D01*
X120308000Y-114325000D02*
X120308000Y-116778000D01*
X120348000Y-109816000D02*
X120348000Y-112245000D01*
X120348000Y-114325000D02*
X120348000Y-116754000D01*
X120388000Y-109841000D02*
X120388000Y-112245000D01*
X120388000Y-114325000D02*
X120388000Y-116729000D01*
X120428000Y-109867000D02*
X120428000Y-112245000D01*
X120428000Y-114325000D02*
X120428000Y-116703000D01*
X120468000Y-109893000D02*
X120468000Y-112245000D01*
X120468000Y-114325000D02*
X120468000Y-116677000D01*
X120508000Y-109920000D02*
X120508000Y-116650000D01*
X120548000Y-109947000D02*
X120548000Y-116623000D01*
X120588000Y-109976000D02*
X120588000Y-116594000D01*
X120628000Y-110005000D02*
X120628000Y-116565000D01*
X120668000Y-110035000D02*
X120668000Y-116535000D01*
X120708000Y-110065000D02*
X120708000Y-116505000D01*
X120748000Y-110096000D02*
X120748000Y-116474000D01*
X120788000Y-110129000D02*
X120788000Y-116441000D01*
X120828000Y-110161000D02*
X120828000Y-116409000D01*
X120868000Y-110195000D02*
X120868000Y-116375000D01*
X120908000Y-110230000D02*
X120908000Y-116340000D01*
X120948000Y-110266000D02*
X120948000Y-116304000D01*
X120988000Y-110302000D02*
X120988000Y-116268000D01*
X121028000Y-110340000D02*
X121028000Y-116230000D01*
X121068000Y-110378000D02*
X121068000Y-116192000D01*
X121108000Y-110418000D02*
X121108000Y-116152000D01*
X121148000Y-110459000D02*
X121148000Y-116111000D01*
X121188000Y-110501000D02*
X121188000Y-116069000D01*
X121228000Y-110544000D02*
X121228000Y-116026000D01*
X121268000Y-110588000D02*
X121268000Y-115982000D01*
X121308000Y-110634000D02*
X121308000Y-115936000D01*
X121348000Y-110681000D02*
X121348000Y-115889000D01*
X121388000Y-110729000D02*
X121388000Y-115841000D01*
X121428000Y-110780000D02*
X121428000Y-115790000D01*
X121468000Y-110831000D02*
X121468000Y-115739000D01*
X121508000Y-110885000D02*
X121508000Y-115685000D01*
X121548000Y-110940000D02*
X121548000Y-115630000D01*
X121588000Y-110998000D02*
X121588000Y-115572000D01*
X121628000Y-111057000D02*
X121628000Y-115513000D01*
X121668000Y-111119000D02*
X121668000Y-115451000D01*
X121708000Y-111183000D02*
X121708000Y-115387000D01*
X121748000Y-111251000D02*
X121748000Y-115319000D01*
X121788000Y-111321000D02*
X121788000Y-115249000D01*
X121828000Y-111395000D02*
X121828000Y-115175000D01*
X121868000Y-111472000D02*
X121868000Y-115098000D01*
X121908000Y-111554000D02*
X121908000Y-115016000D01*
X121948000Y-111640000D02*
X121948000Y-114930000D01*
X121988000Y-111733000D02*
X121988000Y-114837000D01*
X122028000Y-111832000D02*
X122028000Y-114738000D01*
X122068000Y-111939000D02*
X122068000Y-114631000D01*
X122108000Y-112056000D02*
X122108000Y-114514000D01*
X122148000Y-112187000D02*
X122148000Y-114383000D01*
X122188000Y-112337000D02*
X122188000Y-114233000D01*
X122228000Y-112517000D02*
X122228000Y-114053000D01*
X122268000Y-112752000D02*
X122268000Y-113818000D01*
X113777302Y-110970000D02*
X114577302Y-110970000D01*
X114177302Y-110570000D02*
X114177302Y-111370000D01*
%TO.C,C3*%
X86307000Y-112595000D02*
X79067000Y-112595000D01*
X86307000Y-106355000D02*
X79067000Y-106355000D01*
X86307000Y-112595000D02*
X86307000Y-106355000D01*
X79067000Y-112595000D02*
X79067000Y-106355000D01*
D12*
%TO.C,SW1*%
X101727618Y-96392323D02*
X103988149Y-100307677D01*
X96011851Y-100307677D02*
X98272382Y-96392323D01*
X97739469Y-103300000D02*
X102260531Y-103300000D01*
X98270932Y-96393017D02*
G75*
G02X101727618Y-96392323I1729068J-3606983D01*
G01*
X103988273Y-100306075D02*
G75*
G02X102260531Y-103300000I-3988273J306075D01*
G01*
X101000000Y-100000000D02*
G75*
G03X101000000Y-100000000I-1000000J0D01*
G01*
X97740795Y-103300908D02*
G75*
G02X96011851Y-100307677I2259205J3300908D01*
G01*
D13*
%TO.C,F1*%
X80010000Y-122290000D02*
X79870000Y-122410000D01*
X79870000Y-122410000D02*
X79710000Y-122500000D01*
X79710000Y-122500000D02*
X79460000Y-122550000D01*
X79460000Y-122550000D02*
X79200000Y-122520000D01*
X79200000Y-122520000D02*
X78940000Y-122370000D01*
X78940000Y-122370000D02*
X78770000Y-122150000D01*
X78770000Y-122150000D02*
X78690000Y-121860000D01*
X78690000Y-121860000D02*
X78730000Y-121570000D01*
X78730000Y-121570000D02*
X78810000Y-121390000D01*
X78810000Y-121390000D02*
X78960000Y-121260000D01*
X87540000Y-118440000D02*
G75*
G03X87540000Y-118440000I-4750000J0D01*
G01*
D11*
%TO.C,RV1*%
X88800000Y-123250000D02*
X97800000Y-123250000D01*
X88800000Y-118050000D02*
X97800000Y-118050000D01*
X97800000Y-118050000D02*
X97800000Y-123250000D01*
X88800000Y-118050000D02*
X88800000Y-123250000D01*
%TD*%
%TO.C,K1*%
X117196904Y-118257380D02*
X117196904Y-117257380D01*
X117768333Y-118257380D02*
X117339761Y-117685952D01*
X117768333Y-117257380D02*
X117196904Y-117828809D01*
X118720714Y-118257380D02*
X118149285Y-118257380D01*
X118435000Y-118257380D02*
X118435000Y-117257380D01*
X118339761Y-117400238D01*
X118244523Y-117495476D01*
X118149285Y-117543095D01*
%TO.C,PS1*%
X90073714Y-142286380D02*
X90073714Y-141286380D01*
X90454666Y-141286380D01*
X90549904Y-141334000D01*
X90597523Y-141381619D01*
X90645142Y-141476857D01*
X90645142Y-141619714D01*
X90597523Y-141714952D01*
X90549904Y-141762571D01*
X90454666Y-141810190D01*
X90073714Y-141810190D01*
X91026095Y-142238761D02*
X91168952Y-142286380D01*
X91407047Y-142286380D01*
X91502285Y-142238761D01*
X91549904Y-142191142D01*
X91597523Y-142095904D01*
X91597523Y-142000666D01*
X91549904Y-141905428D01*
X91502285Y-141857809D01*
X91407047Y-141810190D01*
X91216571Y-141762571D01*
X91121333Y-141714952D01*
X91073714Y-141667333D01*
X91026095Y-141572095D01*
X91026095Y-141476857D01*
X91073714Y-141381619D01*
X91121333Y-141334000D01*
X91216571Y-141286380D01*
X91454666Y-141286380D01*
X91597523Y-141334000D01*
X92549904Y-142286380D02*
X91978476Y-142286380D01*
X92264190Y-142286380D02*
X92264190Y-141286380D01*
X92168952Y-141429238D01*
X92073714Y-141524476D01*
X91978476Y-141572095D01*
%TO.C,J3*%
X81886666Y-145757380D02*
X81886666Y-146471666D01*
X81839047Y-146614523D01*
X81743809Y-146709761D01*
X81600952Y-146757380D01*
X81505714Y-146757380D01*
X82267619Y-145757380D02*
X82886666Y-145757380D01*
X82553333Y-146138333D01*
X82696190Y-146138333D01*
X82791428Y-146185952D01*
X82839047Y-146233571D01*
X82886666Y-146328809D01*
X82886666Y-146566904D01*
X82839047Y-146662142D01*
X82791428Y-146709761D01*
X82696190Y-146757380D01*
X82410476Y-146757380D01*
X82315238Y-146709761D01*
X82267619Y-146662142D01*
%TO.C,J2*%
X111269666Y-145757380D02*
X111269666Y-146471666D01*
X111222047Y-146614523D01*
X111126809Y-146709761D01*
X110983952Y-146757380D01*
X110888714Y-146757380D01*
X111698238Y-145852619D02*
X111745857Y-145805000D01*
X111841095Y-145757380D01*
X112079190Y-145757380D01*
X112174428Y-145805000D01*
X112222047Y-145852619D01*
X112269666Y-145947857D01*
X112269666Y-146043095D01*
X112222047Y-146185952D01*
X111650619Y-146757380D01*
X112269666Y-146757380D01*
%TO.C,J1*%
X121429666Y-145757380D02*
X121429666Y-146471666D01*
X121382047Y-146614523D01*
X121286809Y-146709761D01*
X121143952Y-146757380D01*
X121048714Y-146757380D01*
X122429666Y-146757380D02*
X121858238Y-146757380D01*
X122143952Y-146757380D02*
X122143952Y-145757380D01*
X122048714Y-145900238D01*
X121953476Y-145995476D01*
X121858238Y-146043095D01*
%TO.C,U1*%
X111938095Y-88022380D02*
X111938095Y-88831904D01*
X111985714Y-88927142D01*
X112033333Y-88974761D01*
X112128571Y-89022380D01*
X112319047Y-89022380D01*
X112414285Y-88974761D01*
X112461904Y-88927142D01*
X112509523Y-88831904D01*
X112509523Y-88022380D01*
X113509523Y-89022380D02*
X112938095Y-89022380D01*
X113223809Y-89022380D02*
X113223809Y-88022380D01*
X113128571Y-88165238D01*
X113033333Y-88260476D01*
X112938095Y-88308095D01*
X86842857Y-79380000D02*
X86785714Y-79351428D01*
X86700000Y-79351428D01*
X86614285Y-79380000D01*
X86557142Y-79437142D01*
X86528571Y-79494285D01*
X86500000Y-79608571D01*
X86500000Y-79694285D01*
X86528571Y-79808571D01*
X86557142Y-79865714D01*
X86614285Y-79922857D01*
X86700000Y-79951428D01*
X86757142Y-79951428D01*
X86842857Y-79922857D01*
X86871428Y-79894285D01*
X86871428Y-79694285D01*
X86757142Y-79694285D01*
X87128571Y-79951428D02*
X87128571Y-79351428D01*
X87471428Y-79951428D01*
X87471428Y-79351428D01*
X87757142Y-79951428D02*
X87757142Y-79351428D01*
X87900000Y-79351428D01*
X87985714Y-79380000D01*
X88042857Y-79437142D01*
X88071428Y-79494285D01*
X88100000Y-79608571D01*
X88100000Y-79694285D01*
X88071428Y-79808571D01*
X88042857Y-79865714D01*
X87985714Y-79922857D01*
X87900000Y-79951428D01*
X87757142Y-79951428D01*
X86842857Y-77475000D02*
X86785714Y-77446428D01*
X86700000Y-77446428D01*
X86614285Y-77475000D01*
X86557142Y-77532142D01*
X86528571Y-77589285D01*
X86500000Y-77703571D01*
X86500000Y-77789285D01*
X86528571Y-77903571D01*
X86557142Y-77960714D01*
X86614285Y-78017857D01*
X86700000Y-78046428D01*
X86757142Y-78046428D01*
X86842857Y-78017857D01*
X86871428Y-77989285D01*
X86871428Y-77789285D01*
X86757142Y-77789285D01*
X87128571Y-78046428D02*
X87128571Y-77446428D01*
X87471428Y-78046428D01*
X87471428Y-77446428D01*
X87757142Y-78046428D02*
X87757142Y-77446428D01*
X87900000Y-77446428D01*
X87985714Y-77475000D01*
X88042857Y-77532142D01*
X88071428Y-77589285D01*
X88100000Y-77703571D01*
X88100000Y-77789285D01*
X88071428Y-77903571D01*
X88042857Y-77960714D01*
X87985714Y-78017857D01*
X87900000Y-78046428D01*
X87757142Y-78046428D01*
X86614285Y-89476428D02*
X86614285Y-88876428D01*
X86757142Y-88876428D01*
X86842857Y-88905000D01*
X86900000Y-88962142D01*
X86928571Y-89019285D01*
X86957142Y-89133571D01*
X86957142Y-89219285D01*
X86928571Y-89333571D01*
X86900000Y-89390714D01*
X86842857Y-89447857D01*
X86757142Y-89476428D01*
X86614285Y-89476428D01*
X87128571Y-88876428D02*
X87471428Y-88876428D01*
X87300000Y-89476428D02*
X87300000Y-88876428D01*
X88014285Y-89476428D02*
X87814285Y-89190714D01*
X87671428Y-89476428D02*
X87671428Y-88876428D01*
X87900000Y-88876428D01*
X87957142Y-88905000D01*
X87985714Y-88933571D01*
X88014285Y-88990714D01*
X88014285Y-89076428D01*
X87985714Y-89133571D01*
X87957142Y-89162142D01*
X87900000Y-89190714D01*
X87671428Y-89190714D01*
X86542857Y-86971428D02*
X86885714Y-86971428D01*
X86714285Y-87571428D02*
X86714285Y-86971428D01*
X87028571Y-86971428D02*
X87428571Y-87571428D01*
X87428571Y-86971428D02*
X87028571Y-87571428D01*
X87657142Y-87571428D02*
X87657142Y-86971428D01*
X87800000Y-86971428D01*
X87885714Y-87000000D01*
X87942857Y-87057142D01*
X87971428Y-87114285D01*
X88000000Y-87228571D01*
X88000000Y-87314285D01*
X87971428Y-87428571D01*
X87942857Y-87485714D01*
X87885714Y-87542857D01*
X87800000Y-87571428D01*
X87657142Y-87571428D01*
X87057142Y-85031428D02*
X86857142Y-84745714D01*
X86714285Y-85031428D02*
X86714285Y-84431428D01*
X86942857Y-84431428D01*
X87000000Y-84460000D01*
X87028571Y-84488571D01*
X87057142Y-84545714D01*
X87057142Y-84631428D01*
X87028571Y-84688571D01*
X87000000Y-84717142D01*
X86942857Y-84745714D01*
X86714285Y-84745714D01*
X87257142Y-84431428D02*
X87657142Y-85031428D01*
X87657142Y-84431428D02*
X87257142Y-85031428D01*
X87885714Y-85031428D02*
X87885714Y-84431428D01*
X86500000Y-81891428D02*
X86700000Y-82491428D01*
X86900000Y-81891428D01*
X87442857Y-82434285D02*
X87414285Y-82462857D01*
X87328571Y-82491428D01*
X87271428Y-82491428D01*
X87185714Y-82462857D01*
X87128571Y-82405714D01*
X87100000Y-82348571D01*
X87071428Y-82234285D01*
X87071428Y-82148571D01*
X87100000Y-82034285D01*
X87128571Y-81977142D01*
X87185714Y-81920000D01*
X87271428Y-81891428D01*
X87328571Y-81891428D01*
X87414285Y-81920000D01*
X87442857Y-81948571D01*
X88042857Y-82434285D02*
X88014285Y-82462857D01*
X87928571Y-82491428D01*
X87871428Y-82491428D01*
X87785714Y-82462857D01*
X87728571Y-82405714D01*
X87700000Y-82348571D01*
X87671428Y-82234285D01*
X87671428Y-82148571D01*
X87700000Y-82034285D01*
X87728571Y-81977142D01*
X87785714Y-81920000D01*
X87871428Y-81891428D01*
X87928571Y-81891428D01*
X88014285Y-81920000D01*
X88042857Y-81948571D01*
%TO.C,D1*%
X101419095Y-109165380D02*
X101419095Y-108165380D01*
X101181000Y-108165380D01*
X101038142Y-108213000D01*
X100942904Y-108308238D01*
X100895285Y-108403476D01*
X100847666Y-108593952D01*
X100847666Y-108736809D01*
X100895285Y-108927285D01*
X100942904Y-109022523D01*
X101038142Y-109117761D01*
X101181000Y-109165380D01*
X101419095Y-109165380D01*
X99895285Y-109165380D02*
X100466714Y-109165380D01*
X100181000Y-109165380D02*
X100181000Y-108165380D01*
X100276238Y-108308238D01*
X100371476Y-108403476D01*
X100466714Y-108451095D01*
%TO.C,U2*%
X95601095Y-116293380D02*
X95601095Y-117102904D01*
X95648714Y-117198142D01*
X95696333Y-117245761D01*
X95791571Y-117293380D01*
X95982047Y-117293380D01*
X96077285Y-117245761D01*
X96124904Y-117198142D01*
X96172523Y-117102904D01*
X96172523Y-116293380D01*
X96601095Y-116388619D02*
X96648714Y-116341000D01*
X96743952Y-116293380D01*
X96982047Y-116293380D01*
X97077285Y-116341000D01*
X97124904Y-116388619D01*
X97172523Y-116483857D01*
X97172523Y-116579095D01*
X97124904Y-116721952D01*
X96553476Y-117293380D01*
X97172523Y-117293380D01*
%TO.C,Q1*%
X108459761Y-118146619D02*
X108364523Y-118099000D01*
X108269285Y-118003761D01*
X108126428Y-117860904D01*
X108031190Y-117813285D01*
X107935952Y-117813285D01*
X107983571Y-118051380D02*
X107888333Y-118003761D01*
X107793095Y-117908523D01*
X107745476Y-117718047D01*
X107745476Y-117384714D01*
X107793095Y-117194238D01*
X107888333Y-117099000D01*
X107983571Y-117051380D01*
X108174047Y-117051380D01*
X108269285Y-117099000D01*
X108364523Y-117194238D01*
X108412142Y-117384714D01*
X108412142Y-117718047D01*
X108364523Y-117908523D01*
X108269285Y-118003761D01*
X108174047Y-118051380D01*
X107983571Y-118051380D01*
X109364523Y-118051380D02*
X108793095Y-118051380D01*
X109078809Y-118051380D02*
X109078809Y-117051380D01*
X108983571Y-117194238D01*
X108888333Y-117289476D01*
X108793095Y-117337095D01*
%TO.C,C2*%
X100768333Y-117960142D02*
X100720714Y-118007761D01*
X100577857Y-118055380D01*
X100482619Y-118055380D01*
X100339761Y-118007761D01*
X100244523Y-117912523D01*
X100196904Y-117817285D01*
X100149285Y-117626809D01*
X100149285Y-117483952D01*
X100196904Y-117293476D01*
X100244523Y-117198238D01*
X100339761Y-117103000D01*
X100482619Y-117055380D01*
X100577857Y-117055380D01*
X100720714Y-117103000D01*
X100768333Y-117150619D01*
X101149285Y-117150619D02*
X101196904Y-117103000D01*
X101292142Y-117055380D01*
X101530238Y-117055380D01*
X101625476Y-117103000D01*
X101673095Y-117150619D01*
X101720714Y-117245857D01*
X101720714Y-117341095D01*
X101673095Y-117483952D01*
X101101666Y-118055380D01*
X101720714Y-118055380D01*
%TO.C,C1*%
X114992333Y-109070142D02*
X114944714Y-109117761D01*
X114801857Y-109165380D01*
X114706619Y-109165380D01*
X114563761Y-109117761D01*
X114468523Y-109022523D01*
X114420904Y-108927285D01*
X114373285Y-108736809D01*
X114373285Y-108593952D01*
X114420904Y-108403476D01*
X114468523Y-108308238D01*
X114563761Y-108213000D01*
X114706619Y-108165380D01*
X114801857Y-108165380D01*
X114944714Y-108213000D01*
X114992333Y-108260619D01*
X115944714Y-109165380D02*
X115373285Y-109165380D01*
X115659000Y-109165380D02*
X115659000Y-108165380D01*
X115563761Y-108308238D01*
X115468523Y-108403476D01*
X115373285Y-108451095D01*
%TO.C,C3*%
X82520333Y-114082142D02*
X82472714Y-114129761D01*
X82329857Y-114177380D01*
X82234619Y-114177380D01*
X82091761Y-114129761D01*
X81996523Y-114034523D01*
X81948904Y-113939285D01*
X81901285Y-113748809D01*
X81901285Y-113605952D01*
X81948904Y-113415476D01*
X81996523Y-113320238D01*
X82091761Y-113225000D01*
X82234619Y-113177380D01*
X82329857Y-113177380D01*
X82472714Y-113225000D01*
X82520333Y-113272619D01*
X82853666Y-113177380D02*
X83472714Y-113177380D01*
X83139380Y-113558333D01*
X83282238Y-113558333D01*
X83377476Y-113605952D01*
X83425095Y-113653571D01*
X83472714Y-113748809D01*
X83472714Y-113986904D01*
X83425095Y-114082142D01*
X83377476Y-114129761D01*
X83282238Y-114177380D01*
X82996523Y-114177380D01*
X82901285Y-114129761D01*
X82853666Y-114082142D01*
%TO.C,SW1*%
X96126666Y-94689761D02*
X96269523Y-94737380D01*
X96507619Y-94737380D01*
X96602857Y-94689761D01*
X96650476Y-94642142D01*
X96698095Y-94546904D01*
X96698095Y-94451666D01*
X96650476Y-94356428D01*
X96602857Y-94308809D01*
X96507619Y-94261190D01*
X96317142Y-94213571D01*
X96221904Y-94165952D01*
X96174285Y-94118333D01*
X96126666Y-94023095D01*
X96126666Y-93927857D01*
X96174285Y-93832619D01*
X96221904Y-93785000D01*
X96317142Y-93737380D01*
X96555238Y-93737380D01*
X96698095Y-93785000D01*
X97031428Y-93737380D02*
X97269523Y-94737380D01*
X97460000Y-94023095D01*
X97650476Y-94737380D01*
X97888571Y-93737380D01*
X98793333Y-94737380D02*
X98221904Y-94737380D01*
X98507619Y-94737380D02*
X98507619Y-93737380D01*
X98412380Y-93880238D01*
X98317142Y-93975476D01*
X98221904Y-94023095D01*
%TO.C,F1*%
X78148666Y-114304571D02*
X77815333Y-114304571D01*
X77815333Y-114828380D02*
X77815333Y-113828380D01*
X78291523Y-113828380D01*
X79196285Y-114828380D02*
X78624857Y-114828380D01*
X78910571Y-114828380D02*
X78910571Y-113828380D01*
X78815333Y-113971238D01*
X78720095Y-114066476D01*
X78624857Y-114114095D01*
%TO.C,RV1*%
X88823619Y-123376761D02*
X89299809Y-123043428D01*
X88823619Y-122805333D02*
X89823619Y-122805333D01*
X89823619Y-123186285D01*
X89776000Y-123281523D01*
X89728380Y-123329142D01*
X89633142Y-123376761D01*
X89490285Y-123376761D01*
X89395047Y-123329142D01*
X89347428Y-123281523D01*
X89299809Y-123186285D01*
X89299809Y-122805333D01*
X89823619Y-123662476D02*
X88823619Y-123995809D01*
X89823619Y-124329142D01*
X88823619Y-125186285D02*
X88823619Y-124614857D01*
X88823619Y-124900571D02*
X89823619Y-124900571D01*
X89680761Y-124805333D01*
X89585523Y-124710095D01*
X89537904Y-124614857D01*
%TD*%
M02*
