%TF.GenerationSoftware,KiCad,Pcbnew,(5.0.1)-4*%
%TF.CreationDate,2019-03-28T09:30:10+01:00*%
%TF.ProjectId,Funk-Schaltsteckdose,46756E6B2D536368616C74737465636B,rev?*%
%TF.SameCoordinates,Original*%
%TF.FileFunction,Soldermask,Top*%
%TF.FilePolarity,Negative*%
%FSLAX46Y46*%
G04 Gerber Fmt 4.6, Leading zero omitted, Abs format (unit mm)*
G04 Created by KiCad (PCBNEW (5.0.1)-4) date 28.03.2019 09:30:10*
%MOMM*%
%LPD*%
G01*
G04 APERTURE LIST*
%ADD10C,0.150000*%
%ADD11C,0.200000*%
G04 APERTURE END LIST*
D10*
X113419000Y-73407000D02*
G75*
G03X113419000Y-73407000I-800000J0D01*
G01*
X88273000Y-73407000D02*
G75*
G03X88273000Y-73407000I-800000J0D01*
G01*
X82447000Y-91949000D02*
G75*
G03X82447000Y-91949000I-800000J0D01*
G01*
X119023000Y-91949000D02*
G75*
G03X119023000Y-91949000I-800000J0D01*
G01*
X107015000Y-96775000D02*
G75*
G03X107015000Y-96775000I-1000000J0D01*
G01*
D11*
X82150901Y-75467983D02*
G75*
G02X84065149Y-73283707I2931366J-638041D01*
G01*
X81000000Y-95000000D02*
G75*
G02X81000000Y-105000000I0J-5000000D01*
G01*
X80196658Y-75042623D02*
G75*
G02X83387070Y-71402163I4885609J-1063401D01*
G01*
X115068543Y-155000001D02*
G75*
G02X113820194Y-154461510I0J1716230D01*
G01*
X122685153Y-103000000D02*
G75*
G02X124393757Y-104554632I0J-1716229D01*
G01*
X74506558Y-129807258D02*
G75*
G02X76506506Y-129792742I999974J7258D01*
G01*
X101762500Y-70533059D02*
G75*
G02X115934851Y-73283707I-1762500J-46966941D01*
G01*
X101837500Y-68534465D02*
G75*
G02X116612930Y-71402163I-1837500J-48965535D01*
G01*
X76506506Y-126207258D02*
G75*
G02X77573182Y-105000000I246993494J-1792742D01*
G01*
X78390001Y-97000000D02*
X81000000Y-97000000D01*
X125493442Y-126192742D02*
G75*
G02X123493494Y-126207258I-999974J-7258D01*
G01*
X76506505Y-126207258D02*
G75*
G02X74506559Y-126192742I-999973J7258D01*
G01*
X75606243Y-104554632D02*
G75*
G02X77314847Y-103000000I1708604J-161597D01*
G01*
X83387070Y-71402163D02*
G75*
G02X98162500Y-68534465I16612930J-46097837D01*
G01*
X97500000Y-145000000D02*
G75*
G02X98500000Y-144000000I1000000J0D01*
G01*
X123493494Y-129792742D02*
G75*
G02X122231561Y-153000000I-246993494J1792742D01*
G01*
X75804972Y-153459248D02*
G75*
G02X74506559Y-129807258I247695028J25459248D01*
G01*
X81000000Y-95000000D02*
X78714380Y-95000000D01*
X122426818Y-105000000D02*
G75*
G02X123493494Y-126207258I-245926818J-23000000D01*
G01*
X119803342Y-75042623D02*
G75*
G02X123311142Y-95056710I-243303342J-52957377D01*
G01*
X98162500Y-68534465D02*
G75*
G02X98237500Y-70533059I37500J-999297D01*
G01*
X81000000Y-97000000D02*
G75*
G02X81000000Y-103000000I0J-3000000D01*
G01*
X76688858Y-95056710D02*
G75*
G02X80196658Y-75042623I246811142J-32943290D01*
G01*
X125493442Y-129807258D02*
G75*
G02X124195028Y-153459249I-248993442J1807258D01*
G01*
X101762500Y-70533059D02*
G75*
G02X101837500Y-68534465I37500J999297D01*
G01*
X77512207Y-155000001D02*
G75*
G02X75804972Y-153459249I0J1716230D01*
G01*
X102500000Y-146649341D02*
G75*
G02X115190458Y-153000000I-2500000J-20850659D01*
G01*
X124195027Y-153459249D02*
G75*
G02X122487793Y-155000000I-1707234J175478D01*
G01*
X116612930Y-71402163D02*
G75*
G02X119803342Y-75042623I-1695197J-4703861D01*
G01*
X86179806Y-154461510D02*
G75*
G02X113820194Y-154461510I13820194J-13038490D01*
G01*
X119000000Y-103000000D02*
G75*
G02X119000000Y-97000000I0J3000000D01*
G01*
X124393757Y-104554632D02*
G75*
G02X125493441Y-126192742I-247893757J-23445368D01*
G01*
X123311141Y-95056710D02*
G75*
G02X121609999Y-97000000I-1701142J-227061D01*
G01*
X115934851Y-73283707D02*
G75*
G02X117849098Y-75467983I-1017118J-2822317D01*
G01*
X74506559Y-126192742D02*
G75*
G02X75606243Y-104554632I248993441J-1807258D01*
G01*
X123493495Y-129792742D02*
G75*
G02X125493441Y-129807258I999973J-7258D01*
G01*
X78390001Y-97000001D02*
G75*
G02X76688858Y-95056710I0J1716230D01*
G01*
X81000000Y-103000000D02*
X77314847Y-103000000D01*
X78714380Y-95000000D02*
G75*
G02X82150902Y-75467983I244785620J-33000000D01*
G01*
X101500000Y-144000000D02*
G75*
G02X102500000Y-145000000I0J-1000000D01*
G01*
X84809542Y-153000000D02*
G75*
G02X97500000Y-146649341I15190458J-14500000D01*
G01*
X86179805Y-154461510D02*
G75*
G02X84931457Y-155000000I-1248348J1177739D01*
G01*
X84065149Y-73283707D02*
G75*
G02X98237500Y-70533059I15934851J-44216293D01*
G01*
X119000000Y-105000000D02*
G75*
G02X119000000Y-95000000I0J5000000D01*
G01*
X77573182Y-105000000D02*
X81000000Y-105000000D01*
X117849098Y-75467983D02*
G75*
G02X121285620Y-95000000I-241349098J-52532017D01*
G01*
X77768439Y-153000000D02*
G75*
G02X76506506Y-129792742I245731561J25000000D01*
G01*
X97500000Y-145000000D02*
X97500000Y-146649341D01*
X101500000Y-144000000D02*
X98500000Y-144000000D01*
X102500000Y-146649341D02*
X102500000Y-145000000D01*
X119000000Y-97000000D02*
X121609999Y-97000000D01*
X69500000Y-63500000D02*
X69500000Y-160000000D01*
X69500000Y-160000000D02*
X130500000Y-160000000D01*
X76000000Y-128000000D02*
G75*
G03X76000000Y-128000000I-500000J0D01*
G01*
X77512207Y-155000000D02*
X84931457Y-155000000D01*
X119000000Y-105000000D02*
X122426818Y-105000000D01*
X122231561Y-153000000D02*
X115190458Y-153000000D01*
X115068543Y-155000000D02*
X122487793Y-155000000D01*
X84809542Y-153000000D02*
X77768439Y-153000000D01*
X130500000Y-160000000D02*
X130500000Y-63500000D01*
X121285620Y-95000000D02*
X119000000Y-95000000D01*
X122685153Y-103000000D02*
X119000000Y-103000000D01*
X130500000Y-63500000D02*
X69500000Y-63500000D01*
X125000000Y-128000000D02*
G75*
G03X125000000Y-128000000I-500000J0D01*
G01*
X100500000Y-69500000D02*
G75*
G03X100500000Y-69500000I-500000J0D01*
G01*
D10*
X83490000Y-76505000D02*
G75*
G02X86030000Y-76505000I1270000J0D01*
G01*
X86030000Y-90475000D02*
G75*
G02X83490000Y-90475000I-1270000J0D01*
G01*
X86030000Y-90475000D02*
X86030000Y-76505000D01*
X83490000Y-76505000D02*
X83490000Y-90475000D01*
G36*
X120851000Y-153451000D02*
X117749000Y-153451000D01*
X117749000Y-148349000D01*
X120851000Y-148349000D01*
X120851000Y-153451000D01*
X120851000Y-153451000D01*
G37*
G36*
X115951000Y-153451000D02*
X112849000Y-153451000D01*
X112849000Y-148349000D01*
X115951000Y-148349000D01*
X115951000Y-153451000D01*
X115951000Y-153451000D01*
G37*
G36*
X87151000Y-153451000D02*
X84049000Y-153451000D01*
X84049000Y-148349000D01*
X87151000Y-148349000D01*
X87151000Y-153451000D01*
X87151000Y-153451000D01*
G37*
G36*
X79470485Y-139987996D02*
X79470487Y-139987997D01*
X79470488Y-139987997D01*
X79707255Y-140086069D01*
X79920342Y-140228449D01*
X80101551Y-140409658D01*
X80243931Y-140622745D01*
X80342004Y-140859515D01*
X80392000Y-141110861D01*
X80392000Y-141367139D01*
X80342004Y-141618485D01*
X80243931Y-141855255D01*
X80101551Y-142068342D01*
X79920342Y-142249551D01*
X79920339Y-142249553D01*
X79707255Y-142391931D01*
X79470488Y-142490003D01*
X79470487Y-142490003D01*
X79470485Y-142490004D01*
X79219139Y-142540000D01*
X78962861Y-142540000D01*
X78711515Y-142490004D01*
X78711513Y-142490003D01*
X78711512Y-142490003D01*
X78474745Y-142391931D01*
X78261661Y-142249553D01*
X78261658Y-142249551D01*
X78080449Y-142068342D01*
X77938069Y-141855255D01*
X77839996Y-141618485D01*
X77790000Y-141367139D01*
X77790000Y-141110861D01*
X77839996Y-140859515D01*
X77938069Y-140622745D01*
X78080449Y-140409658D01*
X78261658Y-140228449D01*
X78474745Y-140086069D01*
X78711512Y-139987997D01*
X78711513Y-139987997D01*
X78711515Y-139987996D01*
X78962861Y-139938000D01*
X79219139Y-139938000D01*
X79470485Y-139987996D01*
X79470485Y-139987996D01*
G37*
G36*
X114014485Y-137433996D02*
X114014487Y-137433997D01*
X114014488Y-137433997D01*
X114149701Y-137490004D01*
X114251255Y-137532069D01*
X114464342Y-137674449D01*
X114645551Y-137855658D01*
X114787931Y-138068745D01*
X114886004Y-138305515D01*
X114936000Y-138556861D01*
X114936000Y-138813139D01*
X114886004Y-139064485D01*
X114787931Y-139301255D01*
X114645551Y-139514342D01*
X114464342Y-139695551D01*
X114464339Y-139695553D01*
X114251255Y-139837931D01*
X114014488Y-139936003D01*
X114014487Y-139936003D01*
X114014485Y-139936004D01*
X113763139Y-139986000D01*
X113506861Y-139986000D01*
X113255515Y-139936004D01*
X113255513Y-139936003D01*
X113255512Y-139936003D01*
X113018745Y-139837931D01*
X112805661Y-139695553D01*
X112805658Y-139695551D01*
X112624449Y-139514342D01*
X112482069Y-139301255D01*
X112383996Y-139064485D01*
X112334000Y-138813139D01*
X112334000Y-138556861D01*
X112383996Y-138305515D01*
X112482069Y-138068745D01*
X112624449Y-137855658D01*
X112805658Y-137674449D01*
X113018745Y-137532069D01*
X113120299Y-137490004D01*
X113255512Y-137433997D01*
X113255513Y-137433997D01*
X113255515Y-137433996D01*
X113506861Y-137384000D01*
X113763139Y-137384000D01*
X114014485Y-137433996D01*
X114014485Y-137433996D01*
G37*
G36*
X121634485Y-137433996D02*
X121634487Y-137433997D01*
X121634488Y-137433997D01*
X121769701Y-137490004D01*
X121871255Y-137532069D01*
X122084342Y-137674449D01*
X122265551Y-137855658D01*
X122407931Y-138068745D01*
X122506004Y-138305515D01*
X122556000Y-138556861D01*
X122556000Y-138813139D01*
X122506004Y-139064485D01*
X122407931Y-139301255D01*
X122265551Y-139514342D01*
X122084342Y-139695551D01*
X122084339Y-139695553D01*
X121871255Y-139837931D01*
X121634488Y-139936003D01*
X121634487Y-139936003D01*
X121634485Y-139936004D01*
X121383139Y-139986000D01*
X121126861Y-139986000D01*
X120875515Y-139936004D01*
X120875513Y-139936003D01*
X120875512Y-139936003D01*
X120638745Y-139837931D01*
X120425661Y-139695553D01*
X120425658Y-139695551D01*
X120244449Y-139514342D01*
X120102069Y-139301255D01*
X120003996Y-139064485D01*
X119954000Y-138813139D01*
X119954000Y-138556861D01*
X120003996Y-138305515D01*
X120102069Y-138068745D01*
X120244449Y-137855658D01*
X120425658Y-137674449D01*
X120638745Y-137532069D01*
X120740299Y-137490004D01*
X120875512Y-137433997D01*
X120875513Y-137433997D01*
X120875515Y-137433996D01*
X121126861Y-137384000D01*
X121383139Y-137384000D01*
X121634485Y-137433996D01*
X121634485Y-137433996D01*
G37*
G36*
X109950485Y-134987996D02*
X109950487Y-134987997D01*
X109950488Y-134987997D01*
X110187255Y-135086069D01*
X110400342Y-135228449D01*
X110581551Y-135409658D01*
X110723931Y-135622745D01*
X110822004Y-135859515D01*
X110872000Y-136110861D01*
X110872000Y-136367139D01*
X110822004Y-136618485D01*
X110723931Y-136855255D01*
X110581551Y-137068342D01*
X110400342Y-137249551D01*
X110400339Y-137249553D01*
X110187255Y-137391931D01*
X109950488Y-137490003D01*
X109950487Y-137490003D01*
X109950485Y-137490004D01*
X109699139Y-137540000D01*
X109442861Y-137540000D01*
X109191515Y-137490004D01*
X109191513Y-137490003D01*
X109191512Y-137490003D01*
X108954745Y-137391931D01*
X108741661Y-137249553D01*
X108741658Y-137249551D01*
X108560449Y-137068342D01*
X108418069Y-136855255D01*
X108319996Y-136618485D01*
X108270000Y-136367139D01*
X108270000Y-136110861D01*
X108319996Y-135859515D01*
X108418069Y-135622745D01*
X108560449Y-135409658D01*
X108741658Y-135228449D01*
X108954745Y-135086069D01*
X109191512Y-134987997D01*
X109191513Y-134987997D01*
X109191515Y-134987996D01*
X109442861Y-134938000D01*
X109699139Y-134938000D01*
X109950485Y-134987996D01*
X109950485Y-134987996D01*
G37*
G36*
X109950485Y-129987996D02*
X109950487Y-129987997D01*
X109950488Y-129987997D01*
X110110917Y-130054449D01*
X110187255Y-130086069D01*
X110400342Y-130228449D01*
X110581551Y-130409658D01*
X110723931Y-130622745D01*
X110822004Y-130859515D01*
X110872000Y-131110861D01*
X110872000Y-131367139D01*
X110822004Y-131618485D01*
X110723931Y-131855255D01*
X110581551Y-132068342D01*
X110400342Y-132249551D01*
X110400339Y-132249553D01*
X110187255Y-132391931D01*
X109950488Y-132490003D01*
X109950487Y-132490003D01*
X109950485Y-132490004D01*
X109699139Y-132540000D01*
X109442861Y-132540000D01*
X109191515Y-132490004D01*
X109191513Y-132490003D01*
X109191512Y-132490003D01*
X108954745Y-132391931D01*
X108741661Y-132249553D01*
X108741658Y-132249551D01*
X108560449Y-132068342D01*
X108418069Y-131855255D01*
X108319996Y-131618485D01*
X108270000Y-131367139D01*
X108270000Y-131110861D01*
X108319996Y-130859515D01*
X108418069Y-130622745D01*
X108560449Y-130409658D01*
X108741658Y-130228449D01*
X108954745Y-130086069D01*
X109031083Y-130054449D01*
X109191512Y-129987997D01*
X109191513Y-129987997D01*
X109191515Y-129987996D01*
X109442861Y-129938000D01*
X109699139Y-129938000D01*
X109950485Y-129987996D01*
X109950485Y-129987996D01*
G37*
G36*
X114014485Y-129813996D02*
X114014487Y-129813997D01*
X114014488Y-129813997D01*
X114251255Y-129912069D01*
X114464342Y-130054449D01*
X114645551Y-130235658D01*
X114787931Y-130448745D01*
X114886004Y-130685515D01*
X114936000Y-130936861D01*
X114936000Y-131193139D01*
X114886004Y-131444485D01*
X114787931Y-131681255D01*
X114645551Y-131894342D01*
X114464342Y-132075551D01*
X114464339Y-132075553D01*
X114251255Y-132217931D01*
X114014488Y-132316003D01*
X114014487Y-132316003D01*
X114014485Y-132316004D01*
X113763139Y-132366000D01*
X113506861Y-132366000D01*
X113255515Y-132316004D01*
X113255513Y-132316003D01*
X113255512Y-132316003D01*
X113018745Y-132217931D01*
X112805661Y-132075553D01*
X112805658Y-132075551D01*
X112624449Y-131894342D01*
X112482069Y-131681255D01*
X112383996Y-131444485D01*
X112334000Y-131193139D01*
X112334000Y-130936861D01*
X112383996Y-130685515D01*
X112482069Y-130448745D01*
X112624449Y-130235658D01*
X112805658Y-130054449D01*
X113018745Y-129912069D01*
X113255512Y-129813997D01*
X113255513Y-129813997D01*
X113255515Y-129813996D01*
X113506861Y-129764000D01*
X113763139Y-129764000D01*
X114014485Y-129813996D01*
X114014485Y-129813996D01*
G37*
G36*
X121634485Y-129813996D02*
X121634487Y-129813997D01*
X121634488Y-129813997D01*
X121871255Y-129912069D01*
X122084342Y-130054449D01*
X122265551Y-130235658D01*
X122407931Y-130448745D01*
X122506004Y-130685515D01*
X122556000Y-130936861D01*
X122556000Y-131193139D01*
X122506004Y-131444485D01*
X122407931Y-131681255D01*
X122265551Y-131894342D01*
X122084342Y-132075551D01*
X122084339Y-132075553D01*
X121871255Y-132217931D01*
X121634488Y-132316003D01*
X121634487Y-132316003D01*
X121634485Y-132316004D01*
X121383139Y-132366000D01*
X121126861Y-132366000D01*
X120875515Y-132316004D01*
X120875513Y-132316003D01*
X120875512Y-132316003D01*
X120638745Y-132217931D01*
X120425661Y-132075553D01*
X120425658Y-132075551D01*
X120244449Y-131894342D01*
X120102069Y-131681255D01*
X120003996Y-131444485D01*
X119954000Y-131193139D01*
X119954000Y-130936861D01*
X120003996Y-130685515D01*
X120102069Y-130448745D01*
X120244449Y-130235658D01*
X120425658Y-130054449D01*
X120638745Y-129912069D01*
X120875512Y-129813997D01*
X120875513Y-129813997D01*
X120875515Y-129813996D01*
X121126861Y-129764000D01*
X121383139Y-129764000D01*
X121634485Y-129813996D01*
X121634485Y-129813996D01*
G37*
G36*
X79470485Y-124987996D02*
X79470487Y-124987997D01*
X79470488Y-124987997D01*
X79707255Y-125086069D01*
X79920342Y-125228449D01*
X80101551Y-125409658D01*
X80243931Y-125622745D01*
X80342004Y-125859515D01*
X80392000Y-126110861D01*
X80392000Y-126367139D01*
X80342004Y-126618485D01*
X80243931Y-126855255D01*
X80101551Y-127068342D01*
X79920342Y-127249551D01*
X79920339Y-127249553D01*
X79707255Y-127391931D01*
X79470488Y-127490003D01*
X79470487Y-127490003D01*
X79470485Y-127490004D01*
X79219139Y-127540000D01*
X78962861Y-127540000D01*
X78711515Y-127490004D01*
X78711513Y-127490003D01*
X78711512Y-127490003D01*
X78474745Y-127391931D01*
X78261661Y-127249553D01*
X78261658Y-127249551D01*
X78080449Y-127068342D01*
X77938069Y-126855255D01*
X77839996Y-126618485D01*
X77790000Y-126367139D01*
X77790000Y-126110861D01*
X77839996Y-125859515D01*
X77938069Y-125622745D01*
X78080449Y-125409658D01*
X78261658Y-125228449D01*
X78474745Y-125086069D01*
X78711512Y-124987997D01*
X78711513Y-124987997D01*
X78711515Y-124987996D01*
X78962861Y-124938000D01*
X79219139Y-124938000D01*
X79470485Y-124987996D01*
X79470485Y-124987996D01*
G37*
G36*
X96048228Y-121581703D02*
X96203100Y-121645853D01*
X96342481Y-121738985D01*
X96461015Y-121857519D01*
X96554147Y-121996900D01*
X96618297Y-122151772D01*
X96651000Y-122316184D01*
X96651000Y-122483816D01*
X96618297Y-122648228D01*
X96554147Y-122803100D01*
X96461015Y-122942481D01*
X96342481Y-123061015D01*
X96203100Y-123154147D01*
X96048228Y-123218297D01*
X95883816Y-123251000D01*
X95716184Y-123251000D01*
X95551772Y-123218297D01*
X95396900Y-123154147D01*
X95257519Y-123061015D01*
X95138985Y-122942481D01*
X95045853Y-122803100D01*
X94981703Y-122648228D01*
X94949000Y-122483816D01*
X94949000Y-122316184D01*
X94981703Y-122151772D01*
X95045853Y-121996900D01*
X95138985Y-121857519D01*
X95257519Y-121738985D01*
X95396900Y-121645853D01*
X95551772Y-121581703D01*
X95716184Y-121549000D01*
X95883816Y-121549000D01*
X96048228Y-121581703D01*
X96048228Y-121581703D01*
G37*
G36*
X102961228Y-121316703D02*
X103116100Y-121380853D01*
X103255481Y-121473985D01*
X103374015Y-121592519D01*
X103467147Y-121731900D01*
X103531297Y-121886772D01*
X103564000Y-122051184D01*
X103564000Y-122218816D01*
X103531297Y-122383228D01*
X103467147Y-122538100D01*
X103374015Y-122677481D01*
X103255481Y-122796015D01*
X103116100Y-122889147D01*
X102961228Y-122953297D01*
X102796816Y-122986000D01*
X102629184Y-122986000D01*
X102464772Y-122953297D01*
X102309900Y-122889147D01*
X102170519Y-122796015D01*
X102051985Y-122677481D01*
X101958853Y-122538100D01*
X101894703Y-122383228D01*
X101862000Y-122218816D01*
X101862000Y-122051184D01*
X101894703Y-121886772D01*
X101958853Y-121731900D01*
X102051985Y-121592519D01*
X102170519Y-121473985D01*
X102309900Y-121380853D01*
X102464772Y-121316703D01*
X102629184Y-121284000D01*
X102796816Y-121284000D01*
X102961228Y-121316703D01*
X102961228Y-121316703D01*
G37*
G36*
X83197565Y-120402389D02*
X83388834Y-120481615D01*
X83560976Y-120596637D01*
X83707363Y-120743024D01*
X83822385Y-120915166D01*
X83901611Y-121106435D01*
X83942000Y-121309484D01*
X83942000Y-121516516D01*
X83901611Y-121719565D01*
X83822385Y-121910834D01*
X83707363Y-122082976D01*
X83560976Y-122229363D01*
X83388834Y-122344385D01*
X83197565Y-122423611D01*
X82994516Y-122464000D01*
X82787484Y-122464000D01*
X82584435Y-122423611D01*
X82393166Y-122344385D01*
X82221024Y-122229363D01*
X82074637Y-122082976D01*
X81959615Y-121910834D01*
X81880389Y-121719565D01*
X81840000Y-121516516D01*
X81840000Y-121309484D01*
X81880389Y-121106435D01*
X81959615Y-120915166D01*
X82074637Y-120743024D01*
X82221024Y-120596637D01*
X82393166Y-120481615D01*
X82584435Y-120402389D01*
X82787484Y-120362000D01*
X82994516Y-120362000D01*
X83197565Y-120402389D01*
X83197565Y-120402389D01*
G37*
G36*
X114936000Y-122206000D02*
X112334000Y-122206000D01*
X112334000Y-119604000D01*
X114936000Y-119604000D01*
X114936000Y-122206000D01*
X114936000Y-122206000D01*
G37*
G36*
X121634485Y-119653996D02*
X121634487Y-119653997D01*
X121634488Y-119653997D01*
X121871255Y-119752069D01*
X122084342Y-119894449D01*
X122265551Y-120075658D01*
X122265553Y-120075661D01*
X122407931Y-120288745D01*
X122505682Y-120524736D01*
X122506004Y-120525515D01*
X122546989Y-120731560D01*
X122556000Y-120776863D01*
X122556000Y-121033137D01*
X122506003Y-121284488D01*
X122453063Y-121412297D01*
X122407931Y-121521255D01*
X122265551Y-121734342D01*
X122084342Y-121915551D01*
X122084339Y-121915553D01*
X121871255Y-122057931D01*
X121634488Y-122156003D01*
X121634487Y-122156003D01*
X121634485Y-122156004D01*
X121383139Y-122206000D01*
X121126861Y-122206000D01*
X120875515Y-122156004D01*
X120875513Y-122156003D01*
X120875512Y-122156003D01*
X120638745Y-122057931D01*
X120425661Y-121915553D01*
X120425658Y-121915551D01*
X120244449Y-121734342D01*
X120102069Y-121521255D01*
X120056937Y-121412297D01*
X120003997Y-121284488D01*
X119954000Y-121033137D01*
X119954000Y-120776863D01*
X119963011Y-120731560D01*
X120003996Y-120525515D01*
X120004319Y-120524736D01*
X120102069Y-120288745D01*
X120244447Y-120075661D01*
X120244449Y-120075658D01*
X120425658Y-119894449D01*
X120638745Y-119752069D01*
X120875512Y-119653997D01*
X120875513Y-119653997D01*
X120875515Y-119653996D01*
X121126861Y-119604000D01*
X121383139Y-119604000D01*
X121634485Y-119653996D01*
X121634485Y-119653996D01*
G37*
G36*
X109937915Y-120366334D02*
X110046491Y-120399271D01*
X110146556Y-120452756D01*
X110234264Y-120524736D01*
X110306244Y-120612443D01*
X110359729Y-120712508D01*
X110392666Y-120821084D01*
X110401000Y-120905702D01*
X110401000Y-121412297D01*
X110392666Y-121496916D01*
X110359729Y-121605492D01*
X110306244Y-121705557D01*
X110234264Y-121793264D01*
X110146557Y-121865244D01*
X110046492Y-121918729D01*
X109937916Y-121951666D01*
X109825000Y-121962787D01*
X109712085Y-121951666D01*
X109603509Y-121918729D01*
X109503444Y-121865244D01*
X109415737Y-121793264D01*
X109343757Y-121705557D01*
X109300240Y-121624143D01*
X109286627Y-121603768D01*
X109269299Y-121586441D01*
X109248925Y-121572827D01*
X109226286Y-121563450D01*
X109202253Y-121558669D01*
X109177748Y-121558669D01*
X109153715Y-121563449D01*
X109131076Y-121572827D01*
X109110701Y-121586440D01*
X109093374Y-121603768D01*
X109079760Y-121624143D01*
X109036244Y-121705557D01*
X108964264Y-121793264D01*
X108876557Y-121865244D01*
X108776492Y-121918729D01*
X108667916Y-121951666D01*
X108555000Y-121962787D01*
X108442085Y-121951666D01*
X108333509Y-121918729D01*
X108233444Y-121865244D01*
X108145737Y-121793264D01*
X108082626Y-121716364D01*
X108065299Y-121699036D01*
X108044924Y-121685423D01*
X108022285Y-121676045D01*
X107998252Y-121671265D01*
X107973748Y-121671265D01*
X107949714Y-121676046D01*
X107927075Y-121685423D01*
X107906701Y-121699037D01*
X107889373Y-121716364D01*
X107875760Y-121736739D01*
X107866382Y-121759378D01*
X107861000Y-121795663D01*
X107861000Y-121960000D01*
X106709000Y-121960000D01*
X106709000Y-120358000D01*
X107861000Y-120358000D01*
X107861000Y-120522337D01*
X107863402Y-120546723D01*
X107870515Y-120570172D01*
X107882066Y-120591783D01*
X107897612Y-120610725D01*
X107916554Y-120626271D01*
X107938165Y-120637822D01*
X107961614Y-120644935D01*
X107986000Y-120647337D01*
X108010386Y-120644935D01*
X108033835Y-120637822D01*
X108055446Y-120626271D01*
X108082626Y-120601636D01*
X108145736Y-120524736D01*
X108233443Y-120452756D01*
X108333508Y-120399271D01*
X108442084Y-120366334D01*
X108555000Y-120355213D01*
X108667915Y-120366334D01*
X108776491Y-120399271D01*
X108876556Y-120452756D01*
X108964264Y-120524736D01*
X109036244Y-120612443D01*
X109079767Y-120693869D01*
X109093373Y-120714232D01*
X109110700Y-120731560D01*
X109131075Y-120745174D01*
X109153713Y-120754551D01*
X109177747Y-120759332D01*
X109202251Y-120759332D01*
X109226285Y-120754552D01*
X109248924Y-120745175D01*
X109269298Y-120731561D01*
X109286626Y-120714234D01*
X109300240Y-120693858D01*
X109343756Y-120612444D01*
X109352626Y-120601636D01*
X109415736Y-120524736D01*
X109503443Y-120452756D01*
X109603508Y-120399271D01*
X109712084Y-120366334D01*
X109825000Y-120355213D01*
X109937915Y-120366334D01*
X109937915Y-120366334D01*
G37*
G36*
X91048228Y-119081703D02*
X91203100Y-119145853D01*
X91342481Y-119238985D01*
X91461015Y-119357519D01*
X91554147Y-119496900D01*
X91618297Y-119651772D01*
X91651000Y-119816184D01*
X91651000Y-119983816D01*
X91618297Y-120148228D01*
X91554147Y-120303100D01*
X91461015Y-120442481D01*
X91342481Y-120561015D01*
X91203100Y-120654147D01*
X91048228Y-120718297D01*
X90883816Y-120751000D01*
X90716184Y-120751000D01*
X90551772Y-120718297D01*
X90396900Y-120654147D01*
X90257519Y-120561015D01*
X90138985Y-120442481D01*
X90045853Y-120303100D01*
X89981703Y-120148228D01*
X89949000Y-119983816D01*
X89949000Y-119816184D01*
X89981703Y-119651772D01*
X90045853Y-119496900D01*
X90138985Y-119357519D01*
X90257519Y-119238985D01*
X90396900Y-119145853D01*
X90551772Y-119081703D01*
X90716184Y-119049000D01*
X90883816Y-119049000D01*
X91048228Y-119081703D01*
X91048228Y-119081703D01*
G37*
G36*
X103564000Y-120486000D02*
X101862000Y-120486000D01*
X101862000Y-118784000D01*
X103564000Y-118784000D01*
X103564000Y-120486000D01*
X103564000Y-120486000D01*
G37*
G36*
X83207565Y-115322389D02*
X83398834Y-115401615D01*
X83570976Y-115516637D01*
X83717363Y-115663024D01*
X83832385Y-115835166D01*
X83911611Y-116026435D01*
X83952000Y-116229484D01*
X83952000Y-116436516D01*
X83911611Y-116639565D01*
X83832385Y-116830834D01*
X83717363Y-117002976D01*
X83570976Y-117149363D01*
X83398834Y-117264385D01*
X83207565Y-117343611D01*
X83004516Y-117384000D01*
X82797484Y-117384000D01*
X82594435Y-117343611D01*
X82403166Y-117264385D01*
X82231024Y-117149363D01*
X82084637Y-117002976D01*
X81969615Y-116830834D01*
X81890389Y-116639565D01*
X81850000Y-116436516D01*
X81850000Y-116229484D01*
X81890389Y-116026435D01*
X81969615Y-115835166D01*
X82084637Y-115663024D01*
X82231024Y-115516637D01*
X82403166Y-115401615D01*
X82594435Y-115322389D01*
X82797484Y-115282000D01*
X83004516Y-115282000D01*
X83207565Y-115322389D01*
X83207565Y-115322389D01*
G37*
G36*
X99196000Y-114115000D02*
X99031664Y-114115000D01*
X99007278Y-114117402D01*
X98983829Y-114124515D01*
X98962218Y-114136066D01*
X98943276Y-114151612D01*
X98927730Y-114170554D01*
X98916179Y-114192165D01*
X98909066Y-114215614D01*
X98906664Y-114240000D01*
X98909066Y-114264386D01*
X98916179Y-114287835D01*
X98927730Y-114309446D01*
X98952365Y-114336626D01*
X99029264Y-114399736D01*
X99101244Y-114487443D01*
X99154729Y-114587508D01*
X99187666Y-114696084D01*
X99198787Y-114809000D01*
X99187666Y-114921916D01*
X99154729Y-115030492D01*
X99154726Y-115030497D01*
X99101244Y-115130557D01*
X99029264Y-115218264D01*
X98941557Y-115290244D01*
X98860143Y-115333760D01*
X98839768Y-115347373D01*
X98822441Y-115364701D01*
X98808827Y-115385075D01*
X98799450Y-115407714D01*
X98794669Y-115431747D01*
X98794669Y-115456252D01*
X98799449Y-115480285D01*
X98808827Y-115502924D01*
X98822440Y-115523299D01*
X98839768Y-115540626D01*
X98860143Y-115554240D01*
X98941557Y-115597756D01*
X99029264Y-115669736D01*
X99101244Y-115757443D01*
X99154729Y-115857508D01*
X99187666Y-115966084D01*
X99198787Y-116079000D01*
X99187666Y-116191916D01*
X99154729Y-116300492D01*
X99101244Y-116400557D01*
X99029264Y-116488264D01*
X98941557Y-116560244D01*
X98841492Y-116613729D01*
X98732916Y-116646666D01*
X98648298Y-116655000D01*
X98141702Y-116655000D01*
X98057084Y-116646666D01*
X97948508Y-116613729D01*
X97848443Y-116560244D01*
X97760736Y-116488264D01*
X97688756Y-116400557D01*
X97635271Y-116300492D01*
X97602334Y-116191916D01*
X97591213Y-116079000D01*
X97602334Y-115966084D01*
X97635271Y-115857508D01*
X97688756Y-115757443D01*
X97760736Y-115669736D01*
X97848443Y-115597756D01*
X97929857Y-115554240D01*
X97950232Y-115540627D01*
X97967559Y-115523299D01*
X97981173Y-115502925D01*
X97990550Y-115480286D01*
X97995331Y-115456253D01*
X97995331Y-115431748D01*
X97990551Y-115407715D01*
X97981173Y-115385076D01*
X97967560Y-115364701D01*
X97950232Y-115347374D01*
X97929857Y-115333760D01*
X97848443Y-115290244D01*
X97760736Y-115218264D01*
X97688756Y-115130557D01*
X97635274Y-115030497D01*
X97635271Y-115030492D01*
X97602334Y-114921916D01*
X97591213Y-114809000D01*
X97602334Y-114696084D01*
X97635271Y-114587508D01*
X97688756Y-114487443D01*
X97760736Y-114399736D01*
X97837635Y-114336626D01*
X97854962Y-114319299D01*
X97868576Y-114298924D01*
X97877954Y-114276285D01*
X97882734Y-114252252D01*
X97882734Y-114227748D01*
X97877953Y-114203714D01*
X97868576Y-114181075D01*
X97854962Y-114160701D01*
X97837635Y-114143374D01*
X97817260Y-114129760D01*
X97794621Y-114120382D01*
X97758336Y-114115000D01*
X97594000Y-114115000D01*
X97594000Y-112963000D01*
X99196000Y-112963000D01*
X99196000Y-114115000D01*
X99196000Y-114115000D01*
G37*
G36*
X110499821Y-114732313D02*
X110499824Y-114732314D01*
X110499825Y-114732314D01*
X110660239Y-114780975D01*
X110660241Y-114780976D01*
X110660244Y-114780977D01*
X110808078Y-114859995D01*
X110937659Y-114966341D01*
X111044005Y-115095922D01*
X111123023Y-115243756D01*
X111123024Y-115243759D01*
X111123025Y-115243761D01*
X111163341Y-115376666D01*
X111171687Y-115404179D01*
X111188117Y-115571000D01*
X111171687Y-115737821D01*
X111171686Y-115737824D01*
X111171686Y-115737825D01*
X111135381Y-115857508D01*
X111123023Y-115898244D01*
X111044005Y-116046078D01*
X110937659Y-116175659D01*
X110808078Y-116282005D01*
X110660244Y-116361023D01*
X110660241Y-116361024D01*
X110660239Y-116361025D01*
X110499825Y-116409686D01*
X110499824Y-116409686D01*
X110499821Y-116409687D01*
X110374804Y-116422000D01*
X110291196Y-116422000D01*
X110166179Y-116409687D01*
X110166176Y-116409686D01*
X110166175Y-116409686D01*
X110005761Y-116361025D01*
X110005759Y-116361024D01*
X110005756Y-116361023D01*
X109857922Y-116282005D01*
X109728341Y-116175659D01*
X109621995Y-116046078D01*
X109542977Y-115898244D01*
X109530620Y-115857508D01*
X109494314Y-115737825D01*
X109494314Y-115737824D01*
X109494313Y-115737821D01*
X109477883Y-115571000D01*
X109494313Y-115404179D01*
X109502659Y-115376666D01*
X109542975Y-115243761D01*
X109542976Y-115243759D01*
X109542977Y-115243756D01*
X109621995Y-115095922D01*
X109728341Y-114966341D01*
X109857922Y-114859995D01*
X110005756Y-114780977D01*
X110005759Y-114780976D01*
X110005761Y-114780975D01*
X110166175Y-114732314D01*
X110166176Y-114732314D01*
X110166179Y-114732313D01*
X110291196Y-114720000D01*
X110374804Y-114720000D01*
X110499821Y-114732313D01*
X110499821Y-114732313D01*
G37*
G36*
X103564000Y-116422000D02*
X101862000Y-116422000D01*
X101862000Y-114720000D01*
X103564000Y-114720000D01*
X103564000Y-116422000D01*
X103564000Y-116422000D01*
G37*
G36*
X119685228Y-112466703D02*
X119840100Y-112530853D01*
X119979481Y-112623985D01*
X120098015Y-112742519D01*
X120191147Y-112881900D01*
X120255297Y-113036772D01*
X120288000Y-113201184D01*
X120288000Y-113368816D01*
X120255297Y-113533228D01*
X120191147Y-113688100D01*
X120098015Y-113827481D01*
X119979481Y-113946015D01*
X119840100Y-114039147D01*
X119685228Y-114103297D01*
X119520816Y-114136000D01*
X119353184Y-114136000D01*
X119188772Y-114103297D01*
X119033900Y-114039147D01*
X118894519Y-113946015D01*
X118775985Y-113827481D01*
X118682853Y-113688100D01*
X118618703Y-113533228D01*
X118586000Y-113368816D01*
X118586000Y-113201184D01*
X118618703Y-113036772D01*
X118682853Y-112881900D01*
X118775985Y-112742519D01*
X118894519Y-112623985D01*
X119033900Y-112530853D01*
X119188772Y-112466703D01*
X119353184Y-112434000D01*
X119520816Y-112434000D01*
X119685228Y-112466703D01*
X119685228Y-112466703D01*
G37*
G36*
X117788000Y-114136000D02*
X116086000Y-114136000D01*
X116086000Y-112434000D01*
X117788000Y-112434000D01*
X117788000Y-114136000D01*
X117788000Y-114136000D01*
G37*
G36*
X108549228Y-109672703D02*
X108704100Y-109736853D01*
X108843481Y-109829985D01*
X108962015Y-109948519D01*
X109055147Y-110087900D01*
X109119297Y-110242772D01*
X109152000Y-110407184D01*
X109152000Y-110574816D01*
X109119297Y-110739228D01*
X109055147Y-110894100D01*
X108962015Y-111033481D01*
X108843481Y-111152015D01*
X108704100Y-111245147D01*
X108549228Y-111309297D01*
X108384816Y-111342000D01*
X108217184Y-111342000D01*
X108052772Y-111309297D01*
X107897900Y-111245147D01*
X107758519Y-111152015D01*
X107639985Y-111033481D01*
X107546853Y-110894100D01*
X107482703Y-110739228D01*
X107450000Y-110574816D01*
X107450000Y-110407184D01*
X107482703Y-110242772D01*
X107546853Y-110087900D01*
X107639985Y-109948519D01*
X107758519Y-109829985D01*
X107897900Y-109736853D01*
X108052772Y-109672703D01*
X108217184Y-109640000D01*
X108384816Y-109640000D01*
X108549228Y-109672703D01*
X108549228Y-109672703D01*
G37*
G36*
X112023821Y-109652313D02*
X112023824Y-109652314D01*
X112023825Y-109652314D01*
X112184239Y-109700975D01*
X112184241Y-109700976D01*
X112184244Y-109700977D01*
X112332078Y-109779995D01*
X112461659Y-109886341D01*
X112568005Y-110015922D01*
X112647023Y-110163756D01*
X112647024Y-110163759D01*
X112647025Y-110163761D01*
X112686319Y-110293296D01*
X112695687Y-110324179D01*
X112712117Y-110491000D01*
X112695687Y-110657821D01*
X112695686Y-110657824D01*
X112695686Y-110657825D01*
X112670993Y-110739228D01*
X112647023Y-110818244D01*
X112568005Y-110966078D01*
X112461659Y-111095659D01*
X112332078Y-111202005D01*
X112184244Y-111281023D01*
X112184241Y-111281024D01*
X112184239Y-111281025D01*
X112023825Y-111329686D01*
X112023824Y-111329686D01*
X112023821Y-111329687D01*
X111898804Y-111342000D01*
X111815196Y-111342000D01*
X111690179Y-111329687D01*
X111690176Y-111329686D01*
X111690175Y-111329686D01*
X111529761Y-111281025D01*
X111529759Y-111281024D01*
X111529756Y-111281023D01*
X111381922Y-111202005D01*
X111252341Y-111095659D01*
X111145995Y-110966078D01*
X111066977Y-110818244D01*
X111043008Y-110739228D01*
X111018314Y-110657825D01*
X111018314Y-110657824D01*
X111018313Y-110657821D01*
X111001883Y-110491000D01*
X111018313Y-110324179D01*
X111027681Y-110293296D01*
X111066975Y-110163761D01*
X111066976Y-110163759D01*
X111066977Y-110163756D01*
X111145995Y-110015922D01*
X111252341Y-109886341D01*
X111381922Y-109779995D01*
X111529756Y-109700977D01*
X111529759Y-109700976D01*
X111529761Y-109700975D01*
X111690175Y-109652314D01*
X111690176Y-109652314D01*
X111690179Y-109652313D01*
X111815196Y-109640000D01*
X111898804Y-109640000D01*
X112023821Y-109652313D01*
X112023821Y-109652313D01*
G37*
G36*
X85435228Y-108656703D02*
X85590100Y-108720853D01*
X85729481Y-108813985D01*
X85848015Y-108932519D01*
X85941147Y-109071900D01*
X86005297Y-109226772D01*
X86038000Y-109391184D01*
X86038000Y-109558816D01*
X86005297Y-109723228D01*
X85941147Y-109878100D01*
X85848015Y-110017481D01*
X85729481Y-110136015D01*
X85590100Y-110229147D01*
X85435228Y-110293297D01*
X85270816Y-110326000D01*
X85103184Y-110326000D01*
X84938772Y-110293297D01*
X84783900Y-110229147D01*
X84644519Y-110136015D01*
X84525985Y-110017481D01*
X84432853Y-109878100D01*
X84368703Y-109723228D01*
X84336000Y-109558816D01*
X84336000Y-109391184D01*
X84368703Y-109226772D01*
X84432853Y-109071900D01*
X84525985Y-108932519D01*
X84644519Y-108813985D01*
X84783900Y-108720853D01*
X84938772Y-108656703D01*
X85103184Y-108624000D01*
X85270816Y-108624000D01*
X85435228Y-108656703D01*
X85435228Y-108656703D01*
G37*
G36*
X80435228Y-108656703D02*
X80590100Y-108720853D01*
X80729481Y-108813985D01*
X80848015Y-108932519D01*
X80941147Y-109071900D01*
X81005297Y-109226772D01*
X81038000Y-109391184D01*
X81038000Y-109558816D01*
X81005297Y-109723228D01*
X80941147Y-109878100D01*
X80848015Y-110017481D01*
X80729481Y-110136015D01*
X80590100Y-110229147D01*
X80435228Y-110293297D01*
X80270816Y-110326000D01*
X80103184Y-110326000D01*
X79938772Y-110293297D01*
X79783900Y-110229147D01*
X79644519Y-110136015D01*
X79525985Y-110017481D01*
X79432853Y-109878100D01*
X79368703Y-109723228D01*
X79336000Y-109558816D01*
X79336000Y-109391184D01*
X79368703Y-109226772D01*
X79432853Y-109071900D01*
X79525985Y-108932519D01*
X79644519Y-108813985D01*
X79783900Y-108720853D01*
X79938772Y-108656703D01*
X80103184Y-108624000D01*
X80270816Y-108624000D01*
X80435228Y-108656703D01*
X80435228Y-108656703D01*
G37*
G36*
X100352527Y-104457736D02*
X100452410Y-104477604D01*
X100734674Y-104594521D01*
X100988705Y-104764259D01*
X101204741Y-104980295D01*
X101374479Y-105234326D01*
X101491396Y-105516590D01*
X101551000Y-105816240D01*
X101551000Y-106121760D01*
X101491396Y-106421410D01*
X101374479Y-106703674D01*
X101204741Y-106957705D01*
X100988705Y-107173741D01*
X100734674Y-107343479D01*
X100452410Y-107460396D01*
X100352527Y-107480264D01*
X100152762Y-107520000D01*
X99847238Y-107520000D01*
X99647473Y-107480264D01*
X99547590Y-107460396D01*
X99265326Y-107343479D01*
X99011295Y-107173741D01*
X98795259Y-106957705D01*
X98625521Y-106703674D01*
X98508604Y-106421410D01*
X98449000Y-106121760D01*
X98449000Y-105816240D01*
X98508604Y-105516590D01*
X98625521Y-105234326D01*
X98795259Y-104980295D01*
X99011295Y-104764259D01*
X99265326Y-104594521D01*
X99547590Y-104477604D01*
X99647473Y-104457736D01*
X99847238Y-104418000D01*
X100152762Y-104418000D01*
X100352527Y-104457736D01*
X100352527Y-104457736D01*
G37*
G36*
X91531228Y-103830703D02*
X91686100Y-103894853D01*
X91825481Y-103987985D01*
X91944015Y-104106519D01*
X92037147Y-104245900D01*
X92101297Y-104400772D01*
X92134000Y-104565184D01*
X92134000Y-104732816D01*
X92101297Y-104897228D01*
X92037147Y-105052100D01*
X91944015Y-105191481D01*
X91825481Y-105310015D01*
X91686100Y-105403147D01*
X91531228Y-105467297D01*
X91366816Y-105500000D01*
X91199184Y-105500000D01*
X91034772Y-105467297D01*
X90879900Y-105403147D01*
X90740519Y-105310015D01*
X90621985Y-105191481D01*
X90528853Y-105052100D01*
X90464703Y-104897228D01*
X90432000Y-104732816D01*
X90432000Y-104565184D01*
X90464703Y-104400772D01*
X90528853Y-104245900D01*
X90621985Y-104106519D01*
X90740519Y-103987985D01*
X90879900Y-103894853D01*
X91034772Y-103830703D01*
X91199184Y-103798000D01*
X91366816Y-103798000D01*
X91531228Y-103830703D01*
X91531228Y-103830703D01*
G37*
G36*
X96417085Y-99923170D02*
X96608354Y-100002396D01*
X96780496Y-100117418D01*
X96926883Y-100263805D01*
X97041905Y-100435947D01*
X97121131Y-100627216D01*
X97161520Y-100830265D01*
X97161520Y-101037297D01*
X97157324Y-101058392D01*
X97154922Y-101082778D01*
X97157324Y-101107165D01*
X97164437Y-101130614D01*
X97175989Y-101152225D01*
X97191534Y-101171167D01*
X97201959Y-101179722D01*
X97352261Y-101330024D01*
X97467283Y-101502166D01*
X97546509Y-101693435D01*
X97586898Y-101896484D01*
X97586898Y-102103516D01*
X97546509Y-102306565D01*
X97467283Y-102497834D01*
X97352261Y-102669976D01*
X97205874Y-102816363D01*
X97033732Y-102931385D01*
X96842463Y-103010611D01*
X96639414Y-103051000D01*
X96432382Y-103051000D01*
X96229333Y-103010611D01*
X96038064Y-102931385D01*
X95865922Y-102816363D01*
X95719535Y-102669976D01*
X95604513Y-102497834D01*
X95525287Y-102306565D01*
X95484898Y-102103516D01*
X95484898Y-101896484D01*
X95489094Y-101875389D01*
X95491496Y-101851003D01*
X95489094Y-101826616D01*
X95481981Y-101803167D01*
X95470429Y-101781556D01*
X95454884Y-101762614D01*
X95444459Y-101754059D01*
X95294157Y-101603757D01*
X95179135Y-101431615D01*
X95099909Y-101240346D01*
X95059520Y-101037297D01*
X95059520Y-100830265D01*
X95099909Y-100627216D01*
X95179135Y-100435947D01*
X95294157Y-100263805D01*
X95440544Y-100117418D01*
X95612686Y-100002396D01*
X95803955Y-99923170D01*
X96007004Y-99882781D01*
X96214036Y-99882781D01*
X96417085Y-99923170D01*
X96417085Y-99923170D01*
G37*
G36*
X104196045Y-99923170D02*
X104387314Y-100002396D01*
X104559456Y-100117418D01*
X104705843Y-100263805D01*
X104820865Y-100435947D01*
X104900091Y-100627216D01*
X104940480Y-100830265D01*
X104940480Y-101037297D01*
X104900091Y-101240346D01*
X104820865Y-101431615D01*
X104705843Y-101603757D01*
X104555540Y-101754060D01*
X104545118Y-101762613D01*
X104529572Y-101781554D01*
X104518020Y-101803165D01*
X104510906Y-101826614D01*
X104508504Y-101851000D01*
X104510906Y-101875389D01*
X104515102Y-101896484D01*
X104515102Y-102103516D01*
X104474713Y-102306565D01*
X104395487Y-102497834D01*
X104280465Y-102669976D01*
X104134078Y-102816363D01*
X103961936Y-102931385D01*
X103770667Y-103010611D01*
X103567618Y-103051000D01*
X103360586Y-103051000D01*
X103157537Y-103010611D01*
X102966268Y-102931385D01*
X102794126Y-102816363D01*
X102647739Y-102669976D01*
X102532717Y-102497834D01*
X102453491Y-102306565D01*
X102413102Y-102103516D01*
X102413102Y-101896484D01*
X102453491Y-101693435D01*
X102532717Y-101502166D01*
X102647739Y-101330024D01*
X102798042Y-101179721D01*
X102808464Y-101171168D01*
X102824010Y-101152227D01*
X102835562Y-101130616D01*
X102842676Y-101107167D01*
X102845078Y-101082781D01*
X102842676Y-101058392D01*
X102838480Y-101037297D01*
X102838480Y-100830265D01*
X102878869Y-100627216D01*
X102958095Y-100435947D01*
X103073117Y-100263805D01*
X103219504Y-100117418D01*
X103391646Y-100002396D01*
X103582915Y-99923170D01*
X103785964Y-99882781D01*
X103992996Y-99882781D01*
X104196045Y-99923170D01*
X104196045Y-99923170D01*
G37*
G36*
X112105228Y-99512703D02*
X112260100Y-99576853D01*
X112399481Y-99669985D01*
X112518015Y-99788519D01*
X112611147Y-99927900D01*
X112675297Y-100082772D01*
X112708000Y-100247184D01*
X112708000Y-100414816D01*
X112675297Y-100579228D01*
X112611147Y-100734100D01*
X112518015Y-100873481D01*
X112399481Y-100992015D01*
X112260100Y-101085147D01*
X112105228Y-101149297D01*
X111940816Y-101182000D01*
X111773184Y-101182000D01*
X111608772Y-101149297D01*
X111453900Y-101085147D01*
X111314519Y-100992015D01*
X111195985Y-100873481D01*
X111102853Y-100734100D01*
X111038703Y-100579228D01*
X111006000Y-100414816D01*
X111006000Y-100247184D01*
X111038703Y-100082772D01*
X111102853Y-99927900D01*
X111195985Y-99788519D01*
X111314519Y-99669985D01*
X111453900Y-99576853D01*
X111608772Y-99512703D01*
X111773184Y-99480000D01*
X111940816Y-99480000D01*
X112105228Y-99512703D01*
X112105228Y-99512703D01*
G37*
G36*
X108467821Y-99492313D02*
X108467824Y-99492314D01*
X108467825Y-99492314D01*
X108628239Y-99540975D01*
X108628241Y-99540976D01*
X108628244Y-99540977D01*
X108776078Y-99619995D01*
X108905659Y-99726341D01*
X109012005Y-99855922D01*
X109091023Y-100003756D01*
X109091024Y-100003759D01*
X109091025Y-100003761D01*
X109121285Y-100103516D01*
X109139687Y-100164179D01*
X109156117Y-100331000D01*
X109139687Y-100497821D01*
X109139686Y-100497824D01*
X109139686Y-100497825D01*
X109100436Y-100627216D01*
X109091023Y-100658244D01*
X109012005Y-100806078D01*
X108905659Y-100935659D01*
X108776078Y-101042005D01*
X108628244Y-101121023D01*
X108628241Y-101121024D01*
X108628239Y-101121025D01*
X108467825Y-101169686D01*
X108467824Y-101169686D01*
X108467821Y-101169687D01*
X108342804Y-101182000D01*
X108259196Y-101182000D01*
X108134179Y-101169687D01*
X108134176Y-101169686D01*
X108134175Y-101169686D01*
X107973761Y-101121025D01*
X107973759Y-101121024D01*
X107973756Y-101121023D01*
X107825922Y-101042005D01*
X107696341Y-100935659D01*
X107589995Y-100806078D01*
X107510977Y-100658244D01*
X107501565Y-100627216D01*
X107462314Y-100497825D01*
X107462314Y-100497824D01*
X107462313Y-100497821D01*
X107445883Y-100331000D01*
X107462313Y-100164179D01*
X107480715Y-100103516D01*
X107510975Y-100003761D01*
X107510976Y-100003759D01*
X107510977Y-100003756D01*
X107589995Y-99855922D01*
X107696341Y-99726341D01*
X107825922Y-99619995D01*
X107973756Y-99540977D01*
X107973759Y-99540976D01*
X107973761Y-99540975D01*
X108134175Y-99492314D01*
X108134176Y-99492314D01*
X108134179Y-99492313D01*
X108259196Y-99480000D01*
X108342804Y-99480000D01*
X108467821Y-99492313D01*
X108467821Y-99492313D01*
G37*
G36*
X100306565Y-98989389D02*
X100497834Y-99068615D01*
X100669976Y-99183637D01*
X100816363Y-99330024D01*
X100931385Y-99502166D01*
X101010611Y-99693435D01*
X101051000Y-99896484D01*
X101051000Y-100103516D01*
X101010611Y-100306565D01*
X100931385Y-100497834D01*
X100816363Y-100669976D01*
X100669976Y-100816363D01*
X100497834Y-100931385D01*
X100306565Y-101010611D01*
X100103516Y-101051000D01*
X99896484Y-101051000D01*
X99693435Y-101010611D01*
X99502166Y-100931385D01*
X99330024Y-100816363D01*
X99183637Y-100669976D01*
X99068615Y-100497834D01*
X98989389Y-100306565D01*
X98949000Y-100103516D01*
X98949000Y-99896484D01*
X98989389Y-99693435D01*
X99068615Y-99502166D01*
X99183637Y-99330024D01*
X99330024Y-99183637D01*
X99502166Y-99068615D01*
X99693435Y-98989389D01*
X99896484Y-98949000D01*
X100103516Y-98949000D01*
X100306565Y-98989389D01*
X100306565Y-98989389D01*
G37*
G36*
X103793212Y-95969249D02*
X103887651Y-95997897D01*
X103974687Y-96044418D01*
X104050975Y-96107025D01*
X104113582Y-96183313D01*
X104160103Y-96270348D01*
X104188751Y-96364787D01*
X104196000Y-96438388D01*
X104196000Y-97111612D01*
X104188751Y-97185213D01*
X104160103Y-97279652D01*
X104113582Y-97366687D01*
X104050975Y-97442975D01*
X103974687Y-97505582D01*
X103887652Y-97552103D01*
X103793213Y-97580751D01*
X103695000Y-97590424D01*
X103596788Y-97580751D01*
X103502349Y-97552103D01*
X103415314Y-97505582D01*
X103339026Y-97442975D01*
X103276419Y-97366687D01*
X103254764Y-97326174D01*
X103229898Y-97279653D01*
X103220349Y-97248172D01*
X103201250Y-97185213D01*
X103194001Y-97111612D01*
X103194000Y-97111602D01*
X103194000Y-96438389D01*
X103201249Y-96364788D01*
X103229897Y-96270349D01*
X103276418Y-96183313D01*
X103339025Y-96107025D01*
X103415313Y-96044418D01*
X103502348Y-95997897D01*
X103596787Y-95969249D01*
X103695000Y-95959576D01*
X103793212Y-95969249D01*
X103793212Y-95969249D01*
G37*
G36*
X100306565Y-94989389D02*
X100497834Y-95068615D01*
X100669976Y-95183637D01*
X100816363Y-95330024D01*
X100931385Y-95502166D01*
X101010611Y-95693435D01*
X101051000Y-95896484D01*
X101051000Y-96103516D01*
X101010611Y-96306565D01*
X100931385Y-96497834D01*
X100816363Y-96669976D01*
X100669976Y-96816363D01*
X100497834Y-96931385D01*
X100306565Y-97010611D01*
X100103516Y-97051000D01*
X99896484Y-97051000D01*
X99693435Y-97010611D01*
X99502166Y-96931385D01*
X99330024Y-96816363D01*
X99183637Y-96669976D01*
X99068615Y-96497834D01*
X98989389Y-96306565D01*
X98949000Y-96103516D01*
X98949000Y-95896484D01*
X98989389Y-95693435D01*
X99068615Y-95502166D01*
X99183637Y-95330024D01*
X99330024Y-95183637D01*
X99502166Y-95068615D01*
X99693435Y-94989389D01*
X99896484Y-94949000D01*
X100103516Y-94949000D01*
X100306565Y-94989389D01*
X100306565Y-94989389D01*
G37*
G36*
X91449821Y-93650313D02*
X91449824Y-93650314D01*
X91449825Y-93650314D01*
X91610239Y-93698975D01*
X91610241Y-93698976D01*
X91610244Y-93698977D01*
X91758078Y-93777995D01*
X91887659Y-93884341D01*
X91994005Y-94013922D01*
X92073023Y-94161756D01*
X92121687Y-94322179D01*
X92138117Y-94489000D01*
X92121687Y-94655821D01*
X92073023Y-94816244D01*
X91994005Y-94964078D01*
X91887659Y-95093659D01*
X91758078Y-95200005D01*
X91610244Y-95279023D01*
X91610241Y-95279024D01*
X91610239Y-95279025D01*
X91449825Y-95327686D01*
X91449824Y-95327686D01*
X91449821Y-95327687D01*
X91324804Y-95340000D01*
X91241196Y-95340000D01*
X91116179Y-95327687D01*
X91116176Y-95327686D01*
X91116175Y-95327686D01*
X90955761Y-95279025D01*
X90955759Y-95279024D01*
X90955756Y-95279023D01*
X90807922Y-95200005D01*
X90678341Y-95093659D01*
X90571995Y-94964078D01*
X90492977Y-94816244D01*
X90444313Y-94655821D01*
X90427883Y-94489000D01*
X90444313Y-94322179D01*
X90492977Y-94161756D01*
X90571995Y-94013922D01*
X90678341Y-93884341D01*
X90807922Y-93777995D01*
X90955756Y-93698977D01*
X90955759Y-93698976D01*
X90955761Y-93698975D01*
X91116175Y-93650314D01*
X91116176Y-93650314D01*
X91116179Y-93650313D01*
X91241196Y-93638000D01*
X91324804Y-93638000D01*
X91449821Y-93650313D01*
X91449821Y-93650313D01*
G37*
G36*
X97737396Y-90195546D02*
X97910466Y-90267234D01*
X98066230Y-90371312D01*
X98198688Y-90503770D01*
X98302766Y-90659534D01*
X98374454Y-90832604D01*
X98411000Y-91016333D01*
X98411000Y-91203667D01*
X98374454Y-91387396D01*
X98302766Y-91560466D01*
X98198688Y-91716230D01*
X98066230Y-91848688D01*
X97910466Y-91952766D01*
X97737396Y-92024454D01*
X97553667Y-92061000D01*
X97366333Y-92061000D01*
X97182604Y-92024454D01*
X97009534Y-91952766D01*
X96853770Y-91848688D01*
X96721312Y-91716230D01*
X96617234Y-91560466D01*
X96545546Y-91387396D01*
X96509000Y-91203667D01*
X96509000Y-91016333D01*
X96545546Y-90832604D01*
X96617234Y-90659534D01*
X96721312Y-90503770D01*
X96853770Y-90371312D01*
X97009534Y-90267234D01*
X97182604Y-90195546D01*
X97366333Y-90159000D01*
X97553667Y-90159000D01*
X97737396Y-90195546D01*
X97737396Y-90195546D01*
G37*
G36*
X102817396Y-90195546D02*
X102990466Y-90267234D01*
X103146230Y-90371312D01*
X103278688Y-90503770D01*
X103382766Y-90659534D01*
X103454454Y-90832604D01*
X103491000Y-91016333D01*
X103491000Y-91203667D01*
X103454454Y-91387396D01*
X103382766Y-91560466D01*
X103278688Y-91716230D01*
X103146230Y-91848688D01*
X102990466Y-91952766D01*
X102817396Y-92024454D01*
X102633667Y-92061000D01*
X102446333Y-92061000D01*
X102262604Y-92024454D01*
X102089534Y-91952766D01*
X101933770Y-91848688D01*
X101801312Y-91716230D01*
X101697234Y-91560466D01*
X101625546Y-91387396D01*
X101589000Y-91203667D01*
X101589000Y-91016333D01*
X101625546Y-90832604D01*
X101697234Y-90659534D01*
X101801312Y-90503770D01*
X101933770Y-90371312D01*
X102089534Y-90267234D01*
X102262604Y-90195546D01*
X102446333Y-90159000D01*
X102633667Y-90159000D01*
X102817396Y-90195546D01*
X102817396Y-90195546D01*
G37*
G36*
X112977396Y-90195546D02*
X113150466Y-90267234D01*
X113306230Y-90371312D01*
X113438688Y-90503770D01*
X113542766Y-90659534D01*
X113614454Y-90832604D01*
X113651000Y-91016333D01*
X113651000Y-91203667D01*
X113614454Y-91387396D01*
X113542766Y-91560466D01*
X113438688Y-91716230D01*
X113306230Y-91848688D01*
X113150466Y-91952766D01*
X112977396Y-92024454D01*
X112793667Y-92061000D01*
X112606333Y-92061000D01*
X112422604Y-92024454D01*
X112249534Y-91952766D01*
X112093770Y-91848688D01*
X111961312Y-91716230D01*
X111857234Y-91560466D01*
X111785546Y-91387396D01*
X111749000Y-91203667D01*
X111749000Y-91016333D01*
X111785546Y-90832604D01*
X111857234Y-90659534D01*
X111961312Y-90503770D01*
X112093770Y-90371312D01*
X112249534Y-90267234D01*
X112422604Y-90195546D01*
X112606333Y-90159000D01*
X112793667Y-90159000D01*
X112977396Y-90195546D01*
X112977396Y-90195546D01*
G37*
G36*
X95197396Y-90195546D02*
X95370466Y-90267234D01*
X95526230Y-90371312D01*
X95658688Y-90503770D01*
X95762766Y-90659534D01*
X95834454Y-90832604D01*
X95871000Y-91016333D01*
X95871000Y-91203667D01*
X95834454Y-91387396D01*
X95762766Y-91560466D01*
X95658688Y-91716230D01*
X95526230Y-91848688D01*
X95370466Y-91952766D01*
X95197396Y-92024454D01*
X95013667Y-92061000D01*
X94826333Y-92061000D01*
X94642604Y-92024454D01*
X94469534Y-91952766D01*
X94313770Y-91848688D01*
X94181312Y-91716230D01*
X94077234Y-91560466D01*
X94005546Y-91387396D01*
X93969000Y-91203667D01*
X93969000Y-91016333D01*
X94005546Y-90832604D01*
X94077234Y-90659534D01*
X94181312Y-90503770D01*
X94313770Y-90371312D01*
X94469534Y-90267234D01*
X94642604Y-90195546D01*
X94826333Y-90159000D01*
X95013667Y-90159000D01*
X95197396Y-90195546D01*
X95197396Y-90195546D01*
G37*
G36*
X105357396Y-90195546D02*
X105530466Y-90267234D01*
X105686230Y-90371312D01*
X105818688Y-90503770D01*
X105922766Y-90659534D01*
X105994454Y-90832604D01*
X106031000Y-91016333D01*
X106031000Y-91203667D01*
X105994454Y-91387396D01*
X105922766Y-91560466D01*
X105818688Y-91716230D01*
X105686230Y-91848688D01*
X105530466Y-91952766D01*
X105357396Y-92024454D01*
X105173667Y-92061000D01*
X104986333Y-92061000D01*
X104802604Y-92024454D01*
X104629534Y-91952766D01*
X104473770Y-91848688D01*
X104341312Y-91716230D01*
X104237234Y-91560466D01*
X104165546Y-91387396D01*
X104129000Y-91203667D01*
X104129000Y-91016333D01*
X104165546Y-90832604D01*
X104237234Y-90659534D01*
X104341312Y-90503770D01*
X104473770Y-90371312D01*
X104629534Y-90267234D01*
X104802604Y-90195546D01*
X104986333Y-90159000D01*
X105173667Y-90159000D01*
X105357396Y-90195546D01*
X105357396Y-90195546D01*
G37*
G36*
X98923212Y-79509249D02*
X99017651Y-79537897D01*
X99104687Y-79584418D01*
X99180975Y-79647025D01*
X99243582Y-79723313D01*
X99290103Y-79810348D01*
X99318751Y-79904787D01*
X99326000Y-79978388D01*
X99326000Y-80651612D01*
X99318751Y-80725213D01*
X99290103Y-80819652D01*
X99243582Y-80906687D01*
X99180975Y-80982975D01*
X99104687Y-81045582D01*
X99017652Y-81092103D01*
X98923213Y-81120751D01*
X98825000Y-81130424D01*
X98726788Y-81120751D01*
X98632349Y-81092103D01*
X98545314Y-81045582D01*
X98469026Y-80982975D01*
X98406419Y-80906687D01*
X98384764Y-80866174D01*
X98359898Y-80819653D01*
X98350349Y-80788172D01*
X98331250Y-80725213D01*
X98324001Y-80651612D01*
X98324000Y-80651602D01*
X98324000Y-79978389D01*
X98331249Y-79904788D01*
X98359897Y-79810349D01*
X98406418Y-79723313D01*
X98469025Y-79647025D01*
X98545313Y-79584418D01*
X98632348Y-79537897D01*
X98726787Y-79509249D01*
X98825000Y-79499576D01*
X98923212Y-79509249D01*
X98923212Y-79509249D01*
G37*
G36*
X96383212Y-79509249D02*
X96477651Y-79537897D01*
X96564687Y-79584418D01*
X96640975Y-79647025D01*
X96703582Y-79723313D01*
X96750103Y-79810348D01*
X96778751Y-79904787D01*
X96786000Y-79978388D01*
X96786000Y-80651612D01*
X96778751Y-80725213D01*
X96750103Y-80819652D01*
X96703582Y-80906687D01*
X96640975Y-80982975D01*
X96564687Y-81045582D01*
X96477652Y-81092103D01*
X96383213Y-81120751D01*
X96285000Y-81130424D01*
X96186788Y-81120751D01*
X96092349Y-81092103D01*
X96005314Y-81045582D01*
X95929026Y-80982975D01*
X95866419Y-80906687D01*
X95844764Y-80866174D01*
X95819898Y-80819653D01*
X95810349Y-80788172D01*
X95791250Y-80725213D01*
X95784001Y-80651612D01*
X95784000Y-80651602D01*
X95784000Y-79978389D01*
X95791249Y-79904788D01*
X95819897Y-79810349D01*
X95866418Y-79723313D01*
X95929025Y-79647025D01*
X96005313Y-79584418D01*
X96092348Y-79537897D01*
X96186787Y-79509249D01*
X96285000Y-79499576D01*
X96383212Y-79509249D01*
X96383212Y-79509249D01*
G37*
G36*
X97653212Y-79509249D02*
X97747651Y-79537897D01*
X97834687Y-79584418D01*
X97910975Y-79647025D01*
X97973582Y-79723313D01*
X98020103Y-79810348D01*
X98048751Y-79904787D01*
X98056000Y-79978388D01*
X98056000Y-80651612D01*
X98048751Y-80725213D01*
X98020103Y-80819652D01*
X97973582Y-80906687D01*
X97910975Y-80982975D01*
X97834687Y-81045582D01*
X97747652Y-81092103D01*
X97653213Y-81120751D01*
X97555000Y-81130424D01*
X97456788Y-81120751D01*
X97362349Y-81092103D01*
X97275314Y-81045582D01*
X97199026Y-80982975D01*
X97136419Y-80906687D01*
X97114764Y-80866174D01*
X97089898Y-80819653D01*
X97080349Y-80788172D01*
X97061250Y-80725213D01*
X97054001Y-80651612D01*
X97054000Y-80651602D01*
X97054000Y-79978389D01*
X97061249Y-79904788D01*
X97089897Y-79810349D01*
X97136418Y-79723313D01*
X97199025Y-79647025D01*
X97275313Y-79584418D01*
X97362348Y-79537897D01*
X97456787Y-79509249D01*
X97555000Y-79499576D01*
X97653212Y-79509249D01*
X97653212Y-79509249D01*
G37*
G36*
X101463212Y-79509249D02*
X101557651Y-79537897D01*
X101644687Y-79584418D01*
X101720975Y-79647025D01*
X101783582Y-79723313D01*
X101830103Y-79810348D01*
X101858751Y-79904787D01*
X101866000Y-79978388D01*
X101866000Y-80651612D01*
X101858751Y-80725213D01*
X101830103Y-80819652D01*
X101783582Y-80906687D01*
X101720975Y-80982975D01*
X101644687Y-81045582D01*
X101557652Y-81092103D01*
X101463213Y-81120751D01*
X101365000Y-81130424D01*
X101266788Y-81120751D01*
X101172349Y-81092103D01*
X101085314Y-81045582D01*
X101009026Y-80982975D01*
X100946419Y-80906687D01*
X100924764Y-80866174D01*
X100899898Y-80819653D01*
X100890349Y-80788172D01*
X100871250Y-80725213D01*
X100864001Y-80651612D01*
X100864000Y-80651602D01*
X100864000Y-79978389D01*
X100871249Y-79904788D01*
X100899897Y-79810349D01*
X100946418Y-79723313D01*
X101009025Y-79647025D01*
X101085313Y-79584418D01*
X101172348Y-79537897D01*
X101266787Y-79509249D01*
X101365000Y-79499576D01*
X101463212Y-79509249D01*
X101463212Y-79509249D01*
G37*
G36*
X102733212Y-79509249D02*
X102827651Y-79537897D01*
X102914687Y-79584418D01*
X102990975Y-79647025D01*
X103053582Y-79723313D01*
X103100103Y-79810348D01*
X103128751Y-79904787D01*
X103136000Y-79978388D01*
X103136000Y-80651612D01*
X103128751Y-80725213D01*
X103100103Y-80819652D01*
X103053582Y-80906687D01*
X102990975Y-80982975D01*
X102914687Y-81045582D01*
X102827652Y-81092103D01*
X102733213Y-81120751D01*
X102635000Y-81130424D01*
X102536788Y-81120751D01*
X102442349Y-81092103D01*
X102355314Y-81045582D01*
X102279026Y-80982975D01*
X102216419Y-80906687D01*
X102194764Y-80866174D01*
X102169898Y-80819653D01*
X102160349Y-80788172D01*
X102141250Y-80725213D01*
X102134001Y-80651612D01*
X102134000Y-80651602D01*
X102134000Y-79978389D01*
X102141249Y-79904788D01*
X102169897Y-79810349D01*
X102216418Y-79723313D01*
X102279025Y-79647025D01*
X102355313Y-79584418D01*
X102442348Y-79537897D01*
X102536787Y-79509249D01*
X102635000Y-79499576D01*
X102733212Y-79509249D01*
X102733212Y-79509249D01*
G37*
G36*
X104003212Y-79509249D02*
X104097651Y-79537897D01*
X104184687Y-79584418D01*
X104260975Y-79647025D01*
X104323582Y-79723313D01*
X104370103Y-79810348D01*
X104398751Y-79904787D01*
X104406000Y-79978388D01*
X104406000Y-80651612D01*
X104398751Y-80725213D01*
X104370103Y-80819652D01*
X104323582Y-80906687D01*
X104260975Y-80982975D01*
X104184687Y-81045582D01*
X104097652Y-81092103D01*
X104003213Y-81120751D01*
X103905000Y-81130424D01*
X103806788Y-81120751D01*
X103712349Y-81092103D01*
X103625314Y-81045582D01*
X103549026Y-80982975D01*
X103486419Y-80906687D01*
X103464764Y-80866174D01*
X103439898Y-80819653D01*
X103430349Y-80788172D01*
X103411250Y-80725213D01*
X103404001Y-80651612D01*
X103404000Y-80651602D01*
X103404000Y-79978389D01*
X103411249Y-79904788D01*
X103439897Y-79810349D01*
X103486418Y-79723313D01*
X103549025Y-79647025D01*
X103625313Y-79584418D01*
X103712348Y-79537897D01*
X103806787Y-79509249D01*
X103905000Y-79499576D01*
X104003212Y-79509249D01*
X104003212Y-79509249D01*
G37*
G36*
X105273212Y-79509249D02*
X105367651Y-79537897D01*
X105454687Y-79584418D01*
X105530975Y-79647025D01*
X105593582Y-79723313D01*
X105640103Y-79810348D01*
X105668751Y-79904787D01*
X105676000Y-79978388D01*
X105676000Y-80651612D01*
X105668751Y-80725213D01*
X105640103Y-80819652D01*
X105593582Y-80906687D01*
X105530975Y-80982975D01*
X105454687Y-81045582D01*
X105367652Y-81092103D01*
X105273213Y-81120751D01*
X105175000Y-81130424D01*
X105076788Y-81120751D01*
X104982349Y-81092103D01*
X104895314Y-81045582D01*
X104819026Y-80982975D01*
X104756419Y-80906687D01*
X104734764Y-80866174D01*
X104709898Y-80819653D01*
X104700349Y-80788172D01*
X104681250Y-80725213D01*
X104674001Y-80651612D01*
X104674000Y-80651602D01*
X104674000Y-79978389D01*
X104681249Y-79904788D01*
X104709897Y-79810349D01*
X104756418Y-79723313D01*
X104819025Y-79647025D01*
X104895313Y-79584418D01*
X104982348Y-79537897D01*
X105076787Y-79509249D01*
X105175000Y-79499576D01*
X105273212Y-79509249D01*
X105273212Y-79509249D01*
G37*
G36*
X100193212Y-79509249D02*
X100287651Y-79537897D01*
X100374687Y-79584418D01*
X100450975Y-79647025D01*
X100513582Y-79723313D01*
X100560103Y-79810348D01*
X100588751Y-79904787D01*
X100596000Y-79978388D01*
X100596000Y-80651612D01*
X100588751Y-80725213D01*
X100560103Y-80819652D01*
X100513582Y-80906687D01*
X100450975Y-80982975D01*
X100374687Y-81045582D01*
X100287652Y-81092103D01*
X100193213Y-81120751D01*
X100095000Y-81130424D01*
X99996788Y-81120751D01*
X99902349Y-81092103D01*
X99815314Y-81045582D01*
X99739026Y-80982975D01*
X99676419Y-80906687D01*
X99654764Y-80866174D01*
X99629898Y-80819653D01*
X99620349Y-80788172D01*
X99601250Y-80725213D01*
X99594001Y-80651612D01*
X99594000Y-80651602D01*
X99594000Y-79978389D01*
X99601249Y-79904788D01*
X99629897Y-79810349D01*
X99676418Y-79723313D01*
X99739025Y-79647025D01*
X99815313Y-79584418D01*
X99902348Y-79537897D01*
X99996787Y-79509249D01*
X100095000Y-79499576D01*
X100193212Y-79509249D01*
X100193212Y-79509249D01*
G37*
G36*
X90117396Y-74955546D02*
X90290466Y-75027234D01*
X90446230Y-75131312D01*
X90578688Y-75263770D01*
X90682766Y-75419534D01*
X90754454Y-75592604D01*
X90791000Y-75776333D01*
X90791000Y-75963667D01*
X90754454Y-76147396D01*
X90682766Y-76320466D01*
X90578688Y-76476230D01*
X90446230Y-76608688D01*
X90290466Y-76712766D01*
X90117396Y-76784454D01*
X89933667Y-76821000D01*
X89746333Y-76821000D01*
X89562604Y-76784454D01*
X89389534Y-76712766D01*
X89233770Y-76608688D01*
X89101312Y-76476230D01*
X88997234Y-76320466D01*
X88925546Y-76147396D01*
X88889000Y-75963667D01*
X88889000Y-75776333D01*
X88925546Y-75592604D01*
X88997234Y-75419534D01*
X89101312Y-75263770D01*
X89233770Y-75131312D01*
X89389534Y-75027234D01*
X89562604Y-74955546D01*
X89746333Y-74919000D01*
X89933667Y-74919000D01*
X90117396Y-74955546D01*
X90117396Y-74955546D01*
G37*
G36*
X115517396Y-74955546D02*
X115690466Y-75027234D01*
X115846230Y-75131312D01*
X115978688Y-75263770D01*
X116082766Y-75419534D01*
X116154454Y-75592604D01*
X116191000Y-75776333D01*
X116191000Y-75963667D01*
X116154454Y-76147396D01*
X116082766Y-76320466D01*
X115978688Y-76476230D01*
X115846230Y-76608688D01*
X115690466Y-76712766D01*
X115517396Y-76784454D01*
X115333667Y-76821000D01*
X115146333Y-76821000D01*
X114962604Y-76784454D01*
X114789534Y-76712766D01*
X114633770Y-76608688D01*
X114501312Y-76476230D01*
X114397234Y-76320466D01*
X114325546Y-76147396D01*
X114289000Y-75963667D01*
X114289000Y-75776333D01*
X114325546Y-75592604D01*
X114397234Y-75419534D01*
X114501312Y-75263770D01*
X114633770Y-75131312D01*
X114789534Y-75027234D01*
X114962604Y-74955546D01*
X115146333Y-74919000D01*
X115333667Y-74919000D01*
X115517396Y-74955546D01*
X115517396Y-74955546D01*
G37*
G36*
X112977396Y-74955546D02*
X113150466Y-75027234D01*
X113306230Y-75131312D01*
X113438688Y-75263770D01*
X113542766Y-75419534D01*
X113614454Y-75592604D01*
X113651000Y-75776333D01*
X113651000Y-75963667D01*
X113614454Y-76147396D01*
X113542766Y-76320466D01*
X113438688Y-76476230D01*
X113306230Y-76608688D01*
X113150466Y-76712766D01*
X112977396Y-76784454D01*
X112793667Y-76821000D01*
X112606333Y-76821000D01*
X112422604Y-76784454D01*
X112249534Y-76712766D01*
X112093770Y-76608688D01*
X111961312Y-76476230D01*
X111857234Y-76320466D01*
X111785546Y-76147396D01*
X111749000Y-75963667D01*
X111749000Y-75776333D01*
X111785546Y-75592604D01*
X111857234Y-75419534D01*
X111961312Y-75263770D01*
X112093770Y-75131312D01*
X112249534Y-75027234D01*
X112422604Y-74955546D01*
X112606333Y-74919000D01*
X112793667Y-74919000D01*
X112977396Y-74955546D01*
X112977396Y-74955546D01*
G37*
G36*
X110437396Y-74955546D02*
X110610466Y-75027234D01*
X110766230Y-75131312D01*
X110898688Y-75263770D01*
X111002766Y-75419534D01*
X111074454Y-75592604D01*
X111111000Y-75776333D01*
X111111000Y-75963667D01*
X111074454Y-76147396D01*
X111002766Y-76320466D01*
X110898688Y-76476230D01*
X110766230Y-76608688D01*
X110610466Y-76712766D01*
X110437396Y-76784454D01*
X110253667Y-76821000D01*
X110066333Y-76821000D01*
X109882604Y-76784454D01*
X109709534Y-76712766D01*
X109553770Y-76608688D01*
X109421312Y-76476230D01*
X109317234Y-76320466D01*
X109245546Y-76147396D01*
X109209000Y-75963667D01*
X109209000Y-75776333D01*
X109245546Y-75592604D01*
X109317234Y-75419534D01*
X109421312Y-75263770D01*
X109553770Y-75131312D01*
X109709534Y-75027234D01*
X109882604Y-74955546D01*
X110066333Y-74919000D01*
X110253667Y-74919000D01*
X110437396Y-74955546D01*
X110437396Y-74955546D01*
G37*
G36*
X107897396Y-74955546D02*
X108070466Y-75027234D01*
X108226230Y-75131312D01*
X108358688Y-75263770D01*
X108462766Y-75419534D01*
X108534454Y-75592604D01*
X108571000Y-75776333D01*
X108571000Y-75963667D01*
X108534454Y-76147396D01*
X108462766Y-76320466D01*
X108358688Y-76476230D01*
X108226230Y-76608688D01*
X108070466Y-76712766D01*
X107897396Y-76784454D01*
X107713667Y-76821000D01*
X107526333Y-76821000D01*
X107342604Y-76784454D01*
X107169534Y-76712766D01*
X107013770Y-76608688D01*
X106881312Y-76476230D01*
X106777234Y-76320466D01*
X106705546Y-76147396D01*
X106669000Y-75963667D01*
X106669000Y-75776333D01*
X106705546Y-75592604D01*
X106777234Y-75419534D01*
X106881312Y-75263770D01*
X107013770Y-75131312D01*
X107169534Y-75027234D01*
X107342604Y-74955546D01*
X107526333Y-74919000D01*
X107713667Y-74919000D01*
X107897396Y-74955546D01*
X107897396Y-74955546D01*
G37*
G36*
X95197396Y-74955546D02*
X95370466Y-75027234D01*
X95526230Y-75131312D01*
X95658688Y-75263770D01*
X95762766Y-75419534D01*
X95834454Y-75592604D01*
X95871000Y-75776333D01*
X95871000Y-75963667D01*
X95834454Y-76147396D01*
X95762766Y-76320466D01*
X95658688Y-76476230D01*
X95526230Y-76608688D01*
X95370466Y-76712766D01*
X95197396Y-76784454D01*
X95013667Y-76821000D01*
X94826333Y-76821000D01*
X94642604Y-76784454D01*
X94469534Y-76712766D01*
X94313770Y-76608688D01*
X94181312Y-76476230D01*
X94077234Y-76320466D01*
X94005546Y-76147396D01*
X93969000Y-75963667D01*
X93969000Y-75776333D01*
X94005546Y-75592604D01*
X94077234Y-75419534D01*
X94181312Y-75263770D01*
X94313770Y-75131312D01*
X94469534Y-75027234D01*
X94642604Y-74955546D01*
X94826333Y-74919000D01*
X95013667Y-74919000D01*
X95197396Y-74955546D01*
X95197396Y-74955546D01*
G37*
M02*
